<svg xmlns="http://www.w3.org/2000/svg" fill-rule="evenodd" clip-rule="evenodd" image-rendering="optimizeQuality" shape-rendering="geometricPrecision" text-rendering="geometricPrecision" viewBox="0 0 17916 5901"><path fill="#2b2a29" d="M3447 5210c-11-26-25-50-42-71 1 32 40 64 42 71zm10907-43h689l-57-106h-27v-44h41v-105h329v-199h-18v-35h18v-44h-5v-14h45v-70h-6v-15h5v-6h4v-5h4v-3l76-575c-5-2-9-6-9-12 0-3 1-5 2-7l-1-4s-6-14-8-19-5-7-9-17c-4-9 4-11 9-17s7-8 7-11c-1-2-1-11-1-11l6-6 8 4s6 6 8 10 13 6 18 9c5 2 4 7 4 10s-8 0-13-3c-4-3-15-12-15-12s1 9 4 18-1 24-5 28c-2 2-1 9 1 15 6 1 10 6 10 12s-4 10-9 12l76 575v3h2v5h4v6h7v15h-6v70h45v14h-5v44h18v35h-18v199h329v105h41v44h-27l-57 106h369V3550h66v-113h153v113h567v-237h278v-63h-25v-51h127v51h-22v63h70v-290h462v2876h-2186v-7h-4v-4h-5v-5h-3v-4h-4l-9-359h4v-4h3v-3h3v-3h4v-8h-86v8h4v3h3v3h3v4h4l-9 359h-4v4h-3v5h-5v4h-4v7h-332v-7h-4v-4h-5v-5h-3v-4h-4l-9-359h4v-4h3v-3h3v-3h4v-8h-86v8h4v3h3v3h3v4h4l-9 359h-4v4h-3v5h-5v4h-4v7h-528v-7h-4v-4h-5v-5h-3v-4h-4l-9-359h4v-4h3v-3h3v-3h4v-8h-86v8h4v3h3v3h3v4h4l-9 359h-4v4h-3v5h-5v4h-4v7h-779v-108h-1639v108h-983v-780c0-514-402-931-897-931-214 0-410 78-564 207 91-31 186-48 281-48 334 0 670 201 807 559 32 84 51 172 57 263h2v729h-53v-675c0-451-364-816-812-816-151 0-293 42-414 114 63-17 127-26 192-26 283 0 560 168 688 462 37 85 59 176 65 271h2v671h-53v-617c0-401-314-727-702-727-150 0-289 49-403 132 51-12 104-18 156-18 140 0 281 42 399 127 107 77 195 190 236 329 11 36 18 74 21 112h3v662h-53v-606c0-311-272-563-607-563-100 0-195 23-279 63 17-1 34-2 52-2 119 0 239 35 340 108 92 66 167 162 202 281 8 28 14 58 18 87h3v633h-53v-577c0-261-228-472-509-472-110 0-211 32-294 87 13-1 26-2 39-2 196 0 408 118 473 341 7 23 12 46 15 70h4v553h-53v-496c0-225-196-407-439-407-242 0-439 182-439 407v496H3285c27 0 53-1 76-4-49-4-30-78-32-127-7-145-13-316-18-436 26-20 38-54 57-81-8 49-41 92-46 131 21-24 43-66 64-78-12 46-42 92-50 131 24-26 44-55 67-81-16 47-36 92-57 135 32-12 46-60 67-71-12 43-40 88-46 124 20-16 33-38 50-57-12 44-46 84-53 120 18-14 31-33 50-46-7 44-41 79-50 110 63-68 120-147 131-251 12-112-42-169-50-262 7 14 17 31 25 50 8 18 11 43 25 46-3-25-11-64-11-81 19 35 33 76 53 110 5-33-10-65-7-85 19 33 32 72 50 106 5-31-9-62-4-81 19 35 31 77 50 113 3-21-5-49 0-60 12 32 19 68 39 92 2-18-5-45 4-57 14 34 25 69 39 103-1-217-130-323-315-343 12-5 20-13 32-18 31 14 64 26 92 42-7-23-42-36-42-53 33 20 69 37 103 57-10-29-51-46-57-67 33 21 71 37 103 60-8-26-42-46-46-64 36 15 65 36 96 57-5-23-38-38-39-53 33 15 66 47 96 53-9-11-28-31-28-39 34 15 61 36 89 57-53-137-296-190-425-106 14-9 32-13 39-28-15 1-40 12-50 7 23-12 48-20 71-32-21-4-40 2-60 7 19-21 52-28 78-42-19-8-52 13-67 7 21-15 68-24 74-42-13 2-38 8-53 4 25-13 58-18 78-35-24-3-30 9-50 0 25-12 55-19 78-32-13-7-30 3-39-4 20-12 46-17 67-28-143-6-215 90-248 205-31-153-154-267-340-230 35 2 65 10 92 21-12 6-38 0-46 11 35 2 64 12 89 25-19 0-38 0-50 7 36 5 71 11 96 28-23 0-49-2-64 7 31 8 65 13 89 28-26 0-51 1-71 7 40 4 73 17 103 32-18 0-50-3-71 4 25 7 52 12 71 25-17 4-38-7-46 0 54 20 123 42 124 103-47-78-161-133-287-120-89 9-163 66-198 117 23-20 56-29 85-42-4 12-28 24-21 35 25-16 65-37 92-39-20 9-32 27-46 42 36-13 75-40 110-42-18 12-46 31-50 46 24-16 58-22 89-32-14 19-37 29-50 50 35-12 78-36 110-39-24 15-45 33-64 53 32-11 73-34 103-35-20 11-52 28-57 42 41-18 118-51 156-11-257 5-409 152-390 411 6-47 21-85 39-120 1 14-6 52 7 64 9-43 23-81 39-117 1 22-6 53 4 74 9-44 25-81 42-117 2 26-5 61 4 81 14-42 27-84 46-120 2 43-8 61 4 92 11-46 28-86 46-124-1 26-10 74 0 89 8-39 23-71 42-99 5 55-24 87-35 120-48 137 13 289 92 351-19-31-40-78-39-117 9 21 22 37 39 50-11-37-32-83-35-117 13 22 27 44 46 60-15-41-26-88-39-131 22 20 34 51 57 71-12-41-32-93-35-131 16 27 38 66 57 78-15-37-34-89-32-131 15 26 34 67 53 78-14-33-31-82-32-117 12 30 29 54 46 78-8-35-26-80-18-120 5 25 16 45 28 64-4-34-13-83-7-106 27 79 23 221 14 343-8 119-37 277-57 351-7 25-48 26-57 42 39-1 82 1 123 1H387v-2c-5 0-11-1-16-2 7-1 12-3 16-6v-400c-18-21-34-44-53-64 14 41 31 79 49 117-27-10-40-52-58-61 10 37 34 76 40 108-17-14-29-33-43-49 10 38 40 73 46 104-16-12-27-28-43-40 6 38 36 69 43 95-55-59-104-128-114-218-11-97 37-147 43-227-6 13-14 27-22 43-7 15-9 37-21 40 3-22 10-56 9-71-17 30-29 66-46 95-4-29 9-57 6-74-16 29-28 62-43 92-4-27 8-54 3-71-17 30-27 67-43 98-3-18 4-43 0-52-10 28-17 59-34 80-2-15 4-39-3-49-12 29-22 60-34 89 1-188 113-280 273-298-10-4-18-11-28-15-27 12-56 22-80 37 6-20 36-32 37-46-29 17-60 32-89 49 8-25 44-40 49-58-29 18-62 33-89 52 7-23 36-40 40-55-31 13-56 32-83 49 5-20 33-33 34-46-28 13-57 41-83 46 8-10 25-27 25-34-29 13-53 31-77 49 46-119 257-165 369-92-12-7-28-11-34-25 13 1 35 10 43 6-20-10-42-17-61-28 18-3 34 2 52 6-16-18-45-24-68-37 16-7 45 11 58 6-18-13-59-21-65-37 11 2 33 7 46 3-21-12-50-16-68-31 21-3 26 8 43 0-22-10-47-16-68-28 12-6 26 2 34-3-17-10-40-15-58-25 75-3 127 26 163 71V2964h171v-163h158v-886h9v-98h11v98h9v886h799v163h171v2547h101l50-940h117v-105h-48c-5 0-10-4-10-10 0-5 4-10 10-10h8v-54h-14c-7 0-14-6-14-14 0-7 6-13 13-14v-125l-4-8h-22c5-4 9-9 14-15l-1-1h-10c106-104 182-438 185-547h-2v-3c8-6 15-14 19-24v-147h-3c-7 0-12-6-12-12s5-12 11-12c-3-1-5-3-5-7s3-7 7-7h5v-27c-3 0-6-3-6-6s2-5 5-6c-1 0-2-2-2-3 0-2 1-3 3-3v-136c0-4 4-8 8-8s8 4 8 8v143c1 1 2 3 2 4 0 2-1 3-2 4v28h5c4 0 7 3 7 7 0 3-2 6-5 7 6 1 11 6 11 12 0 7-6 12-12 12h-3v154c4 7 9 12 16 17v3h-2v3h2c2 69 34 229 83 364 45-65 76-205 78-254h-1v-1c6-5 11-11 12-19v-75c-3 0-4-1-4-2s2-1 4-2v-20h-1c-2 0-3-1-3-3 0-1 1-3 2-3-1 0-1-1-1-2s1-2 2-2h1v-40c-1-1-1-2-1-3s1-3 2-3v-1c0-1 1-2 2-2s2 1 2 2v1c1 0 2 2 2 3s-1 2-1 3v40h1c1 0 2 1 2 2s-1 1-1 2c1 0 3 1 3 3s-1 3-3 3h-1v20c3 0 4 1 4 2s-2 1-4 2v75c1 8 5 15 12 19v1h-1c2 54 40 221 92 272h-5l-6 12v62c4 0 6 3 6 7s-3 7-7 7h-7v27h4c2 0 4 2 5 4h17c4 0 7 3 7 7v75h24v-2h-2c-6 0-10-5-10-10 0-6 5-10 10-10h8v-58h-15c-8 0-15-7-15-15s6-14 14-15v-134l-14-25h-10c114-112 196-472 200-589h-2v-3c13-10 23-25 25-42v-162c-6-1-10-2-10-3 0-2 4-3 10-3v-43h-1c-3 0-6-3-6-6s2-6 5-6c-1 0-3-2-3-3 0-2 2-3 3-3h3v-88c-2-1-3-3-3-6s2-6 5-6c-1-1-1-1-1-2 0-2 1-3 3-3s3 1 3 3c0 1 0 2-1 2 3 1 5 3 5 6 0 2-1 5-3 6v88h3c2 0 3 2 3 3 0 2-1 3-3 3 3 0 5 3 5 6s-3 6-6 6h-1v43c6 1 10 2 10 3 0 2-4 3-10 3v162c2 17 12 32 25 42v3h-2c4 117 86 477 200 589h-10l-14 25v134c8 0 14 7 14 15s-7 15-15 15h-15v58h8c6 0 10 5 10 10 0 4-3 8-6 10v3h139v-727h-3c-9 0-16-7-16-16v-3c-8-1-15-8-15-16v-9c-8-1-14-8-14-16v-187h-5v-252h-6c-4 0-7-3-7-7s3-7 7-7h6v-40h-11c-6 0-10-5-10-10s4-10 9-10v-92l-9-17h-7c78-76 134-322 136-402h-1v-2c9-7 16-17 17-29v-110c-4 0-6-1-6-2s3-2 6-2v-30h-1c-2 0-4-2-4-4s2-4 4-4c-1 0-2-1-2-2s1-2 2-2h2v-59c-1-1-2-2-2-4s1-4 3-4c0 0-1-1-1-2s1-2 2-2 2 1 2 2 0 1-1 2c2 1 3 2 3 4s-1 3-2 4v59h2c1 0 2 1 2 2s-1 2-2 2c2 0 4 2 4 4s-2 4-4 4h-1v30c4 0 6 1 6 2s-3 2-6 2v110c2 12 8 22 17 29v2h-2c3 80 59 326 136 402h-7l-9 17v92c5 0 9 5 9 10 0 6-5 10-10 10h-11v40h35v-246h-16c-3 0-5-3-5-7s2-7 5-7h4v-40h-7c-4 0-7-5-7-10s3-10 7-10v-92l-7-17h-5c55-76 94-323 96-403h-1v-2c6-7 11-17 12-29v-111c-3 0-5-1-5-2s2-2 5-2v-30h-1c-2 0-3-2-3-4s1-4 3-4c-1 0-1-1-1-2s1-2 2-2h1v-59c-1-1-2-2-2-4s1-4 2-4v-2c0-1 1-2 2-2s2 1 2 2v2c1 1 2 2 2 4s-1 3-2 4v59h1c1 0 2 1 2 2s-1 2-1 2c1 0 3 2 3 4s-1 4-3 4h-1v30c3 0 5 1 5 2s-2 2-5 2v111c1 12 6 22 12 29v2h-1c0 19 3 48 7 81h166c4-33 7-62 7-81h-1v-2c6-7 11-17 12-29v-111c-3 0-5-1-5-2s2-2 5-2v-30h-1c-2 0-3-2-3-4s1-4 3-4c-1 0-1-1-1-2s1-2 2-2h1v-59c-1-1-2-2-2-4s1-4 2-4v-2c0-1 1-2 2-2s2 1 2 2v2c1 1 2 2 2 4s-1 3-2 4v59h1c1 0 2 1 2 2s-1 2-1 2c1 0 3 2 3 4s-1 4-3 4h-1v30c3 0 5 1 5 2s-2 2-5 2v111c1 12 6 22 12 29v2h-1c1 29 6 79 16 135 43-102 72-291 73-359h-1v-2c6-7 11-17 12-29v-111c-3 0-5-1-5-2s2-2 5-2v-30h-1c-2 0-3-2-3-4s1-4 3-4c-1 0-1-1-1-2s1-2 2-2h1v-59c-1-1-2-2-2-4s1-4 2-4v-2c0-1 1-2 2-2s2 1 2 2v2c1 1 2 2 2 4s-1 3-2 4v59h1c1 0 2 1 2 2s-1 2-1 2c1 0 3 2 3 4s-1 4-3 4h-1v30c3 0 5 1 5 2s-2 2-5 2v111c1 12 6 22 12 29v2h-1c2 80 41 326 96 403h-5l-7 17v92c4 0 7 5 7 10 0 6-3 10-7 10h-7v40h4c3 0 5 3 5 7 0 2-1 4-2 5v192h33v-467h38v-425l-34-86h-39c-7 0-13-6-13-13s6-13 13-13h6v-75h-6c-7 0-13-6-13-13s6-13 13-13h54v-78h32v-174h14v-27c11-35 21-87 30-149-12-2-21-7-21-14s11-14 25-14c3-18 5-37 7-56-7-2-12-7-12-13s6-12 15-14c3-23 5-47 8-72-9-1-17-7-17-14 0-8 9-14 19-14 2-18 3-36 5-54h-4c-11 0-21-7-21-14 0-8 9-14 21-14h7c1-17 3-33 4-50h-4c-10 0-18-7-18-14 0-8 8-14 18-14h6c1-18 3-36 4-54h-2c-8 0-14-7-14-14 0-8 7-14 14-14h4c1-14 2-27 3-40h-7c-8 0-14-7-14-14 0-8 7-14 14-14h9c1-15 2-30 3-44h-7c-7 0-12-6-12-12 0-7 6-12 12-12h8c6-108 10-202 11-260h27c1 58 4 152 11 260h6c7 0 12 6 12 12 0 7-6 12-12 12h-4c1 14 2 29 3 44h7c8 0 14 6 14 14s-7 14-14 14h-5c1 13 2 27 3 40h2c8 0 14 6 14 14s-6 14-14 14c1 18 3 36 4 54h4c10 0 18 7 18 14 0 8-8 14-18 14h-1c1 17 3 33 4 50h4c11 0 21 6 21 14s-9 14-21 14h-2c2 18 3 36 5 54 10 1 17 7 17 14 0 6-6 12-14 14 3 25 5 50 8 73 7 2 12 7 12 13 0 5-4 9-9 12 2 20 5 39 8 57 13 1 23 7 23 14 0 6-8 12-19 14 9 62 19 114 30 149v27h14v174h32v78h54c7 0 13 6 13 13s-6 13-13 13h-7v75h7c7 0 13 6 13 13s-6 13-13 13h-40l-34 86v425h38v469h57c0-11 9-20 20-20h20v-30h-16c-3 0-5-3-5-7s2-7 5-7h4v-40h-7c-4 0-7-5-7-10s3-10 7-10v-92l-7-17h-5c55-76 94-323 96-403h-1v-2c6-7 11-17 12-29v-111c-3 0-5-1-5-2s2-2 5-2v-30h-1c-2 0-3-2-3-4s1-4 3-4c-1 0-1-1-1-2s1-2 2-2h1v-59c-1-1-2-2-2-4s1-4 2-4v-2c0-1 1-2 2-2s2 1 2 2v2c1 1 2 2 2 4s-1 3-2 4v59h1c1 0 2 1 2 2s-1 2-1 2c1 0 3 2 3 4s-1 4-3 4h-1v30c3 0 5 1 5 2s-2 2-5 2v111c1 12 6 22 12 29v2h-1c2 80 41 326 96 403h-5l-7 17v92c4 0 7 5 7 10 0 6-3 10-7 10h-7v40h4c3 0 5 3 5 7s-2 7-5 7h-16v30h20c11 0 20 9 20 20v291c25-68 40-148 41-183h-1v-1c6-5 11-12 12-20v-78c-3 0-5-1-5-2s2-1 5-2v-21h-1c-2 0-3-1-3-3 0-1 1-3 3-3-1 0-1-1-1-2s1-2 2-2h1v-42c-1-1-2-2-2-3s1-3 2-3v-1c0-1 1-2 2-2s2 1 2 2v1c1 0 2 2 2 3s-1 2-2 3v42h1c1 0 2 1 2 2s-1 1-1 2c1 0 3 1 3 3s-1 3-3 3h-1v21c3 0 5 1 5 2s-2 1-5 2v78c1 8 6 16 12 20v1h-1c2 57 41 230 96 284h-5l-7 12v65c4 0 7 3 7 7s-3 7-7 7h-7v28h4c3 0 5 2 5 5s-2 5-5 5h-5c1 2 1 4 1 6v203c0 8-6 15-14 16v9c0 9-7 16-15 16v3c0 9-7 16-16 16h-3v1c0 9-7 16-16 16v164h64v-200h115c2-5 3-10 4-15v-162c-6-1-10-2-10-3 0-2 4-3 10-3v-43h-1c-3 0-6-3-6-6s2-6 5-6c-1 0-3-2-3-3 0-2 2-3 3-3h3v-88c-2-1-3-3-3-6s2-6 5-6c-1-1-1-1-1-2 0-2 1-3 3-3s3 1 3 3c0 1 0 2-1 2 3 1 5 4 5 6s-1 5-3 6v88h3c2 0 3 2 3 3 0 2-1 3-3 3 3 0 5 3 5 6s-3 6-6 6h-1v43c6 1 10 2 10 3 0 2-4 3-10 3v162c1 5 2 10 4 15h272v154c1 1 1 2 1 4 0 1 0 3-1 4v39h44c-12-6-24 0-39-2v-29c14-2 29-1 40 7v-229l271-481 5-381h2l6 380 271 482v253h29v-967l271-480 5-381h2l6 380 271 482v2031h29V2026l271-480 5-381h2l6 380 271 482v2580h25V1026l271-480 5-381h2l4 287h569l4-287h2l6 380 271 482v1663c50-34 182-65 368-87V656c4 1 9 2 13 3 150 88 563 150 1049 150 482 0 892-62 1045-148 2 0 4-1 6-1v1386h519c61-172 223-301 420-324v139h131v-139c54 6 105 21 152 41V654c130-82 256-152 379-211V167c14-6 28-11 42-16 7-3 14-5 20-7v66c79-29 167-55 264-76V70c21-4 41-9 62-13v64c83-16 171-29 264-38V20c21-2 41-4 62-6v63c83-7 169-11 258-12V3h62v62c88 1 174 5 258 12V14c21 2 41 3 62 6v63c92 9 181 22 264 38V57c21 4 41 8 62 13v64c96 21 185 47 264 76v-66c7 2 14 5 20 7 13 5 27 10 42 16v290c123 57 249 122 379 198v4515zm-1084 194c-11-24-18-66-18-114 0-74 16-134 37-134 13 0 25 27 32 66-6-12-12-20-19-20-20 0-37 60-37 134 0 25 2 48 5 68zm-756 0c-11-24-18-66-18-114 0-74 16-134 37-134 13 0 25 27 32 66-6-12-12-20-19-20-20 0-37 60-37 134 0 25 2 48 5 68zm41-166h21v233h-21v-233zm-32-173c13 0 25 34 32 87-7-27-15-43-25-43-23 0-41 94-41 209 0 21 1 41 2 60-4-32-7-72-7-114 0-110 17-199 39-199zm115 327c14-30 24-84 24-146 0-95-22-171-49-171-18 0-34 34-42 85 7-16 16-25 25-25 27 0 49 77 49 171 0 32-2 61-7 87zm-22 8c11-24 18-66 18-114 0-74-16-134-37-134-13 0-25 27-32 66 6-12 12-20 19-20 20 0 37 60 37 134 0 25-2 48-5 68zm694-161h21v233h-21v-233zm-32-173c13 0 25 34 32 87-7-27-15-43-25-43-23 0-41 94-41 209 0 21 1 41 2 60-4-32-7-72-7-114 0-110 17-199 39-199zm115 327c14-30 23-84 23-146 0-95-22-171-49-171-18 0-34 34-42 85 7-16 16-25 25-25 27 0 49 77 49 171 0 32-2 61-7 87zm-22 8c10-24 17-66 17-114 0-74-16-134-37-134-13 0-25 27-32 66 6-12 12-20 19-20 20 0 37 60 37 134 0 25-2 48-5 68zm-1242 252c-15-33-24-91-24-158 0-102 23-185 50-185 19 0 35 37 44 92-8-17-17-27-26-27-28 0-50 83-50 185 0 34 3 66 7 94zm57-230h29v322h-29v-322zm-44-240c18 0 35 47 44 120-9-37-21-59-34-59-31 0-56 130-56 289 0 29 1 57 2 83-6-45-10-99-10-158 0-152 24-275 54-275zm160 452c19-42 33-117 33-202 0-131-30-237-68-237-25 0-47 47-58 117 10-22 22-35 35-35 37 0 68 106 68 237 0 44-3 85-9 120zm-31 11c15-33 24-91 24-158 0-102-23-185-50-185-19 0-35 37-44 92 8-17 17-27 26-27 28 0 50 83 50 185 0 34-3 66-7 94zm546-493c-28-62-46-175-46-304 0-197 43-356 97-356 33 0 62 60 79 152h11c17-100 47-166 82-166 54 0 97 159 97 356 0 129-19 241-47 304 8-53 13-114 13-180 0-197-43-356-97-356-17 0-32 15-46 42h9v658h-42v-658h10c-12-18-24-28-38-28-54 0-97 159-97 356 0 66 5 127 13 180zm26-902c35 0 66 91 85 230-18-71-41-113-66-113-60 0-108 249-108 556 0 56 2 109 5 160-12-86-19-191-19-304 0-292 46-529 103-529zm306 867c37-80 62-224 62-388 0-251-58-455-130-455-48 0-90 90-112 225 20-42 43-66 68-66 72 0 130 204 130 455 0 84-6 162-18 230zm-446 211h491v51h-491v-51zm-5372-677V1028h-24v3581h24zm1422-352v-23c163 13 325 22 464 29v13c-164-3-319-9-464-18zm-84-30c-10 6-20 13-28 22-372-30-650-81-756-142v-35c120 76 446 125 784 155zm-332 127h-173c-130-24-226-52-279-83v-35c79 50 249 89 453 118zm-539 601h-46v-122h46v122zm-220-213v-134h-9v-29h77v163h-68zm-84-134h-77v-29h77v29zm-275 0h-77v-29h77v29zm-152 0h-77v-29h77v29zm-152 0h-77v-29h77v29zm-275 0h-77v-42h77v42zm-152 0h-77v-42h77v42zm-152 0h-77v-42h77v42zm-306 166v163h-51v-163h51zm-126-880h-71v-106h45v-27h26v133zm7702 1752l1 1 2 4 1 3 2 4 1 3 1 3 2 5 1 3 2 5 1 2 2 5 1 3 2 6v1c1 2 2 4 2 7l1 1 2 7v1l2 7 1 2 2 7h161v32h-1701v-32h161c57-172 129-261 487-283v-80h404v80c300 18 399 84 457 205zm-6-50v14c0-1-1-2-1-3v-3c-13-33-22-89-22-152 0-65 9-122 23-155v-1l1-2 3-6v-3c1-1 1-2 2-3l1-1 1-1 1-1 1-1 1-1 1-1 1-1v-1l1-1 1-1 1-1 1-1 1-1 1-1s1 0 1-1c0 0 1 0 1-1 0 0 1 0 1-1h5c19 0 35 37 44 92-8-17-17-27-26-27h-5l-1 1-1 1-1 1-1 1-1 1-1 1-1 1-1 1v1l-1 1-1 1v1l-1 1-1 1v1l-1 1v1l-1 1v1l-1 2v3l-1 1v2l-1 2v2l-1 1v1l-1 2v1l-1 2v2c-1 2-1 4-2 6v3l-1 3v1c0 1-1 3-1 4v2l-1 3v5l-1 4v3c-2 10-4 21-5 33v3c-3 23-4 48-4 75s2 53 4 76zm0-440c2-3 3-5 5-7l1-1c1-1 2-1 3-2l1-1s1 0 1-1c1 0 2-1 3-1h1c18 0 35 47 44 120-9-37-21-59-34-59h-3s-1 0-1 1c0 0-1 0-1 1l-1 1-1 1-1 1-1 1-1 1v1l-1 1-1 1-1 1-1 1-1 1-1 1-1 1-1 1v1l-1 2c-1 3-2 5-4 8l-1 3c-18 48-30 145-30 257 0 29 1 57 2 83-6-45-10-99-10-158 0-123 16-228 38-263zm750 214v11h1887v-11h-639c-7-78-72-139-152-139s-145 61-152 139h-944zm0 42v11h1887v-11h-1887zM297 5303c10-23 22-44 37-61-1 28-34 55-37 61zm86 176c-10-29-29-61-37-93 12 7 25 26 37 43v50zm0-77c-9-20-19-40-22-63 8 12 15 25 22 37v26zm88 359c-9-52-18-111-24-164h79v164h-56zm-28-223c-3-55-5-113-3-164h28c-3 11-6 21-8 31 7-10 14-20 21-31h13c-6 23-14 46-22 64 16-9 32-42 44-64h2c1 36-15 79-28 111 12-7 25-27 36-46v35c-6 19-13 39-18 57 7-6 12-13 18-21v28h-84zm2-223c3-19 7-37 12-52 3 12 2 32-1 52h-11zm26 0c2-5 3-10 4-15 1 5 2 10 2 15h-6zm113 316c6-11 12-22 18-34h89v164H585v-130zm37-93c11-48 10-101-8-152-1-4-3-8-5-12h45c2 8 5 16 7 25 3-9 4-17 5-25h22c2 4 3 9 5 13v151h-69zm-37-223v-32c7 10 13 20 18 31h-18zm37 0c-1-9-2-17-2-24 4 8 8 16 11 24h-9zm126 80c13 29 24 61 31 96 12-10 5-43 6-55 16 30 28 63 34 103h-71v-143zm71 143c4-63-3-118-20-164h55v164h-35zm-50-223c-7-10-14-19-21-27v-137h22c4 2 8 4 13 5l-5-5h41l3 2c0-1 1-1 1-2h31v164h-85zm-79-76c-31-19-66-34-106-43v-16c12 4 23 9 32 13-3-9-18-19-32-28v-6c23 6 50 20 72 28-12-13-26-25-40-36h22c17 7 36 15 52 21v67zm-164-53c-15-2-30-2-45-3 12-12 28-17 45-17v19zm164-20c-5-6-11-11-17-16h17v16zm114-75c-17-11-36-19-57-26v-139h106v164h-50zm-114-36c-38-2-74 3-106 13v-18h2l-2-1v-25c9-2 19-4 29-5-9-3-19-4-29-5v-14c14-4 30-7 45-11-10-6-28-6-45-6v-6c20-10 46-14 72-18-10-6-26-7-43-6 21-11 46-19 77-22-1-2-4-3-6-4h6v129zm-226 94c-3 4-5 7-7 11 0-4 0-8 1-11h6zm52-59c4-2 7-3 11-5v5h-11zm11-19h-2c1-1 2-1 2-1v2zm0-25h-2l2-1v1zm0-102c-44 35-74 87-89 145h-6c-3-11-7-21-11-31v-133h106v19zM420 3000h106v290H420v-290zm1148 0h106v290h-106v-290zm-164 0h106v290h-106v-290zm-164 0h106v290h-106v-290zm-164 0h106v290h-106v-290zm-164 0h106v290H912v-290zm-164 0h106v290H748v-290zm-164 0h106v290H584v-290zm-164 362h106v164H420v-164zm1148 0h106v164h-106v-164zm-164 0h106v164h-106v-164zm-164 0h106v164h-106v-164zm-164 0h106v164h-106v-164zm-164 0h106v164H912v-164zm-164 0h106v164H748v-164zm-164 0h106v164H584v-164zm-164 223h106v164H420v-164zm1148 0h106v164h-106v-164zm-164 0h106v164h-106v-164zm-164 0h106v164h-106v-164zm-164 0h106v164h-106v-164zm-164 0h106v164H912v-164zm-164 0h106v164H748v-164zm-164 0h106v164H584v-164zm-164 223h106v164H420v-164zm1148 0h106v164h-106v-164zm-164 0h106v164h-106v-164zm-164 0h106v164h-106v-164zm-164 0h106v164h-106v-164zm-164 0h106v164H912v-164zm-164 0h106v164H748v-164zm-164 0h106v164H584v-164zm-164 223h106v164H420v-164zm1148 0h106v164h-106v-164zm-164 0h106v164h-106v-164zm-164 0h106v164h-106v-164zm-164 0h106v164h-106v-164zm-164 0h106v164H912v-164zm-164 0h106v164H748v-164zm-164 0h106v164H584v-164zm-164 223h106v164H420v-164zm1148 0h106v164h-106v-164zm-164 0h106v164h-106v-164zm-164 0h106v164h-106v-164zm-164 0h106v164h-106v-164zm-164 0h106v164H912v-164zm-164 0h106v164H748v-164zm-164 0h106v164H584v-164zm-164 223h106v164H420v-164zm1148 0h106v164h-106v-164zm-164 0h106v164h-106v-164zm-164 0h106v164h-106v-164zm-164 0h106v164h-106v-164zm-164 0h106v164H912v-164zm-164 0h106v164H748v-164zm-164 0h106v164H584v-164zm-164 223h106v164H420v-164zm1148 0h106v164h-106v-164zm-164 0h106v164h-106v-164zm-164 0h106v164h-106v-164zm-164 0h106v164h-106v-164zm-164 0h106v164H912v-164zm-164 0h106v164H748v-164zm-164 0h106v164H584v-164zm984 223h106v164h-106v-164zm-164 0h106v164h-106v-164zm-164 0h106v164h-106v-164zm-164 0h106v164h-106v-164zm-164 0h106v164H912v-164zm656 223h106v164h-106v-164zm-164 0h106v164h-106v-164zm-164 0h106v164h-106v-164zm-164 0h106v164h-106v-164zm-164 0h106v164H912v-164zm656 223h106v136h-22v29h-84v-164zm-164 0h106v164h-106v-164zm-164 0h106v164h-106v-164zm-164 0h106v164h-106v-164zm-164 0h106v164H912v-164zm656 223h84v164h-84v-164zm-164 0h106v164h-106v-164zm-164 0h106v164h-106v-164zm-164 0h106v164h-106v-164zm-164 0h106v164H912v-164zm-164 0h106v164H748v-164zm3942-2413c35-6 74 9 75 77-26-63-47-40-75-44v-33zm-2368 433c16-3 34 4 35 36-12-29-22-18-35-20v-15zm345-577c35-6 74 9 75 77-26-63-47-40-75-44v-33zm-542 299c33-5 68 8 69 72-24-59-43-37-69-41v-31zm5760 602c155 90 683 159 1332 169v-13c-452-20-1144-72-1332-191v35zm0-164c155 90 683 159 1332 169v-13c-452-20-1144-72-1332-191v35zm0-164c155 90 683 159 1332 169v-13c-452-20-1144-72-1332-191v35zm0-164c155 90 683 159 1332 169v-13c-452-20-1144-72-1332-191v35zm0-164c155 90 683 159 1332 169v-13c-452-20-1144-72-1332-191v35zm0-164c155 90 683 159 1332 169v-13c-452-20-1144-72-1332-191v35zm0-164c155 90 683 159 1332 169v-13c-452-20-1144-72-1332-191v35zm0-164c155 90 683 159 1332 169v-13c-452-20-1144-72-1332-191v35zm-2316 183h-255l240 429h15v-429zm583-715h-255l240 429h15v-429zm582-719h-255l240 429h15v-429zM5094 3460h77v163h-77v-163zm304 0h77v163h-77v-163zm-152 0h77v163h-77v-163zm735 1058h77v163h-77v-163zm0-253h77v163h-77v-163zm0-253h77v163h-77v-163zm0-253h77v163h-77v-163zm-304-253h77v163h-77v-163zm304 0h77v163h-77v-163zm-152 0h77v163h-77v-163zm-152-253h77v163h-77v-163zm304 0h77v163h-77v-163zm-152 0h77v163h-77v-163zm-152-253h77v163h-77v-163zm304 0h77v163h-77v-163zm-152 0h77v163h-77v-163zm-152-253h77v163h-77v-163zm304 0h77v163h-77v-163zm-152 0h77v163h-77v-163zm431 1565h77v163h-77v-163zm304 0h77v163h-77v-163zm-152 0h77v163h-77v-163zm-152-253h77v163h-77v-163zm304 0h77v163h-77v-163zm-152 0h77v163h-77v-163zm-152-253h77v163h-77v-163zm304 0h77v163h-77v-163zm-152 0h77v163h-77v-163zm-152-253h77v163h-77v-163zm304 0h77v163h-77v-163zm-152 0h77v163h-77v-163zm-152-253h77v163h-77v-163zm304 0h77v163h-77v-163zm-152 0h77v163h-77v-163zm-152-253h77v163h-77v-163zm304 0h77v163h-77v-163zm-152 0h77v163h-77v-163zm-152-253h77v163h-77v-163zm304 0h77v163h-77v-163zm-152 0h77v163h-77v-163zm-152-253h77v163h-77v-163zm304 0h77v163h-77v-163zm-152 0h77v163h-77v-163zm-152-253h77v163h-77v-163zm304 0h77v163h-77v-163zm-152 0h77v163h-77v-163zm-152-253h77v163h-77v-163zm304 0h77v163h-77v-163zm-152 0h77v163h-77v-163zm1310 2546h77v163h-77v-163zm-304-253h77v163h-77v-163zm304 0h77v163h-77v-163zm-152 0h77v163h-77v-163zm-152-253h77v163h-77v-163zm304 0h77v163h-77v-163zm-152 0h77v163h-77v-163zm-152-253h77v163h-77v-163zm304 0h77v163h-77v-163zm-152 0h77v163h-77v-163zm-152-253h77v163h-77v-163zm304 0h77v163h-77v-163zm-152 0h77v163h-77v-163zm-152-253h77v163h-77v-163zm304 0h77v163h-77v-163zm-152 0h77v163h-77v-163zm-152-253h77v163h-77v-163zm304 0h77v163h-77v-163zm-152 0h77v163h-77v-163zm-152-253h77v163h-77v-163zm304 0h77v163h-77v-163zm-152 0h77v163h-77v-163zm-152-253h77v163h-77v-163zm304 0h77v163h-77v-163zm-152 0h77v163h-77v-163zm-152-253h77v163h-77v-163zm304 0h77v163h-77v-163zm-152 0h77v163h-77v-163zm-152-253h77v163h-77v-163zm304 0h77v163h-77v-163zm-152 0h77v163h-77v-163zm-152-253h77v163h-77v-163zm304 0h77v163h-77v-163zm-152 0h77v163h-77v-163zm-152-253h77v163h-77v-163zm304 0h77v163h-77v-163zm-152 0h77v163h-77v-163zm-152-253h77v163h-77v-163zm304 0h77v163h-77v-163zm-152 0h77v163h-77v-163zm-152-253h77v163h-77v-163zm304 0h77v163h-77v-163zm-152 0h77v163h-77v-163zm-731 3293h77v163h-77v-163zm304 0h77v163h-77v-163zm-152 0h77v163h-77v-163zm-152-253h77v163h-77v-163zm304 0h77v163h-77v-163zm-152 0h77v163h-77v-163zm-152-253h77v163h-77v-163zm304 0h77v163h-77v-163zm-152 0h77v163h-77v-163zm-152-253h77v163h-77v-163zm304 0h77v163h-77v-163zm-152 0h77v163h-77v-163zm-152-253h77v163h-77v-163zm304 0h77v163h-77v-163zm-152 0h77v163h-77v-163zm-152-253h77v163h-77v-163zm304 0h77v163h-77v-163zm-152 0h77v163h-77v-163zm-152-253h77v163h-77v-163zm304 0h77v163h-77v-163zm-152 0h77v163h-77v-163zm-152-253h77v163h-77v-163zm304 0h77v163h-77v-163zm-152 0h77v163h-77v-163zm-152-253h77v163h-77v-163zm304 0h77v163h-77v-163zm-152 0h77v163h-77v-163zm-152-253h77v163h-77v-163zm304 0h77v163h-77v-163zm-152 0h77v163h-77v-163zm-152-253h77v163h-77v-163zm304 0h77v163h-77v-163zm-152 0h77v163h-77v-163zm-152-253h77v163h-77v-163zm304 0h77v163h-77v-163zm-152 0h77v163h-77v-163zm-152-253h77v163h-77v-163zm304 0h77v163h-77v-163zm-152 0h77v163h-77v-163zm-152-253h77v163h-77v-163zm304 0h77v163h-77v-163zm-152 0h77v163h-77v-163zm2268-892V46h68v105h78V90h149v93h37c225 0 435 19 617 52v17h4v225c89 28 141 60 141 95 0 104-464 189-1036 189s-1036-85-1036-189c0-29 36-57 101-82 6-9 12-17 20-25 48-53 130-101 239-143 155-58 362-102 600-124v-48h19zm295 69v168c15 1 29 1 44 2V219h-44zm-460 168V284h25v-36c-29 4-57 8-85 12v131l60-3zm59-104h85v-48c-29 3-57 5-85 9v40zm479 109c29 2 57 4 85 6V223c-28-1-57-1-85-2v172zm120 9c29 2 58 5 85 8V228c-28-2-57-3-85-4v178zm120 12c29 3 58 7 85 11V238c-28-3-56-5-85-7v183zm120 16c30 5 58 10 85 15V251c-28-4-56-7-85-10v189zm120 22c23 5 45 10 66 16V265c-21-4-43-7-66-10v197zm-1671 20c24-7 51-14 80-20v-39c-33 19-60 39-80 59zm115-27c27-5 55-10 85-15v-72c-31 12-59 24-85 37v50zm120-20c27-4 56-8 85-11v-95c-30 8-58 17-85 27v80zm120-15c28-3 56-6 85-8V289c-29 6-58 13-85 20v101zm120-11c28-2 56-4 85-6V266c-29 5-58 10-85 16v117zm4995 298V546l-130-130-134 134v147h264zm-326 0V538l-124-142-139 160v142h264zm-326 0V537l-125-153-133 163v150h258zm-320 0V541l-128-157-130 159v154h258zm-320 0V546l-132-151-132 151v150h264zm-326 0V545l-129-129-135 135v147h264zm1617-182V346c-14-6-28-11-43-17l-71 71 115 115zm-66-194c-54-19-114-36-179-51l115 115 64-64zm-198-39v237l119-119-119-119zm-62 221V254l-109 125 109 125zm-26-254c-70-13-145-23-223-31l125 143 98-112zm-237-13v284l124-142-124-142zm-62 264V231l-110 135 110 135zm-14-290c-74-6-151-9-230-10l119 147 111-137zm-244 11v289l118-145-118-145zm-62 283V226l-113 139 113 139zm-9-304c-79 1-156 4-231 10l112 137 119-147zm-249 25v281l114-140-114-140zm-62 287V246l-116 133 116 133zm-6-295c-79 8-154 18-225 31l99 113 126-144zm-251 36l-7 1v258l117-134-110-126zm-69 262V287l-114 114 114 114zm-13-245c-66 15-127 32-182 51l65 65 116-116zm-204 59c-16 6-32 12-47 18v174l119-119-73-73zm-693 1493h-25c-9 0-16-7-16-16v-315c0-9 7-16 16-16h25c9 0 16 7 16 16v315c0 9-7 16-16 16zm3640 3239h861c3 0 5 2 5 5s-2 5-5 5h-861c-3 0-5-2-5-5s2-5 5-5zm559 322c-7-69-65-123-136-123s-129 54-136 123h44c5-46 44-83 92-83s87 36 92 83h44zm-54 0c-5-41-40-73-82-73s-77 32-82 73h164z"/></svg>