<?xml version="1.0" encoding="UTF-8"?>
<!DOCTYPE svg PUBLIC "-//W3C//DTD SVG 1.1//EN" "http://www.w3.org/Graphics/SVG/1.1/DTD/svg11.dtd">
<!-- Creator: CorelDRAW 2017 -->
<svg xmlns="http://www.w3.org/2000/svg" xml:space="preserve" width="178.756mm" height="58.8805mm" version="1.1" style="shape-rendering:geometricPrecision; text-rendering:geometricPrecision; image-rendering:optimizeQuality; fill-rule:evenodd; clip-rule:evenodd"
viewBox="0 0 17916 5901"
 xmlns:xlink="http://www.w3.org/1999/xlink">
 <defs>
  <style type="text/css">
   <![CDATA[
    .fil0 {fill:#2B2A29}
   ]]>
  </style>
 </defs>
 <g id="Layer_x0020_1">
  <metadata id="CorelCorpID_0Corel-Layer"/>
  <path class="fil0" d="M3447 5210c-11,-26 -25,-50 -42,-71 1,32 40,64 42,71zm10907 -43l689 0 -57 -106 -27 0 0 -44 41 0 0 -105 329 0 0 -199 -18 0 0 -35 18 0 0 -44 -5 0 0 -14 45 0 0 -70 -6 0 0 -15 5 0 0 -6 4 0 0 -5 4 0 0 -3 76 -575c-5,-2 -9,-6 -9,-12 0,-3 1,-5 2,-7l-1 -4c0,0 -6,-14 -8,-19 -2,-5 -5,-7 -9,-17 -4,-9 4,-11 9,-17 5,-6 7,-8 7,-11 -1,-2 -1,-11 -1,-11l6 -6 8 4c0,0 6,6 8,10 2,4 13,6 18,9 5,2 4,7 4,10 0,3 -8,0 -13,-3 -4,-3 -15,-12 -15,-12 0,0 1,9 4,18 3,9 -1,24 -5,28 -2,2 -1,9 1,15 6,1 10,6 10,12 0,6 -4,10 -9,12l76 575 0 3 2 0 0 5 4 0 0 6 7 0 0 15 -6 0 0 70 45 0 0 14 -5 0 0 44 18 0 0 35 -18 0 0 199 329 0 0 105 41 0 0 44 -27 0 -57 106 369 0 0 -1616 66 0 0 -113 153 0 0 113 567 0 0 -237 278 0 0 -63 -25 0 0 -51 127 0 0 51 -22 0 0 63 70 0 0 -290 462 0 0 2876 -231 0 -231 0 -427 0 -245 0 -418 0 -106 0 -16 0 -512 0 0 -7 -4 0 0 -4 -5 0 0 -5 -3 0 0 -4 -4 0 -9 -359 4 0 0 -4 3 0 0 -3 3 0 0 -3 4 0 0 -8 -86 0 0 8 4 0 0 3 3 0 0 3 3 0 0 4 4 0 -9 359 -4 0 0 4 -3 0 0 5 -5 0 0 4 -4 0 0 7 -332 0 0 -7 -4 0 0 -4 -5 0 0 -5 -3 0 0 -4 -4 0 -9 -359 4 0 0 -4 3 0 0 -3 3 0 0 -3 4 0 0 -8 -86 0 0 8 4 0 0 3 3 0 0 3 3 0 0 4 4 0 -9 359 -4 0 0 4 -3 0 0 5 -5 0 0 4 -4 0 0 7 -528 0 0 -7 -4 0 0 -4 -5 0 0 -5 -3 0 0 -4 -4 0 -9 -359 4 0 0 -4 3 0 0 -3 3 0 0 -3 4 0 0 -8 -86 0 0 8 4 0 0 3 3 0 0 3 3 0 0 4 4 0 -9 359 -4 0 0 4 -3 0 0 5 -5 0 0 4 -4 0 0 7 -197 0 -221 0 -361 0 0 -108 -167 0 -1472 0 0 108 -540 0 -443 0 0 -773 0 0c0,-2 0,-5 0,-7 0,-514 -402,-931 -897,-931 -214,0 -410,78 -564,207 91,-31 186,-48 281,-48 334,0 670,201 807,559 32,84 51,172 57,263l2 0 0 729 -53 0 0 -669 0 0c0,-2 0,-4 0,-6 0,-451 -364,-816 -812,-816 -151,0 -293,42 -414,114 63,-17 127,-26 192,-26 283,0 560,168 688,462 37,85 59,176 65,271l2 0 0 671 -47 0 -6 0 0 -611 0 0c0,-2 0,-4 0,-6 0,-401 -314,-727 -702,-727 -150,0 -289,49 -403,132 51,-12 104,-18 156,-18 140,0 281,42 399,127 107,77 195,190 236,329 11,36 18,74 21,112l3 0 0 662 -53 0 0 -602 0 0c0,-1 0,-3 0,-4 0,-311 -272,-563 -607,-563 -100,0 -195,23 -279,63 17,-1 34,-2 52,-2 119,0 239,35 340,108 92,66 167,162 202,281 8,28 14,58 18,87l3 0 0 633 -53 0 0 -573 0 0c0,-1 0,-2 0,-4 0,-261 -228,-472 -509,-472 -110,0 -211,32 -294,87 13,-1 26,-2 39,-2 196,0 408,118 473,341 7,23 12,46 15,70l4 0 0 553 -53 0 0 -493 0 0c0,-1 0,-2 0,-3 0,-225 -196,-407 -439,-407 -242,0 -439,182 -439,407 0,1 0,2 0,3l0 0 0 493 -322 0 -117 0 -207 0 -45 0 -24 0 -530 0 -24 0 -554 0 -25 0 -554 0 -29 0 -393 0 -161 0 -29 0 -554 0 -1720 0c27,0 53,-1 76,-4 -49,-4 -30,-78 -32,-127 -7,-145 -13,-316 -18,-436 26,-20 38,-54 57,-81 -8,49 -41,92 -46,131 21,-24 43,-66 64,-78 -12,46 -42,92 -50,131 24,-26 44,-55 67,-81 -16,47 -36,92 -57,135 32,-12 46,-60 67,-71 -12,43 -40,88 -46,124 20,-16 33,-38 50,-57 -12,44 -46,84 -53,120 18,-14 31,-33 50,-46 -7,44 -41,79 -50,110 63,-68 120,-147 131,-251 12,-112 -42,-169 -50,-262 7,14 17,31 25,50 8,18 11,43 25,46 -3,-25 -11,-64 -11,-81 19,35 33,76 53,110 5,-33 -10,-65 -7,-85 19,33 32,72 50,106 5,-31 -9,-62 -4,-81 19,35 31,77 50,113 3,-21 -5,-49 0,-60 12,32 19,68 39,92 2,-18 -5,-45 4,-57 14,34 25,69 39,103 -1,-217 -130,-323 -315,-343 12,-5 20,-13 32,-18 31,14 64,26 92,42 -7,-23 -42,-36 -42,-53 33,20 69,37 103,57 -10,-29 -51,-46 -57,-67 33,21 71,37 103,60 -8,-26 -42,-46 -46,-64 36,15 65,36 96,57 -5,-23 -38,-38 -39,-53 33,15 66,47 96,53 -9,-11 -28,-31 -28,-39 34,15 61,36 89,57 -53,-137 -296,-190 -425,-106 14,-9 32,-13 39,-28 -15,1 -40,12 -50,7 23,-12 48,-20 71,-32 -21,-4 -40,2 -60,7 19,-21 52,-28 78,-42 -19,-8 -52,13 -67,7 21,-15 68,-24 74,-42 -13,2 -38,8 -53,4 25,-13 58,-18 78,-35 -24,-3 -30,9 -50,0 25,-12 55,-19 78,-32 -13,-7 -30,3 -39,-4 20,-12 46,-17 67,-28 -143,-6 -215,90 -248,205 -31,-153 -154,-267 -340,-230 35,2 65,10 92,21 -12,6 -38,0 -46,11 35,2 64,12 89,25 -19,0 -38,0 -50,7 36,5 71,11 96,28 -23,0 -49,-2 -64,7 31,8 65,13 89,28 -26,0 -51,1 -71,7 40,4 73,17 103,32 -18,0 -50,-3 -71,4 25,7 52,12 71,25 -17,4 -38,-7 -46,0 54,20 123,42 124,103 -47,-78 -161,-133 -287,-120 -89,9 -163,66 -198,117 23,-20 56,-29 85,-42 -4,12 -28,24 -21,35 25,-16 65,-37 92,-39 -20,9 -32,27 -46,42 36,-13 75,-40 110,-42 -18,12 -46,31 -50,46 24,-16 58,-22 89,-32 -14,19 -37,29 -50,50 35,-12 78,-36 110,-39 -24,15 -45,33 -64,53 32,-11 73,-34 103,-35 -20,11 -52,28 -57,42 41,-18 118,-51 156,-11 -257,5 -409,152 -390,411 6,-47 21,-85 39,-120 1,14 -6,52 7,64 9,-43 23,-81 39,-117 1,22 -6,53 4,74 9,-44 25,-81 42,-117 2,26 -5,61 4,81 14,-42 27,-84 46,-120 2,43 -8,61 4,92 11,-46 28,-86 46,-124 -1,26 -10,74 0,89 8,-39 23,-71 42,-99 5,55 -24,87 -35,120 -48,137 13,289 92,351 -19,-31 -40,-78 -39,-117 9,21 22,37 39,50 -11,-37 -32,-83 -35,-117 13,22 27,44 46,60 -15,-41 -26,-88 -39,-131 22,20 34,51 57,71 -12,-41 -32,-93 -35,-131 16,27 38,66 57,78 -15,-37 -34,-89 -32,-131 15,26 34,67 53,78 -14,-33 -31,-82 -32,-117 12,30 29,54 46,78 -8,-35 -26,-80 -18,-120 5,25 16,45 28,64 -4,-34 -13,-83 -7,-106 27,79 23,221 14,343 -8,119 -37,277 -57,351 -7,25 -48,26 -57,42 39,-1 82,1 123,1l-1299 0 -272 0 -59 0 -1218 0 -50 0 0 -2c-5,0 -11,-1 -16,-2 7,-1 12,-3 16,-6l0 -400c-18,-21 -34,-44 -53,-64 14,41 31,79 49,117 -27,-10 -40,-52 -58,-61 10,37 34,76 40,108 -17,-14 -29,-33 -43,-49 10,38 40,73 46,104 -16,-12 -27,-28 -43,-40 6,38 36,69 43,95 -55,-59 -104,-128 -114,-218 -11,-97 37,-147 43,-227 -6,13 -14,27 -22,43 -7,15 -9,37 -21,40 3,-22 10,-56 9,-71 -17,30 -29,66 -46,95 -4,-29 9,-57 6,-74 -16,29 -28,62 -43,92 -4,-27 8,-54 3,-71 -17,30 -27,67 -43,98 -3,-18 4,-43 0,-52 -10,28 -17,59 -34,80 -2,-15 4,-39 -3,-49 -12,29 -22,60 -34,89 1,-188 113,-280 273,-298 -10,-4 -18,-11 -28,-15 -27,12 -56,22 -80,37 6,-20 36,-32 37,-46 -29,17 -60,32 -89,49 8,-25 44,-40 49,-58 -29,18 -62,33 -89,52 7,-23 36,-40 40,-55 -31,13 -56,32 -83,49 5,-20 33,-33 34,-46 -28,13 -57,41 -83,46 8,-10 25,-27 25,-34 -29,13 -53,31 -77,49 46,-119 257,-165 369,-92 -12,-7 -28,-11 -34,-25 13,1 35,10 43,6 -20,-10 -42,-17 -61,-28 18,-3 34,2 52,6 -16,-18 -45,-24 -68,-37 16,-7 45,11 58,6 -18,-13 -59,-21 -65,-37 11,2 33,7 46,3 -21,-12 -50,-16 -68,-31 21,-3 26,8 43,0 -22,-10 -47,-16 -68,-28 12,-6 26,2 34,-3 -17,-10 -40,-15 -58,-25 75,-3 127,26 163,71l0 -2034 171 0 0 -163 158 0 0 -886 9 0 0 -98 11 0 0 98 9 0 0 886 799 0 0 163 171 0 0 2547 101 0 50 -940 117 0 0 -105 -48 0c-5,0 -10,-4 -10,-10l0 0c0,-5 4,-10 10,-10l8 0 0 -54 -14 0c-7,0 -14,-6 -14,-14l0 0c0,-7 6,-13 13,-14l0 -125 -4 -8 -22 0c5,-4 9,-9 14,-15l-1 -1 -10 0c106,-104 182,-438 185,-547l-2 0 0 -3c8,-6 15,-14 19,-24l0 -147 -3 0c-7,0 -12,-6 -12,-12l0 0c0,-6 5,-12 11,-12 -3,-1 -5,-3 -5,-7l0 0c0,-4 3,-7 7,-7l5 0 0 -27c-3,0 -6,-3 -6,-6l0 0c0,-3 2,-5 5,-6 -1,0 -2,-2 -2,-3l0 0c0,-2 1,-3 3,-3l0 -85c0,-1 0,-1 0,-2 0,-1 0,-1 0,-2l0 -47c0,-4 4,-8 8,-8l0 0c4,0 8,4 8,8l0 143c1,1 2,3 2,4l0 0c0,2 -1,3 -2,4l0 28 5 0c4,0 7,3 7,7l0 0c0,3 -2,6 -5,7 6,1 11,6 11,12l0 0c0,7 -6,12 -12,12l-3 0 0 154c4,7 9,12 16,17l0 3 -2 0c0,1 0,2 0,3l2 0c2,69 34,229 83,364 45,-65 76,-205 78,-254l-1 0 0 -1c6,-5 11,-11 12,-19l0 -75c-3,0 -4,-1 -4,-2 0,-1 2,-1 4,-2l0 -20 -1 0c-2,0 -3,-1 -3,-3l0 0c0,-1 1,-3 2,-3 -1,0 -1,-1 -1,-2l0 0c0,-1 1,-2 2,-2l1 0 0 -40c0,0 0,0 0,0 -1,-1 -1,-2 -1,-3 0,-1 1,-3 2,-3 0,0 0,-1 0,-1 0,-1 1,-2 2,-2 1,0 2,1 2,2 0,0 0,1 0,1 1,0 2,2 2,3 0,1 -1,2 -1,3 0,0 0,0 0,0l0 40 1 0c1,0 2,1 2,2l0 0c0,1 -1,1 -1,2 1,0 3,1 3,3l0 0c0,2 -1,3 -3,3l-1 0 0 20c3,0 4,1 4,2 0,1 -2,1 -4,2l0 75c1,8 5,15 12,19l0 1 -1 0c2,54 40,221 92,272l-5 0 -6 12 0 62c4,0 6,3 6,7l0 0c0,4 -3,7 -7,7l-7 0 0 27 4 0c2,0 4,2 5,4l17 0c4,0 7,3 7,7l0 75 24 0 0 -2 -2 0c-6,0 -10,-5 -10,-10l0 0c0,-6 5,-10 10,-10l8 0 0 -58 -15 0c-8,0 -15,-7 -15,-15l0 0c0,-8 6,-14 14,-15l0 -134 -14 -25 -10 0c114,-112 196,-472 200,-589l-2 0 0 -3c13,-10 23,-25 25,-42l0 -162c-6,-1 -10,-2 -10,-3 0,-2 4,-3 10,-3l0 -43 -1 0c-3,0 -6,-3 -6,-6l0 0c0,-3 2,-6 5,-6 -1,0 -3,-2 -3,-3l0 0c0,-2 2,-3 3,-3l3 0 0 -87c0,0 0,0 0,-1 -2,-1 -3,-3 -3,-6 0,-3 2,-6 5,-6 -1,-1 -1,-1 -1,-2 0,-2 1,-3 3,-3 2,0 3,1 3,3 0,1 0,2 -1,2 3,1 5,3 5,6 0,2 -1,5 -3,6 0,0 0,0 0,1l0 87 3 0c2,0 3,2 3,3l0 0c0,2 -1,3 -3,3 3,0 5,3 5,6l0 0c0,3 -3,6 -6,6l-1 0 0 43c6,1 10,2 10,3 0,2 -4,3 -10,3l0 162c2,17 12,32 25,42l0 3 -2 0c4,117 86,477 200,589l-10 0 -14 25 0 134c8,0 14,7 14,15l0 0c0,8 -7,15 -15,15l-15 0 0 58 8 0c6,0 10,5 10,10l0 0c0,4 -3,8 -6,10l0 3 139 0 0 -726 0 -1 -3 0c-9,0 -16,-7 -16,-16l0 -3c-8,-1 -15,-8 -15,-16l0 -9c-8,-1 -14,-8 -14,-16l0 -187 -5 0 0 -252 -6 0c-4,0 -7,-3 -7,-7l0 0c0,-4 3,-7 7,-7l6 0 0 -40 -11 0c-6,0 -10,-5 -10,-10l0 0c0,-5 4,-10 9,-10l0 -92 -9 -17 -7 0c78,-76 134,-322 136,-402l-1 0 0 -2c9,-7 16,-17 17,-29l0 -110c-4,0 -6,-1 -6,-2 0,-1 3,-2 6,-2l0 -30 -1 0c-2,0 -4,-2 -4,-4l0 0c0,-2 2,-4 4,-4 -1,0 -2,-1 -2,-2l0 0c0,-1 1,-2 2,-2l2 0 0 -59c0,0 0,0 0,0 -1,-1 -2,-2 -2,-4 0,-2 1,-4 3,-4 0,0 -1,-1 -1,-2 0,-1 1,-2 2,-2 1,0 2,1 2,2 0,1 0,1 -1,2 2,1 3,2 3,4 0,2 -1,3 -2,4 0,0 0,0 0,0l0 59 2 0c1,0 2,1 2,2l0 0c0,1 -1,2 -2,2 2,0 4,2 4,4l0 0c0,2 -2,4 -4,4l-1 0 0 30c4,0 6,1 6,2 0,1 -3,2 -6,2l0 110c2,12 8,22 17,29l0 2 -2 0c3,80 59,326 136,402l-7 0 -9 17 0 92c5,0 9,5 9,10l0 0c0,6 -5,10 -10,10l-11 0 0 40 6 0 29 0 0 -246 -16 0c-3,0 -5,-3 -5,-7l0 0c0,-4 2,-7 5,-7l4 0 0 -40 -7 0c-4,0 -7,-5 -7,-10l0 0c0,-5 3,-10 7,-10l0 -92 -7 -17 -5 0c55,-76 94,-323 96,-403l-1 0 0 -2c6,-7 11,-17 12,-29l0 -111c-3,0 -5,-1 -5,-2 0,-1 2,-2 5,-2l0 -30 -1 0c-2,0 -3,-2 -3,-4l0 0c0,-2 1,-4 3,-4 -1,0 -1,-1 -1,-2l0 0c0,-1 1,-2 2,-2l1 0 0 -59c0,0 0,0 0,0 -1,-1 -2,-2 -2,-4 0,-2 1,-4 2,-4 0,0 0,-1 0,-2 0,-1 1,-2 2,-2 1,0 2,1 2,2 0,1 0,1 0,2 1,1 2,2 2,4 0,2 -1,3 -2,4 0,0 0,0 0,0l0 59 1 0c1,0 2,1 2,2l0 0c0,1 -1,2 -1,2 1,0 3,2 3,4l0 0c0,2 -1,4 -3,4l-1 0 0 30c3,0 5,1 5,2 0,1 -2,2 -5,2l0 111c1,12 6,22 12,29l0 2 -1 0c0,19 3,48 7,81l166 0c4,-33 7,-62 7,-81l-1 0 0 -2c6,-7 11,-17 12,-29l0 -111c-3,0 -5,-1 -5,-2 0,-1 2,-2 5,-2l0 -30 -1 0c-2,0 -3,-2 -3,-4l0 0c0,-2 1,-4 3,-4 -1,0 -1,-1 -1,-2l0 0c0,-1 1,-2 2,-2l1 0 0 -59c0,0 0,0 0,0 -1,-1 -2,-2 -2,-4 0,-2 1,-4 2,-4 0,0 0,-1 0,-2 0,-1 1,-2 2,-2 1,0 2,1 2,2 0,1 0,1 0,2 1,1 2,2 2,4 0,2 -1,3 -2,4 0,0 0,0 0,0l0 59 1 0c1,0 2,1 2,2l0 0c0,1 -1,2 -1,2 1,0 3,2 3,4l0 0c0,2 -1,4 -3,4l-1 0 0 30c3,0 5,1 5,2 0,1 -2,2 -5,2l0 111c1,12 6,22 12,29l0 2 -1 0c1,29 6,79 16,135 43,-102 72,-291 73,-359l-1 0 0 -2c6,-7 11,-17 12,-29l0 -111c-3,0 -5,-1 -5,-2 0,-1 2,-2 5,-2l0 -30 -1 0c-2,0 -3,-2 -3,-4l0 0c0,-2 1,-4 3,-4 -1,0 -1,-1 -1,-2l0 0c0,-1 1,-2 2,-2l1 0 0 -59c0,0 0,0 0,0 -1,-1 -2,-2 -2,-4 0,-2 1,-4 2,-4 0,0 0,-1 0,-2 0,-1 1,-2 2,-2 1,0 2,1 2,2 0,1 0,1 0,2 1,1 2,2 2,4 0,2 -1,3 -2,4 0,0 0,0 0,0l0 59 1 0c1,0 2,1 2,2l0 0c0,1 -1,2 -1,2 1,0 3,2 3,4l0 0c0,2 -1,4 -3,4l-1 0 0 30c3,0 5,1 5,2 0,1 -2,2 -5,2l0 111c1,12 6,22 12,29l0 2 -1 0c2,80 41,326 96,403l-5 0 -7 17 0 92c4,0 7,5 7,10l0 0c0,6 -3,10 -7,10l-7 0 0 40 4 0c3,0 5,3 5,7l0 0c0,2 -1,4 -2,5l0 0 0 192 33 0 0 -467 38 0 0 -425 -34 -86 -39 0c-7,0 -13,-6 -13,-13l0 0c0,-7 6,-13 13,-13l6 0 0 -75 -6 0c-7,0 -13,-6 -13,-13l0 0c0,-7 6,-13 13,-13l54 0 0 -78 32 0 0 -174 14 0 0 -27c11,-35 21,-87 30,-149 -12,-2 -21,-7 -21,-14l0 0c0,-7 11,-14 25,-14 3,-18 5,-37 7,-56 -7,-2 -12,-7 -12,-13l0 0c0,-6 6,-12 15,-14 3,-23 5,-47 8,-72 -9,-1 -17,-7 -17,-14l0 0c0,-8 9,-14 19,-14 2,-18 3,-36 5,-54l-4 0c-11,0 -21,-7 -21,-14l0 0c0,-8 9,-14 21,-14l7 0c1,-17 3,-33 4,-50l-4 0c-10,0 -18,-7 -18,-14l0 0c0,-8 8,-14 18,-14l6 0c1,-18 3,-36 4,-54l-2 0c-8,0 -14,-7 -14,-14l0 0c0,-8 7,-14 14,-14l4 0c1,-14 2,-27 3,-40l-7 0c-8,0 -14,-7 -14,-14l0 0c0,-8 7,-14 14,-14l9 0c1,-15 2,-30 3,-44l-7 0c-7,0 -12,-6 -12,-12l0 0c0,-7 6,-12 12,-12l8 0c6,-108 10,-202 11,-260l27 0c1,58 4,152 11,260l6 0c7,0 12,6 12,12l0 0c0,7 -6,12 -12,12l-4 0c1,14 2,29 3,44l7 0c8,0 14,6 14,14l0 0c0,8 -7,14 -14,14l-5 0c1,13 2,27 3,40l2 0c8,0 14,6 14,14l0 0c0,8 -6,14 -14,14 1,18 3,36 4,54l4 0c10,0 18,7 18,14l0 0c0,8 -8,14 -18,14l-1 0c1,17 3,33 4,50l4 0c11,0 21,6 21,14l0 0c0,8 -9,14 -21,14l-2 0c2,18 3,36 5,54 10,1 17,7 17,14l0 0c0,6 -6,12 -14,14 3,25 5,50 8,73 7,2 12,7 12,13l0 0c0,5 -4,9 -9,12 2,20 5,39 8,57 13,1 23,7 23,14l0 0c0,6 -8,12 -19,14 9,62 19,114 30,149l0 27 14 0 0 174 32 0 0 78 54 0c7,0 13,6 13,13l0 0c0,7 -6,13 -13,13l-7 0 0 75 7 0c7,0 13,6 13,13l0 0c0,7 -6,13 -13,13l-40 0 -34 86 0 425 38 0 0 469 57 0c0,-11 9,-20 20,-20l20 0 0 -30 -16 0c-3,0 -5,-3 -5,-7l0 0c0,-4 2,-7 5,-7l4 0 0 -40 -7 0c-4,0 -7,-5 -7,-10l0 0c0,-5 3,-10 7,-10l0 -92 -7 -17 -5 0c55,-76 94,-323 96,-403l-1 0 0 -2c6,-7 11,-17 12,-29l0 -111c-3,0 -5,-1 -5,-2 0,-1 2,-2 5,-2l0 -30 -1 0c-2,0 -3,-2 -3,-4l0 0c0,-2 1,-4 3,-4 -1,0 -1,-1 -1,-2l0 0c0,-1 1,-2 2,-2l1 0 0 -59c0,0 0,0 0,0 -1,-1 -2,-2 -2,-4 0,-2 1,-4 2,-4 0,0 0,-1 0,-2 0,-1 1,-2 2,-2 1,0 2,1 2,2 0,1 0,1 0,2 1,1 2,2 2,4 0,2 -1,3 -2,4 0,0 0,0 0,0l0 59 1 0c1,0 2,1 2,2l0 0c0,1 -1,2 -1,2 1,0 3,2 3,4l0 0c0,2 -1,4 -3,4l-1 0 0 30c3,0 5,1 5,2 0,1 -2,2 -5,2l0 111c1,12 6,22 12,29l0 2 -1 0c2,80 41,326 96,403l-5 0 -7 17 0 92c4,0 7,5 7,10l0 0c0,6 -3,10 -7,10l-7 0 0 40 4 0c3,0 5,3 5,7l0 0c0,4 -2,7 -5,7l-16 0 0 30 20 0c11,0 20,9 20,20l0 291c25,-68 40,-148 41,-183l-1 0 0 -1c6,-5 11,-12 12,-20l0 -78c-3,0 -5,-1 -5,-2 0,-1 2,-1 5,-2l0 -21 -1 0c-2,0 -3,-1 -3,-3l0 0c0,-1 1,-3 3,-3 -1,0 -1,-1 -1,-2l0 0c0,-1 1,-2 2,-2l1 0 0 -42c0,0 0,0 0,0 -1,-1 -2,-2 -2,-3 0,-1 1,-3 2,-3 0,0 0,-1 0,-1 0,-1 1,-2 2,-2 1,0 2,1 2,2 0,0 0,1 0,1 1,0 2,2 2,3 0,1 -1,2 -2,3 0,0 0,0 0,0l0 42 1 0c1,0 2,1 2,2l0 0c0,1 -1,1 -1,2 1,0 3,1 3,3l0 0c0,2 -1,3 -3,3l-1 0 0 21c3,0 5,1 5,2 0,1 -2,1 -5,2l0 78c1,8 6,16 12,20l0 1 -1 0c2,57 41,230 96,284l-5 0 -7 12 0 65c4,0 7,3 7,7l0 0c0,4 -3,7 -7,7l-7 0 0 28 4 0c3,0 5,2 5,5l0 0c0,3 -2,5 -5,5l-5 0c1,2 1,4 1,6l0 203c0,8 -6,15 -14,16l0 9c0,9 -7,16 -15,16l0 3c0,9 -7,16 -16,16l-3 0 0 1c0,9 -7,16 -16,16l0 0 0 164 64 0 0 -200 115 0c2,-5 3,-10 4,-15l0 -162c-6,-1 -10,-2 -10,-3 0,-2 4,-3 10,-3l0 -43 -1 0c-3,0 -6,-3 -6,-6l0 0c0,-3 2,-6 5,-6 -1,0 -3,-2 -3,-3l0 0c0,-2 2,-3 3,-3l3 0 0 -87c0,0 0,0 0,-1 -2,-1 -3,-3 -3,-6 0,-3 2,-6 5,-6 -1,-1 -1,-1 -1,-2 0,-2 1,-3 3,-3 2,0 3,1 3,3 0,1 0,2 -1,2 3,1 5,4 5,6 0,2 -1,5 -3,6 0,0 0,0 0,1l0 87 3 0c2,0 3,2 3,3l0 0c0,2 -1,3 -3,3 3,0 5,3 5,6l0 0c0,3 -3,6 -6,6l-1 0 0 43c6,1 10,2 10,3 0,2 -4,3 -10,3l0 162c1,5 2,10 4,15l272 0 0 154c1,1 1,2 1,4 0,1 0,3 -1,4l0 39 44 0c-12,-6 -24,0 -39,-2l0 -29c14,-2 29,-1 40,7l0 -229 271 -481 5 -381 2 0 6 380 271 482 0 253 29 0 0 -967 271 -480 5 -381 2 0 6 380 271 482 0 2031 29 0 0 -2746 271 -480 5 -381 2 0 6 380 271 482 0 2580 25 0 0 -3581 271 -480 5 -381 2 0 4 287 569 0 4 -287 2 0 6 380 271 482 0 1663c50,-34 182,-65 368,-87l0 -1947c4,1 9,2 13,3 150,88 563,150 1049,150 482,0 892,-62 1045,-148 2,0 4,-1 6,-1l0 1386 519 0c61,-172 223,-301 420,-324l0 139 131 0 0 -139c54,6 105,21 152,41l0 -1109c130,-82 256,-152 379,-211l0 -276c14,-6 28,-11 42,-16 7,-3 14,-5 20,-7l0 66c79,-29 167,-55 264,-76l0 -64c21,-4 41,-9 62,-13l0 64c83,-16 171,-29 264,-38l0 -63c21,-2 41,-4 62,-6l0 63c83,-7 169,-11 258,-12l0 -62c10,0 21,0 31,0 10,0 21,0 31,0l0 62c88,1 174,5 258,12l0 -63c21,2 41,3 62,6l0 63c92,9 181,22 264,38l0 -64c21,4 41,8 62,13l0 64c96,21 185,47 264,76l0 -66c7,2 14,5 20,7 13,5 27,10 42,16l0 290c123,57 249,122 379,198l0 4515zm-1084 194c-11,-24 -18,-66 -18,-114 0,-74 16,-134 37,-134 13,0 25,27 32,66 -6,-12 -12,-20 -19,-20 -20,0 -37,60 -37,134 0,25 2,48 5,68zm-756 0c-11,-24 -18,-66 -18,-114 0,-74 16,-134 37,-134 13,0 25,27 32,66 -6,-12 -12,-20 -19,-20 -20,0 -37,60 -37,134 0,25 2,48 5,68zm41 -166l21 0 0 233 -21 0 0 -233zm-32 -173c13,0 25,34 32,87 -7,-27 -15,-43 -25,-43 -23,0 -41,94 -41,209 0,21 1,41 2,60 -4,-32 -7,-72 -7,-114 0,-110 17,-199 39,-199zm115 327c14,-30 24,-84 24,-146 0,-95 -22,-171 -49,-171 -18,0 -34,34 -42,85 7,-16 16,-25 25,-25 27,0 49,77 49,171 0,32 -2,61 -7,87zm-22 8c11,-24 18,-66 18,-114 0,-74 -16,-134 -37,-134 -13,0 -25,27 -32,66 6,-12 12,-20 19,-20 20,0 37,60 37,134 0,25 -2,48 -5,68zm694 -161l21 0 0 233 -21 0 0 -233zm-32 -173c13,0 25,34 32,87 -7,-27 -15,-43 -25,-43 -23,0 -41,94 -41,209 0,21 1,41 2,60 -4,-32 -7,-72 -7,-114 0,-110 17,-199 39,-199zm115 327c14,-30 23,-84 23,-146 0,-95 -22,-171 -49,-171 -18,0 -34,34 -42,85 7,-16 16,-25 25,-25 27,0 49,77 49,171 0,32 -2,61 -7,87zm-22 8c10,-24 17,-66 17,-114 0,-74 -16,-134 -37,-134 -13,0 -25,27 -32,66 6,-12 12,-20 19,-20 20,0 37,60 37,134 0,25 -2,48 -5,68zm-1242 252c-15,-33 -24,-91 -24,-158 0,-102 23,-185 50,-185 19,0 35,37 44,92 -8,-17 -17,-27 -26,-27 -28,0 -50,83 -50,185 0,34 3,66 7,94zm57 -230l29 0 0 322 -29 0 0 -322zm-44 -240c18,0 35,47 44,120 -9,-37 -21,-59 -34,-59 -31,0 -56,130 -56,289 0,29 1,57 2,83 -6,-45 -10,-99 -10,-158 0,-152 24,-275 54,-275zm160 452c19,-42 33,-117 33,-202 0,-131 -30,-237 -68,-237 -25,0 -47,47 -58,117 10,-22 22,-35 35,-35 37,0 68,106 68,237 0,44 -3,85 -9,120zm-31 11c15,-33 24,-91 24,-158 0,-102 -23,-185 -50,-185 -19,0 -35,37 -44,92 8,-17 17,-27 26,-27 28,0 50,83 50,185 0,34 -3,66 -7,94zm546 -493c-28,-62 -46,-175 -46,-304 0,-197 43,-356 97,-356 33,0 62,60 79,152l11 0c17,-100 47,-166 82,-166 54,0 97,159 97,356 0,129 -19,241 -47,304 8,-53 13,-114 13,-180 0,-197 -43,-356 -97,-356 -17,0 -32,15 -46,42l9 0 0 658 -42 0 0 -658 10 0c-12,-18 -24,-28 -38,-28 -54,0 -97,159 -97,356 0,66 5,127 13,180zm26 -902c35,0 66,91 85,230 -18,-71 -41,-113 -66,-113 -60,0 -108,249 -108,556 0,56 2,109 5,160 -12,-86 -19,-191 -19,-304 0,-292 46,-529 103,-529zm306 867c37,-80 62,-224 62,-388 0,-251 -58,-455 -130,-455 -48,0 -90,90 -112,225 20,-42 43,-66 68,-66 72,0 130,204 130,455 0,84 -6,162 -18,230zm-446 211l491 0 0 51 -491 0 0 -51zm-5372 -677l0 -3581 -24 0 0 3581 24 0zm1422 -352l0 -23c163,13 325,22 464,29l0 13c-164,-3 -319,-9 -464,-18zm-84 -30c-10,6 -20,13 -28,22 -372,-30 -650,-81 -756,-142l0 -35c120,76 446,125 784,155zm-332 127l-173 0c-130,-24 -226,-52 -279,-83l0 -35c79,50 249,89 453,118zm-539 601l-46 0 0 -122 46 0 0 122zm-220 -213l0 -134 -9 0 0 -29 77 0 0 163 -68 0zm-84 -134l-77 0 0 -29 77 0 0 29zm-275 0l-77 0 0 -29 77 0 0 29zm-152 0l-77 0 0 -29 77 0 0 29zm-152 0l-77 0 0 -29 77 0 0 29zm-275 0l-77 0 0 -42 77 0 0 42zm-152 0l-77 0 0 -42 77 0 0 42zm-152 0l-77 0 0 -42 77 0 0 42zm-306 166l0 163 -51 0 0 -163 51 0zm-126 -880l-71 0 0 -106 45 0 0 -27 26 0 0 133zm7702 1752l1 1 2 4 1 3 2 4 1 3 1 3 2 5 1 3 2 5 1 2 2 5 1 3 2 6 0 1c1,2 2,4 2,7l1 1 2 7 0 1 2 7 1 2 2 7 161 0 0 32 -198 0 -1503 0 0 -32 161 0c57,-172 129,-261 487,-283l0 -80 404 0 0 80c300,18 399,84 457,205zm-6 -50l0 1 0 0 0 1 0 0 0 0 0 0 0 0 0 0 0 1 0 0 0 1 0 1 0 0 0 2 0 0 0 0 0 1 0 0 0 1 0 0 0 0 0 0 0 0 0 1 0 0 0 1 0 0 0 1 0 0 0 2 0 0c0,-1 -1,-2 -1,-3l0 0 0 -1 0 -1 0 -1 0 0 0 0c-13,-33 -22,-89 -22,-152 0,-65 9,-122 23,-155l0 -1 0 0 1 -2c1,-2 2,-4 3,-6l0 -1 0 -1 0 -1c1,-1 1,-2 2,-3l1 -1 1 -1 1 -1 1 -1 1 -1 1 -1 1 -1 0 -1 1 -1 0 0 1 -1 0 0 1 -1 0 0 1 -1 0 0 1 -1 0 0 1 -1c0,0 1,0 1,-1l0 0c0,0 1,0 1,-1 0,0 1,0 1,-1l0 0c0,0 1,0 1,0l0 0c0,0 1,0 1,0l0 0c1,0 2,0 3,0 19,0 35,37 44,92 -8,-17 -17,-27 -26,-27 0,0 -1,0 -1,0l0 0 -1 0 0 0c0,0 -1,0 -1,0l0 0 -1 0 0 0 -1 0 0 0 -1 1 0 0 -1 1 0 0 -1 1 0 0 -1 1 0 0 -1 1 0 0 -1 1 0 0 -1 1 0 0 -1 1 0 1 -1 1 0 0 -1 1 0 1 -1 1 0 0 -1 1 0 1 -1 1 0 1 -1 1 0 1 -1 2 0 1 0 1 0 1 -1 1 0 1 0 1 -1 2 0 1 0 1 -1 1 0 1 -1 2 0 1 -1 2 0 1 0 1c-1,2 -1,4 -2,6l0 1 0 1 0 1 -1 3 0 1c0,1 -1,3 -1,4l0 2 -1 3 0 1 0 2 0 2 -1 4 0 1 0 1 0 1c-2,10 -4,21 -5,33l0 1 0 2c-3,23 -4,48 -4,75 0,27 2,53 4,76zm0 -440l0 0 0 0c2,-3 3,-5 5,-7l0 0c0,0 1,-1 1,-1l0 0c1,-1 2,-1 3,-2l0 0c0,0 1,-1 1,-1l0 0c0,0 1,0 1,-1l0 0c1,0 2,-1 3,-1l0 0c0,0 1,0 1,0 18,0 35,47 44,120 -9,-37 -21,-59 -34,-59 0,0 -1,0 -1,0l0 0c0,0 -1,0 -1,0l0 0c0,0 -1,0 -1,0l0 0c0,0 -1,0 -1,1l0 0c0,0 -1,0 -1,1l0 0c0,0 -1,1 -1,1l0 0c0,0 -1,1 -1,1l0 0c0,0 -1,1 -1,1l0 0 -1 1 0 0 -1 1 0 1 -1 1 -1 1 -1 1 -1 1 -1 1 -1 1 -1 1 -1 1 0 1 -1 2 0 0c-1,3 -2,5 -4,8l0 0 -1 3c-18,48 -30,145 -30,257 0,29 1,57 2,83 -6,-45 -10,-99 -10,-158 0,-123 16,-228 38,-263zm750 214l0 11 1887 0 0 -11 -639 0c-7,-78 -72,-139 -152,-139 -80,0 -145,61 -152,139l-944 0zm0 42l0 11 1887 0 0 -11 -1887 0zm-14053 -109c10,-23 22,-44 37,-61 -1,28 -34,55 -37,61zm86 176c-10,-29 -29,-61 -37,-93 12,7 25,26 37,43l0 50zm0 -77c-9,-20 -19,-40 -22,-63 8,12 15,25 22,37l0 26zm88 359c-9,-52 -18,-111 -24,-164l79 0 0 164 -56 0zm-28 -223c-3,-55 -5,-113 -3,-164l28 0c-3,11 -6,21 -8,31 7,-10 14,-20 21,-31l13 0c-6,23 -14,46 -22,64 16,-9 32,-42 44,-64l2 0c1,36 -15,79 -28,111 12,-7 25,-27 36,-46l0 35c-6,19 -13,39 -18,57 7,-6 12,-13 18,-21l0 28 -84 0zm2 -223c3,-19 7,-37 12,-52 3,12 2,32 -1,52l-11 0zm26 0c2,-5 3,-10 4,-15 1,5 2,10 2,15l-6 0zm113 316c6,-11 12,-22 18,-34l89 0 0 164 -106 0 0 -130zm37 -93c11,-48 10,-101 -8,-152 -1,-4 -3,-8 -5,-12l45 0c2,8 5,16 7,25 3,-9 4,-17 5,-25l22 0c2,4 3,9 5,13l0 151 -69 0zm-37 -223l0 -2 0 -30c7,10 13,20 18,31l-18 0zm37 0c-1,-9 -2,-17 -2,-24 4,8 8,16 11,24l-9 0zm126 80c13,29 24,61 31,96 12,-10 5,-43 6,-55 16,30 28,63 34,103l-71 0 0 -143zm71 143c4,-63 -3,-118 -20,-164l55 0 0 164 -35 0zm-50 -223c-7,-10 -14,-19 -21,-27l0 -137 22 0c4,2 8,4 13,5 -2,-2 -3,-3 -5,-5l41 0 3 2c0,-1 1,-1 1,-2l31 0 0 164 -85 0zm-79 -76c-31,-19 -66,-34 -106,-43l0 -16c12,4 23,9 32,13 -3,-9 -18,-19 -32,-28l0 -6c23,6 50,20 72,28 -12,-13 -26,-25 -40,-36l22 0c17,7 36,15 52,21l0 67zm-164 -53c-15,-2 -30,-2 -45,-3 12,-12 28,-17 45,-17l0 19zm164 -20c-5,-6 -11,-11 -17,-16l17 0 0 16zm114 -75c-17,-11 -36,-19 -57,-26l0 -139 106 0 0 164 -50 0zm-114 -36c-38,-2 -74,3 -106,13l0 -18 2 0 -2 -1 0 -25c9,-2 19,-4 29,-5 -9,-3 -19,-4 -29,-5l0 -14c14,-4 30,-7 45,-11 -10,-6 -28,-6 -45,-6l0 -6c20,-10 46,-14 72,-18 -10,-6 -26,-7 -43,-6 21,-11 46,-19 77,-22 -1,-2 -4,-3 -6,-4l6 0 0 129zm-226 94c-3,4 -5,7 -7,11 0,-4 0,-8 1,-11l6 0zm52 -59c4,-2 7,-3 11,-5l0 5 -11 0zm11 -19c-1,0 -2,0 -2,0 1,-1 2,-1 2,-1l0 2zm0 -25l-2 0 2 -1 0 1zm0 -102c-44,35 -74,87 -89,145l-6 0c-3,-11 -7,-21 -11,-31l0 -133 106 0 0 19zm-106 -1944l106 0 0 290 -106 0 0 -290zm1148 0l106 0 0 290 -106 0 0 -290zm-164 0l106 0 0 290 -106 0 0 -290zm-164 0l106 0 0 290 -106 0 0 -290zm-164 0l106 0 0 290 -106 0 0 -290zm-164 0l106 0 0 290 -106 0 0 -290zm-164 0l106 0 0 290 -106 0 0 -290zm-164 0l106 0 0 290 -106 0 0 -290zm-164 362l106 0 0 164 -106 0 0 -164zm1148 0l106 0 0 164 -106 0 0 -164zm-164 0l106 0 0 164 -106 0 0 -164zm-164 0l106 0 0 164 -106 0 0 -164zm-164 0l106 0 0 164 -106 0 0 -164zm-164 0l106 0 0 164 -106 0 0 -164zm-164 0l106 0 0 164 -106 0 0 -164zm-164 0l106 0 0 164 -106 0 0 -164zm-164 223l106 0 0 164 -106 0 0 -164zm1148 0l106 0 0 164 -106 0 0 -164zm-164 0l106 0 0 164 -106 0 0 -164zm-164 0l106 0 0 164 -106 0 0 -164zm-164 0l106 0 0 164 -106 0 0 -164zm-164 0l106 0 0 164 -106 0 0 -164zm-164 0l106 0 0 164 -106 0 0 -164zm-164 0l106 0 0 164 -106 0 0 -164zm-164 223l106 0 0 164 -106 0 0 -164zm1148 0l106 0 0 164 -106 0 0 -164zm-164 0l106 0 0 164 -106 0 0 -164zm-164 0l106 0 0 164 -106 0 0 -164zm-164 0l106 0 0 164 -106 0 0 -164zm-164 0l106 0 0 164 -106 0 0 -164zm-164 0l106 0 0 164 -106 0 0 -164zm-164 0l106 0 0 164 -106 0 0 -164zm-164 223l106 0 0 164 -106 0 0 -164zm1148 0l106 0 0 164 -106 0 0 -164zm-164 0l106 0 0 164 -106 0 0 -164zm-164 0l106 0 0 164 -106 0 0 -164zm-164 0l106 0 0 164 -106 0 0 -164zm-164 0l106 0 0 164 -106 0 0 -164zm-164 0l106 0 0 164 -106 0 0 -164zm-164 0l106 0 0 164 -106 0 0 -164zm-164 223l106 0 0 164 -106 0 0 -164zm1148 0l106 0 0 164 -106 0 0 -164zm-164 0l106 0 0 164 -106 0 0 -164zm-164 0l106 0 0 164 -106 0 0 -164zm-164 0l106 0 0 164 -106 0 0 -164zm-164 0l106 0 0 164 -106 0 0 -164zm-164 0l106 0 0 164 -106 0 0 -164zm-164 0l106 0 0 164 -106 0 0 -164zm-164 223l106 0 0 164 -106 0 0 -164zm1148 0l106 0 0 164 -106 0 0 -164zm-164 0l106 0 0 164 -106 0 0 -164zm-164 0l106 0 0 164 -106 0 0 -164zm-164 0l106 0 0 164 -106 0 0 -164zm-164 0l106 0 0 164 -106 0 0 -164zm-164 0l106 0 0 164 -106 0 0 -164zm-164 0l106 0 0 164 -106 0 0 -164zm-164 223l106 0 0 164 -106 0 0 -164zm1148 0l106 0 0 164 -106 0 0 -164zm-164 0l106 0 0 164 -106 0 0 -164zm-164 0l106 0 0 164 -106 0 0 -164zm-164 0l106 0 0 164 -106 0 0 -164zm-164 0l106 0 0 164 -106 0 0 -164zm-164 0l106 0 0 164 -106 0 0 -164zm-164 0l106 0 0 164 -106 0 0 -164zm984 223l106 0 0 164 -106 0 0 -164zm-164 0l106 0 0 164 -106 0 0 -164zm-164 0l106 0 0 164 -106 0 0 -164zm-164 0l106 0 0 164 -106 0 0 -164zm-164 0l106 0 0 164 -106 0 0 -164zm656 223l106 0 0 164 -106 0 0 -164zm-164 0l106 0 0 164 -106 0 0 -164zm-164 0l106 0 0 164 -106 0 0 -164zm-164 0l106 0 0 164 -106 0 0 -164zm-164 0l106 0 0 164 -106 0 0 -164zm656 223l106 0 0 136 -22 0 0 29 -84 0 0 -164zm-164 0l106 0 0 164 -106 0 0 -164zm-164 0l106 0 0 164 -106 0 0 -164zm-164 0l106 0 0 164 -106 0 0 -164zm-164 0l106 0 0 164 -106 0 0 -164zm656 223l84 0 0 164 -84 0 0 -164zm-164 0l106 0 0 164 -106 0 0 -164zm-164 0l106 0 0 164 -106 0 0 -164zm-164 0l106 0 0 164 -106 0 0 -164zm-164 0l106 0 0 164 -106 0 0 -164zm-164 0l106 0 0 164 -106 0 0 -164zm3942 -2413c35,-6 74,9 75,77 -26,-63 -47,-40 -75,-44l0 -33zm-2368 433c16,-3 34,4 35,36 -12,-29 -22,-18 -35,-20l0 -15zm345 -577c35,-6 74,9 75,77 -26,-63 -47,-40 -75,-44l0 -33zm-542 299c33,-5 68,8 69,72 -24,-59 -43,-37 -69,-41l0 -31zm5760 602c155,90 683,159 1332,169l0 -13c-452,-20 -1144,-72 -1332,-191l0 35zm0 -164c155,90 683,159 1332,169l0 -13c-452,-20 -1144,-72 -1332,-191l0 35zm0 -164c155,90 683,159 1332,169l0 -13c-452,-20 -1144,-72 -1332,-191l0 35zm0 -164c155,90 683,159 1332,169l0 -13c-452,-20 -1144,-72 -1332,-191l0 35zm0 -164c155,90 683,159 1332,169l0 -13c-452,-20 -1144,-72 -1332,-191l0 35zm0 -164c155,90 683,159 1332,169l0 -13c-452,-20 -1144,-72 -1332,-191l0 35zm0 -164c155,90 683,159 1332,169l0 -13c-452,-20 -1144,-72 -1332,-191l0 35zm0 -164c155,90 683,159 1332,169l0 -13c-452,-20 -1144,-72 -1332,-191l0 35zm-2316 183l-255 0 240 429 15 0 0 -429zm583 -715l-255 0 240 429 15 0 0 -429zm582 -719l-255 0 240 429 15 0 0 -429zm-1640 1923l77 0 0 163 -77 0 0 -163zm304 0l77 0 0 163 -77 0 0 -163zm-152 0l77 0 0 163 -77 0 0 -163zm735 1058l77 0 0 163 -77 0 0 -163zm0 -253l77 0 0 163 -77 0 0 -163zm0 -253l77 0 0 163 -77 0 0 -163zm0 -253l77 0 0 163 -77 0 0 -163zm-304 -253l77 0 0 163 -77 0 0 -163zm304 0l77 0 0 163 -77 0 0 -163zm-152 0l77 0 0 163 -77 0 0 -163zm-152 -253l77 0 0 163 -77 0 0 -163zm304 0l77 0 0 163 -77 0 0 -163zm-152 0l77 0 0 163 -77 0 0 -163zm-152 -253l77 0 0 163 -77 0 0 -163zm304 0l77 0 0 163 -77 0 0 -163zm-152 0l77 0 0 163 -77 0 0 -163zm-152 -253l77 0 0 163 -77 0 0 -163zm304 0l77 0 0 163 -77 0 0 -163zm-152 0l77 0 0 163 -77 0 0 -163zm431 1565l77 0 0 163 -77 0 0 -163zm304 0l77 0 0 163 -77 0 0 -163zm-152 0l77 0 0 163 -77 0 0 -163zm-152 -253l77 0 0 163 -77 0 0 -163zm304 0l77 0 0 163 -77 0 0 -163zm-152 0l77 0 0 163 -77 0 0 -163zm-152 -253l77 0 0 163 -77 0 0 -163zm304 0l77 0 0 163 -77 0 0 -163zm-152 0l77 0 0 163 -77 0 0 -163zm-152 -253l77 0 0 163 -77 0 0 -163zm304 0l77 0 0 163 -77 0 0 -163zm-152 0l77 0 0 163 -77 0 0 -163zm-152 -253l77 0 0 163 -77 0 0 -163zm304 0l77 0 0 163 -77 0 0 -163zm-152 0l77 0 0 163 -77 0 0 -163zm-152 -253l77 0 0 163 -77 0 0 -163zm304 0l77 0 0 163 -77 0 0 -163zm-152 0l77 0 0 163 -77 0 0 -163zm-152 -253l77 0 0 163 -77 0 0 -163zm304 0l77 0 0 163 -77 0 0 -163zm-152 0l77 0 0 163 -77 0 0 -163zm-152 -253l77 0 0 163 -77 0 0 -163zm304 0l77 0 0 163 -77 0 0 -163zm-152 0l77 0 0 163 -77 0 0 -163zm-152 -253l77 0 0 163 -77 0 0 -163zm304 0l77 0 0 163 -77 0 0 -163zm-152 0l77 0 0 163 -77 0 0 -163zm-152 -253l77 0 0 163 -77 0 0 -163zm304 0l77 0 0 163 -77 0 0 -163zm-152 0l77 0 0 163 -77 0 0 -163zm1310 2546l77 0 0 163 -77 0 0 -163zm-304 -253l77 0 0 163 -77 0 0 -163zm304 0l77 0 0 163 -77 0 0 -163zm-152 0l77 0 0 163 -77 0 0 -163zm-152 -253l77 0 0 163 -77 0 0 -163zm304 0l77 0 0 163 -77 0 0 -163zm-152 0l77 0 0 163 -77 0 0 -163zm-152 -253l77 0 0 163 -77 0 0 -163zm304 0l77 0 0 163 -77 0 0 -163zm-152 0l77 0 0 163 -77 0 0 -163zm-152 -253l77 0 0 163 -77 0 0 -163zm304 0l77 0 0 163 -77 0 0 -163zm-152 0l77 0 0 163 -77 0 0 -163zm-152 -253l77 0 0 163 -77 0 0 -163zm304 0l77 0 0 163 -77 0 0 -163zm-152 0l77 0 0 163 -77 0 0 -163zm-152 -253l77 0 0 163 -77 0 0 -163zm304 0l77 0 0 163 -77 0 0 -163zm-152 0l77 0 0 163 -77 0 0 -163zm-152 -253l77 0 0 163 -77 0 0 -163zm304 0l77 0 0 163 -77 0 0 -163zm-152 0l77 0 0 163 -77 0 0 -163zm-152 -253l77 0 0 163 -77 0 0 -163zm304 0l77 0 0 163 -77 0 0 -163zm-152 0l77 0 0 163 -77 0 0 -163zm-152 -253l77 0 0 163 -77 0 0 -163zm304 0l77 0 0 163 -77 0 0 -163zm-152 0l77 0 0 163 -77 0 0 -163zm-152 -253l77 0 0 163 -77 0 0 -163zm304 0l77 0 0 163 -77 0 0 -163zm-152 0l77 0 0 163 -77 0 0 -163zm-152 -253l77 0 0 163 -77 0 0 -163zm304 0l77 0 0 163 -77 0 0 -163zm-152 0l77 0 0 163 -77 0 0 -163zm-152 -253l77 0 0 163 -77 0 0 -163zm304 0l77 0 0 163 -77 0 0 -163zm-152 0l77 0 0 163 -77 0 0 -163zm-152 -253l77 0 0 163 -77 0 0 -163zm304 0l77 0 0 163 -77 0 0 -163zm-152 0l77 0 0 163 -77 0 0 -163zm-152 -253l77 0 0 163 -77 0 0 -163zm304 0l77 0 0 163 -77 0 0 -163zm-152 0l77 0 0 163 -77 0 0 -163zm-731 3293l77 0 0 163 -77 0 0 -163zm304 0l77 0 0 163 -77 0 0 -163zm-152 0l77 0 0 163 -77 0 0 -163zm-152 -253l77 0 0 163 -77 0 0 -163zm304 0l77 0 0 163 -77 0 0 -163zm-152 0l77 0 0 163 -77 0 0 -163zm-152 -253l77 0 0 163 -77 0 0 -163zm304 0l77 0 0 163 -77 0 0 -163zm-152 0l77 0 0 163 -77 0 0 -163zm-152 -253l77 0 0 163 -77 0 0 -163zm304 0l77 0 0 163 -77 0 0 -163zm-152 0l77 0 0 163 -77 0 0 -163zm-152 -253l77 0 0 163 -77 0 0 -163zm304 0l77 0 0 163 -77 0 0 -163zm-152 0l77 0 0 163 -77 0 0 -163zm-152 -253l77 0 0 163 -77 0 0 -163zm304 0l77 0 0 163 -77 0 0 -163zm-152 0l77 0 0 163 -77 0 0 -163zm-152 -253l77 0 0 163 -77 0 0 -163zm304 0l77 0 0 163 -77 0 0 -163zm-152 0l77 0 0 163 -77 0 0 -163zm-152 -253l77 0 0 163 -77 0 0 -163zm304 0l77 0 0 163 -77 0 0 -163zm-152 0l77 0 0 163 -77 0 0 -163zm-152 -253l77 0 0 163 -77 0 0 -163zm304 0l77 0 0 163 -77 0 0 -163zm-152 0l77 0 0 163 -77 0 0 -163zm-152 -253l77 0 0 163 -77 0 0 -163zm304 0l77 0 0 163 -77 0 0 -163zm-152 0l77 0 0 163 -77 0 0 -163zm-152 -253l77 0 0 163 -77 0 0 -163zm304 0l77 0 0 163 -77 0 0 -163zm-152 0l77 0 0 163 -77 0 0 -163zm-152 -253l77 0 0 163 -77 0 0 -163zm304 0l77 0 0 163 -77 0 0 -163zm-152 0l77 0 0 163 -77 0 0 -163zm-152 -253l77 0 0 163 -77 0 0 -163zm304 0l77 0 0 163 -77 0 0 -163zm-152 0l77 0 0 163 -77 0 0 -163zm-152 -253l77 0 0 163 -77 0 0 -163zm304 0l77 0 0 163 -77 0 0 -163zm-152 0l77 0 0 163 -77 0 0 -163zm2268 -892l0 -105 68 0 0 105 78 0 0 -61 149 0 0 93c12,0 24,0 37,0 225,0 435,19 617,52l0 17 4 0 0 225c89,28 141,60 141,95 0,104 -464,189 -1036,189 -572,0 -1036,-85 -1036,-189 0,-29 36,-57 101,-82 6,-9 12,-17 20,-25l0 0 0 0c48,-53 130,-101 239,-143l0 0 0 0c155,-58 362,-102 600,-124l0 -48 19 0zm295 69l0 168c15,1 29,1 44,2l0 -171 -7 0c-12,0 -24,0 -37,0zm-460 168l0 -104 25 0 0 -36c-29,4 -57,8 -85,12l0 131c20,-1 40,-2 60,-3zm59 -104l85 0 0 -48c-29,3 -57,5 -85,9l0 40zm479 109c29,2 57,4 85,6l0 -176c-28,-1 -57,-1 -85,-2l0 172zm120 9c29,2 58,5 85,8l0 -182c-28,-2 -57,-3 -85,-4l0 178zm120 12c29,3 58,7 85,11l0 -187c-28,-3 -56,-5 -85,-7l0 183zm120 16c30,5 58,10 85,15l0 -194c-28,-4 -56,-7 -85,-10l0 189zm120 22c23,5 45,10 66,16l0 -203c-21,-4 -43,-7 -66,-10l0 197zm-1671 20c24,-7 51,-14 80,-20l0 -39c-33,19 -60,39 -80,59zm115 -27c27,-5 55,-10 85,-15l0 -72c-31,12 -59,24 -85,37l0 50zm120 -20c27,-4 56,-8 85,-11l0 -95c-30,8 -58,17 -85,27l0 80zm120 -15c28,-3 56,-6 85,-8l0 -113c-29,6 -58,13 -85,20l0 101zm120 -11c28,-2 56,-4 85,-6l0 -127c-29,5 -58,10 -85,16l0 117zm4995 298l0 -151 -130 -130 -134 134 0 147 264 0zm-326 0l0 -159 -124 -142 -139 160 0 142 264 0zm-326 0l0 -160 -125 -153 -133 163 0 150 258 0zm-320 0l0 -156 -128 -157 -130 159 0 154 258 0zm-320 0l0 -151 -132 -151 -132 151 0 150 264 0zm-326 0l0 -152 -129 -129 -135 135 0 147 264 0zm1617 -182l0 -169c-14,-6 -28,-11 -43,-17l-71 71 115 115zm-66 -194c-54,-19 -114,-36 -179,-51l115 115 64 -64zm-198 -39l0 237 119 -119 -119 -119zm-62 221l0 -249 0 0 -109 125 109 125zm-26 -254c-70,-13 -145,-23 -223,-31l125 143 98 -112zm-237 -13l0 284 124 -142 -124 -142zm-62 264l0 -269 -110 135 110 135zm-14 -290c-74,-6 -151,-9 -230,-10l119 147 111 -137zm-244 11l0 289 118 -145 -118 -145zm-62 283l0 -278 -113 139 113 139zm-9 -304c-79,1 -156,4 -231,10l112 137 119 -147zm-249 25l0 281 114 -140 -114 -140zm-62 287l0 -266 -116 133 116 133zm-6 -295c-79,8 -154,18 -225,31l99 113 126 -144zm-251 36l-7 1 0 258 117 -134 -110 -126zm-69 262l0 -228 -114 114 114 114zm-13 -245c-66,15 -127,32 -182,51l65 65 116 -116zm-204 59c-16,6 -32,12 -47,18l0 174 119 -119 -73 -73zm-693 1493l-25 0c-9,0 -16,-7 -16,-16l0 -315c0,-9 7,-16 16,-16l25 0c9,0 16,7 16,16l0 315c0,9 -7,16 -16,16zm3640 3239l861 0c3,0 5,2 5,5l0 0c0,3 -2,5 -5,5l-861 0c-3,0 -5,-2 -5,-5l0 0c0,-3 2,-5 5,-5zm559 322c-7,-69 -65,-123 -136,-123 -71,0 -129,54 -136,123l44 0c5,-46 44,-83 92,-83 48,0 87,36 92,83l44 0zm-54 0c-5,-41 -40,-73 -82,-73 -42,0 -77,32 -82,73l164 0z"/>
 </g>
</svg>
