<?xml version="1.0" encoding="UTF-8"?>
<!DOCTYPE svg PUBLIC "-//W3C//DTD SVG 1.1//EN" "http://www.w3.org/Graphics/SVG/1.1/DTD/svg11.dtd">
<!-- Creator: CorelDRAW X7 -->
<svg xmlns="http://www.w3.org/2000/svg" xml:space="preserve" width="181.439mm" height="65.2609mm" version="1.1" style="shape-rendering:geometricPrecision; text-rendering:geometricPrecision; image-rendering:optimizeQuality; fill-rule:evenodd; clip-rule:evenodd"
viewBox="0 0 18401 6618"
 xmlns:xlink="http://www.w3.org/1999/xlink">
 <defs>
  <style type="text/css">
   <![CDATA[
    .fil0 {fill:black}
   ]]>
  </style>
 </defs>
 <g id="Layer_x0020_1">
  <metadata id="CorelCorpID_0Corel-Layer"/>
  <path class="fil0" d="M11998 6210c7,-16 15,-30 25,-42 0,19 -23,38 -25,42zm-7118 21c7,-15 14,-29 24,-40 0,18 -22,36 -24,40zm-317 50c6,-13 13,-25 21,-35 -1,16 -19,32 -21,35zm7816 -131c7,-18 17,-35 29,-49 -1,22 -27,44 -29,49zm45 -202c-10,3 -33,-11 -45,-5 17,10 40,14 53,29 -14,-4 -27,-8 -41,-5 15,8 32,14 48,22 -7,3 -23,-4 -34,-5 5,10 17,13 27,19 -65,-42 -171,-33 -237,11 -7,-1 -15,-1 -23,-1 14,-9 34,-12 52,-17 -8,-5 -24,-4 -37,-4 14,-10 35,-13 56,-16 -7,-5 -18,-5 -29,-5 14,-7 31,-13 52,-14 -5,-7 -20,-3 -27,-7 16,-6 33,-11 54,-12 -110,-22 -182,46 -201,136 -19,-68 -62,-125 -146,-121 12,6 28,9 40,16 -5,4 -15,-2 -23,2 13,8 31,12 46,19 -12,6 -15,-2 -30,0 12,11 32,13 46,21 -8,3 -23,-1 -31,-2 4,11 31,16 44,25 -9,3 -29,-9 -40,-4 15,8 35,13 46,25 -12,-3 -23,-6 -35,-4 13,7 28,12 42,19 -6,3 -21,-4 -30,-4 5,9 15,11 23,16 -30,-19 -71,-26 -111,-22l0 -246 1946 0 3 0 0 656 -97 0 0 49 -29 0 0 99 29 0 760 0 29 0 0 -99 -29 0 0 -49 -109 0 0 -656 3965 0 0 -16 -86 0 0 -12 86 -70 0 -22 -107 87 -21 0 0 -142 128 0 0 -24 -344 0 0 -58c114,8 228,13 344,15l0 -10c-116,-2 -230,-7 -344,-15l0 -97c114,20 228,38 344,53l0 -10c-1700,-224 -3150,-946 -4030,-1942l0 -16 -39 -35 0 -52 -9 -8 -2 0 0 0 -2 0 -9 8 0 52 -38 35 0 38c-6,7 -13,15 -19,23 -29,3 -60,5 -93,5 -32,0 -63,-1 -91,-5 -9,-11 -19,-23 -28,-35l0 -26 -38 -35 0 -52 -9 -8 -2 0 0 0 -2 0 -9 8 0 52 -39 35 0 27c-620,703 -1524,1269 -2599,1620l0 0c-3,1 -5,2 -7,2l0 1c-34,11 -68,22 -102,32l0 -418 0 -74 0 -23c0,-6 -5,-11 -11,-11l-18 0c-6,0 -11,5 -11,11l0 23 -11 0 -121 -634 -175 0 0 -59 -38 0 0 -40 -39 0 0 -40 -39 0 0 -490 -13 -6 0 -118 -14 -11 0 -152 -2 -17 -3 17 0 152 -13 11 0 119 -14 5 0 490 -39 0 0 40 -38 0 0 40 -39 0 0 59 -175 0 -121 634 -10 0 0 -23c0,-6 -5,-11 -12,-11l-18 0c-6,0 -11,5 -11,11l0 23 0 74 0 1819 979 0 6 0 699 0 0 -389c4,-10 8,-19 13,-27 2,11 -7,30 -4,50 12,-20 20,-44 31,-65 1,10 -4,33 -6,48 8,-2 10,-17 15,-27 4,-11 10,-21 14,-29 -4,55 -36,89 -29,154 7,62 40,109 77,149 -5,-18 -25,-39 -29,-65 11,8 19,19 29,27 -4,-21 -24,-45 -31,-71 10,11 18,24 29,34 -4,-22 -20,-48 -27,-74 12,7 21,35 40,42 -12,-25 -24,-51 -34,-79 14,15 26,33 40,48 -4,-23 -22,-51 -29,-78 12,8 25,32 37,47 -3,-24 -22,-49 -27,-78 11,16 19,36 34,48 -3,71 -7,172 -11,258 -1,29 10,73 -19,75 36,5 81,1 120,2 -5,-10 -30,-10 -34,-25 -12,-43 -28,-137 -33,-207 -5,-73 -8,-156 8,-203 3,13 -2,42 -4,63 7,-11 13,-23 17,-38 5,24 -6,50 -11,71 10,-14 21,-28 27,-46 0,20 -10,49 -18,69 11,-6 22,-30 31,-46 1,25 -10,55 -19,77 11,-7 24,-30 34,-46 -2,23 -14,53 -21,78 13,-12 20,-30 33,-42 -8,26 -14,53 -23,77 11,-9 19,-22 27,-35 -1,20 -14,47 -21,69 10,-8 18,-17 23,-29 1,23 -11,50 -23,69 47,-37 83,-126 55,-208 -1,-3 -3,-6 -4,-9l5 -15c1,4 2,8 3,12 3,-5 3,-15 2,-26 2,-4 3,-7 5,-11 0,0 0,1 1,1l0 1c4,9 0,25 1,36 3,-4 6,-8 9,-13 3,11 7,21 9,33 7,-18 1,-29 2,-55 12,22 19,47 28,72 4,-12 0,-33 2,-49 10,22 20,43 25,70 6,-13 1,-31 2,-44 9,21 18,43 23,69 8,-7 3,-30 4,-38 11,21 19,43 23,71 1,-9 1,-18 1,-26 16,45 45,83 77,117 -6,-21 -29,-45 -34,-75 12,10 21,22 34,32 -5,-25 -29,-52 -36,-82 11,13 20,28 33,38 -4,-24 -23,-55 -31,-84 14,8 24,40 46,48 -15,-29 -28,-59 -39,-91 16,18 30,38 46,55 -5,-26 -26,-58 -34,-89 14,9 29,37 43,53 -3,-27 -26,-55 -31,-89 13,19 21,42 39,56 -3,81 -8,196 -12,295 -2,34 11,84 -22,87 41,5 92,0 137,2 -6,-11 -34,-12 -39,-29 -13,-49 -32,-157 -38,-238 -6,-83 -9,-179 10,-233 3,16 -2,49 -5,72 8,-12 15,-26 19,-43 6,28 -6,58 -12,82 12,-16 23,-33 31,-53 0,23 -12,57 -21,79 12,-7 26,-35 36,-53 1,29 -12,64 -22,89 13,-8 28,-35 39,-53 -3,26 -16,61 -25,89 16,-13 24,-34 39,-48 -9,30 -16,61 -26,89 12,-11 22,-26 31,-41 -2,23 -17,54 -24,80 11,-9 20,-20 26,-34 1,26 -14,58 -26,79 53,-42 95,-144 62,-238 -8,-22 -27,-44 -24,-81 13,19 24,40 29,67 7,-10 1,-43 0,-60 12,26 24,53 31,84 8,-21 1,-33 3,-62 13,24 21,53 31,81 5,-13 1,-37 2,-55 12,24 23,49 29,79 7,-14 2,-35 2,-50 11,24 21,50 27,79 9,-8 4,-34 5,-43 12,24 22,50 26,82 13,-176 -89,-276 -264,-279 26,-27 78,-5 106,7 -3,-10 -25,-22 -39,-29 21,1 48,16 70,24 -13,-13 -27,-26 -43,-36 21,2 50,19 74,27 -9,-14 -24,-21 -34,-34 21,7 44,11 60,22 -2,-10 -21,-24 -33,-32 23,2 50,20 74,29 -9,-10 -17,-22 -31,-29 19,2 46,16 63,27 4,-8 -12,-16 -15,-24 20,9 42,15 58,29 -24,-35 -74,-73 -135,-80 -85,-9 -162,29 -194,82 0,-41 47,-56 84,-70 -6,-4 -20,3 -31,0 12,-8 31,-12 48,-17 -14,-4 -36,-2 -48,-2 20,-10 42,-19 69,-22 -13,-4 -30,-5 -48,-4 16,-11 39,-14 60,-20 -10,-6 -27,-4 -43,-4 16,-12 40,-16 65,-20 -8,-4 -21,-5 -34,-4 17,-9 36,-16 60,-17 -5,-8 -23,-3 -31,-7 18,-8 38,-13 62,-15 -126,-25 -209,53 -230,156 -23,-78 -71,-143 -168,-139 14,7 32,11 45,19 -6,4 -17,-2 -26,3 16,9 36,13 53,21 -14,7 -18,-2 -34,0 14,12 36,15 53,24 -10,3 -27,-1 -36,-2 4,12 36,18 50,29zm-243 77c-4,3 -8,7 -12,11 -6,0 -12,0 -16,0 9,-4 18,-8 28,-11zm-25 26l-1 2c-1,0 -1,0 -2,0 1,-1 2,-1 3,-2zm-9 15c-1,3 -3,6 -4,9 8,-6 15,-11 23,-17 5,-2 10,-3 14,-5 -1,-1 -2,-1 -4,-1 8,-6 17,-11 27,-15 0,3 -4,8 -8,13 -39,12 -71,35 -88,64 0,-24 19,-38 40,-48zm73 -22c10,-6 19,-13 29,-17 0,5 -6,10 -11,15 -6,1 -12,1 -18,2zm36 -3c10,-6 20,-12 31,-16 -1,5 -6,11 -13,17 -6,0 -12,-1 -18,-1zm38 4c11,-6 21,-12 32,-18 -2,8 -11,14 -19,22 -5,-2 -9,-3 -13,-4zm27 9c12,-6 24,-13 36,-20 0,9 -14,16 -23,26 -4,-2 -8,-4 -13,-6zm19 10c16,-9 34,-15 51,-23 7,4 13,9 21,12 -23,3 -45,8 -65,14 -2,-1 -5,-2 -7,-3zm-34 21l-2 1c-1,-1 -1,-1 -2,-2 1,0 2,1 4,1zm-14 8c-3,2 -6,4 -8,6 -6,-6 -14,-11 -20,-15 9,1 19,4 28,9zm-15 11c-4,3 -9,7 -13,10 -7,-7 -17,-13 -23,-21 12,4 25,6 36,11zm-17 14c-9,10 -18,20 -25,32 -32,-14 -69,-21 -111,-22 22,-23 68,-4 92,7 -3,-9 -22,-19 -34,-26 18,2 42,15 61,21 -11,-11 -23,-22 -38,-31 16,2 37,12 55,19zm-54 100c-2,7 -3,15 -4,22 -6,-12 -11,-26 -9,-45 5,7 9,15 13,23zm73 -43c2,-7 5,-13 8,-18 2,6 1,15 -1,24 -2,-2 -5,-4 -7,-6zm17 14c7,-17 14,-34 23,-49 2,13 -8,35 -5,58 13,-24 23,-51 36,-75 0,12 -5,38 -7,55 9,-2 11,-19 16,-31 6,-12 13,-24 17,-34 -4,55 -32,91 -34,148 -10,-28 -26,-52 -46,-72zm-363 -34l0 -20c15,-8 31,-17 46,-26 0,10 -21,18 -25,32 17,-10 37,-17 55,-25 6,3 11,8 19,10 -36,4 -68,13 -95,29zm0 -31l0 -10c6,-3 13,-7 19,-11 -2,8 -11,14 -19,21zm-699 -578l102 0 0 -146c-34,8 -68,16 -102,24l0 122zm109 0l33 0 0 -68 66 0 0 -5 3 -1 0 -100c-34,9 -68,18 -102,26l0 148zm109 -75l148 -28 0 -62 3 0 0 -53c-50,14 -100,28 -151,42l0 101zm158 -90l102 0 0 -87c-33,11 -68,21 -102,32l0 55zm110 0l64 0 0 -110c-22,7 -43,14 -64,21l0 89zm64 -120l0 -22 7 0 0 20c26,-9 53,-18 79,-27l0 -234c-85,35 -172,69 -260,102l0 216c34,-11 69,-21 102,-32l0 -4c3,-1 5,-2 8,-3l0 5c21,-7 42,-14 64,-21zm7 8l0 112 13 0 0 97 66 0 0 -236c-26,9 -53,18 -79,27zm86 209l17 0 0 68 39 0 0 69 47 0 0 -412c-34,13 -68,25 -103,37l0 238zm56 185l0 135 159 0 0 -12 -149 -123 -10 0zm-529 -154l38 0 0 -21 -58 0 0 58 20 0 0 -37zm400 0l55 0 0 37 11 0 0 -58 -66 0 0 21zm73 37l4 0 0 -58 -4 0 0 58zm-29 0l0 -29 -44 0 0 29 44 0zm-406 -29l-32 0 0 29 32 0 0 -29zm-9761 926c2,0 4,0 7,0 0,1 1,2 2,3 0,0 1,1 1,1 -4,0 -8,0 -10,1 -1,-1 -1,-1 -1,-1 1,-1 1,-2 1,-4zm47 86l0 1c-2,5 -1,9 -1,13 1,1 1,2 1,3l0 -17zm36 79c3,3 6,6 8,9l0 -29 17 0 0 -29 18 0 0 -30 17 0 0 -29 18 0 0 -29 93 0 0 29 17 0 0 29 17 0 0 30 18 0 0 29 17 0 0 30 -231 0 -1 0 -8 0 0 0 -8 0 -6 0 -17 0 -5 0 -10 0 -36 0c6,-2 13,-6 17,-8 5,-3 8,-5 10,-8 2,-4 2,-7 2,-10 -1,-3 -2,-6 -4,-9l-1 -3c-11,-8 -22,-10 -32,-14 -9,-5 -19,-3 -29,-7l-17 -7 0 66 -330 0 0 -38 -17 0 0 -29 -17 0 0 -30 -18 0 0 -29 -17 0 0 -29 -8 0 0 -212 -94 0 0 212 -7 0 0 29 -17 0 0 29 -18 0 0 30 -17 0 0 29 -18 0 0 38 -36 0 0 -135c0,0 -1,1 -2,1l-19 5c-2,1 -3,2 -4,3 -8,8 -16,15 -24,23l-16 17 10 -4 11 -2 2 2 -17 7 -18 10 -21 7c-11,6 -22,4 -32,8 -11,5 -23,8 -35,16l-1 4c-2,3 -4,6 -4,9 -1,4 0,7 2,11 2,3 5,6 10,9 5,3 13,6 19,9l-40 0 -15 0 -15 0 -5 0 -6 0 -9 0 -5 0 -5 0 -5 0 -12 0 -4 0 -6 0 -6 0c4,-5 9,-10 13,-15l0 0 0 0c0,0 1,0 1,-1 4,-5 7,-10 9,-14 3,-4 5,-8 6,-12 2,-3 2,-6 2,-9 0,-3 1,-6 0,-9 -1,-3 -2,-6 -5,-9 -2,-2 -8,-6 -11,-9 -1,-1 -1,-1 -2,-2l0 0 0 0 0 0 0 0 0 0 0 0c0,-1 0,-1 -1,-2 0,-1 -1,-2 -1,-3 0,0 0,0 0,0 0,0 -1,0 -1,0 0,0 -1,-1 -1,-1 -1,-1 -3,-2 -4,-4 0,0 0,0 -1,0l0 0c0,1 1,2 0,3 0,0 0,0 -1,0 0,0 -1,-1 -2,-2 -1,1 -4,2 -5,2l0 -2c-1,-3 -1,-4 -1,-6 0,0 0,-1 -1,-1 0,0 -1,1 -1,1 0,0 -1,-1 -1,-1l0 0 0 0c0,-1 0,-1 0,-2 -1,1 -2,1 -3,0 -2,-2 0,-7 0,-8 0,-1 0,-1 0,-2 -1,-1 -2,-1 -2,-2 -1,0 -1,-1 -1,-2 0,0 1,0 1,-1l0 0c0,0 1,0 1,0 0,-1 1,-3 1,-3 0,0 0,0 0,0 0,0 1,-1 1,-1 0,0 0,-1 0,-1 0,0 0,-1 -1,-1 0,-1 0,-1 0,-1l0 0c0,0 0,-1 0,-1l0 0 -3 1c0,-1 1,-3 2,-4 -1,0 -1,0 -1,0 0,0 0,0 0,0l-1 0c0,0 0,1 0,1 -1,0 -1,1 -2,1l0 0c0,-1 2,-3 2,-3 0,0 0,0 1,0 0,-1 0,-2 0,-2l0 0 1 0c0,-1 1,-1 1,-2 -1,0 -2,0 -2,-1 -1,0 -1,0 -1,0 -1,0 -1,0 -1,0l0 0 -1 0c0,0 0,0 0,0 0,2 -1,4 -1,5l0 0 0 1 1 2c0,1 0,1 1,1 0,0 0,1 0,2 -1,1 -2,3 -3,3 -1,0 -1,1 -1,1l0 0c0,0 -1,0 -1,1 0,0 -1,0 -1,0l0 0c0,0 -1,-1 -1,-1 0,0 0,0 0,0 -1,1 -1,1 -1,2 0,0 -1,0 -1,0l0 0 0 0c0,0 -1,-1 -1,-1l-1 0 0 0c0,1 -1,1 -1,2l0 0 0 0 0 0c1,1 2,1 3,2l-1 4 -1 -1c0,0 0,0 0,0l0 0c-2,0 -4,-1 -3,-3l-1 -1c0,0 -1,-1 -1,-1 -1,-2 -3,-5 -2,-7 -1,0 -1,0 -1,-1l-1 1c-1,0 -1,0 -1,0l2 -6c-1,-1 -2,0 -4,-1 1,0 1,-1 1,-2l0 0c-1,1 -5,1 -6,0l0 -1c-1,0 -1,0 -2,-1 -1,-2 -2,-4 -2,-6 -1,0 -1,-1 -2,-1l-1 0c-1,1 -4,0 -5,0l1 -2c0,-4 0,-5 4,-5 0,0 1,0 2,0 0,-1 1,-3 1,-3 0,0 1,0 1,-1 0,0 0,0 0,0 0,0 0,0 0,0 -1,0 -2,-1 -2,-1 0,0 0,0 0,0 0,0 -1,0 -1,0l0 -1 0 0c-1,0 -1,-1 -1,-1 -1,1 -3,1 -5,1 0,0 0,0 0,-1 1,0 2,-3 2,-4 0,-1 -1,-2 -1,-2 0,-1 1,-2 1,-2 0,0 0,-1 0,-1l1 0c0,0 2,1 4,1 1,0 1,-1 1,-1 3,0 8,-1 9,-4 0,0 0,0 0,-1 0,0 0,0 0,0 0,0 -2,0 -2,0 0,1 -1,1 -1,2 -1,0 -3,0 -3,-1 -1,1 -3,1 -4,1 0,-1 0,-1 0,-1l0 0c0,-1 1,-2 1,-4 0,0 -1,0 -2,0 0,-1 1,-2 2,-2l0 0 0 0c0,-1 1,-1 2,-1 -1,-1 -2,-2 -1,-5 2,-2 9,-3 11,-4 1,0 2,-1 4,-1 0,0 0,0 0,0 1,0 2,-1 3,-1 -1,-2 -1,-3 0,-5 1,-2 4,-3 8,-4l0 0c-1,0 -1,0 -2,-1l-1 1c-1,0 -1,0 -2,0l1 -2c-1,0 -1,0 -1,-1 0,0 -1,0 -2,0l0 0c0,0 -1,-1 -1,-1 0,0 -1,-1 -1,-1l0 -1c0,0 1,-1 1,-1 -1,0 -1,0 -1,-1 -1,0 -1,0 -2,0 0,0 0,-1 -1,-1l0 0 0 0c0,0 0,-2 1,-2l0 -1 -1 0c0,0 -1,-1 -2,-1l0 1 0 0 0 -1c-1,2 -1,4 -2,5l-5 0 0 -1c0,0 0,0 0,0l0 0c-1,-3 0,-6 3,-6l1 -1c0,0 -1,-1 -1,-2 -2,-2 -3,-6 -4,-9 -1,-1 -2,-1 -3,-2l-2 0c-2,2 -7,1 -8,0l2 -3c0,-6 0,-7 6,-7 1,0 3,-1 3,-1 0,-1 2,-4 3,-4 0,-1 0,-1 1,-1 0,-1 0,-1 0,-1 0,0 -1,0 -1,0 -1,0 -2,-1 -2,-1 -1,-1 -1,-1 -1,-1 0,0 0,0 -1,0l-1 -1 0 0c0,-1 -1,-2 -1,-2 -2,1 -4,2 -7,2 0,-1 -1,-1 -1,-1 1,-1 3,-5 4,-8 -1,-1 -2,-2 -2,-3 0,-1 1,-2 1,-3 0,0 1,-1 1,-1l1 0c0,0 4,1 7,1 0,0 1,-1 1,-1 4,0 12,-2 15,-6 0,-1 -1,-1 -1,-2 0,0 0,-1 1,-1 -1,0 -4,1 -4,1 0,1 -1,2 -2,3 -1,0 -4,0 -4,-1 -2,1 -4,1 -7,1 0,-1 0,-1 0,-2l0 0c0,-2 2,-3 2,-6 0,0 -2,-1 -2,-1 0,-1 1,-2 1,-3l1 0 0 0c1,0 2,0 3,0 -2,-2 -3,-5 -1,-9 2,-4 13,-5 17,-6 1,-1 4,-1 6,-2 0,0 0,0 1,0 1,-1 2,-2 4,-2 -1,-2 -1,-5 0,-8 3,-5 16,-6 21,-7 0,-1 0,-1 1,-1 -1,0 -2,-1 -3,-1l1 -1c1,0 3,1 4,1 1,0 2,0 4,-1 0,0 0,0 1,0 0,0 0,0 1,0 0,-1 0,-2 1,-2 0,0 -1,-1 -1,-1 1,0 1,0 1,0 -1,-1 -1,-1 -2,-1 -2,0 -3,0 -5,0l0 0 0 1 -5 4c0,0 -1,1 -1,2 -1,0 -3,1 -5,1 -1,0 -8,-2 -8,-5 0,0 -2,0 -2,0l0 0c-1,0 -2,-1 -3,-1 0,0 -1,-2 -1,-2l0 -1c0,0 1,-2 1,-2 -1,0 -1,-1 -1,-1 -1,0 -2,-1 -4,-1 0,0 0,-1 0,-1l0 -1 -1 0c0,0 1,-2 1,-2l0 -2 0 -1c-1,0 -3,0 -4,0l-1 0 0 1 0 -1c-1,2 -1,5 -3,8l-8 0 0 -2c0,0 1,0 1,-1l0 0c-2,-3 0,-9 5,-9l1 -2c0,-1 1,-2 1,-3 3,-4 8,-10 13,-10 0,-1 1,-2 1,-2l-2 -2c0,-1 0,-2 0,-2l10 0c0,-2 1,-4 2,-6 0,0 0,-1 1,-2 1,0 3,0 4,0l1 -1c0,-1 1,-3 1,-4 4,-5 10,-12 17,-12 0,-1 0,-2 0,-3l-2 -2c0,-1 0,-2 0,-3l18 1c0,-4 -5,-6 -3,-10 9,0 19,2 28,1 -1,0 -3,0 -3,-1 -1,0 -3,-2 -3,-3 6,0 14,-1 21,-1l48 -3c0,-1 8,0 10,1l0 0 0 0c0,1 1,1 1,2 5,0 10,0 16,0 6,1 6,3 3,3l3 3c3,0 5,-1 6,-1 5,3 10,1 11,5 5,1 11,1 16,3 0,0 1,1 2,1 0,0 0,1 1,1l26 2c7,0 14,1 21,1 0,1 -2,3 -3,3 0,1 -2,1 -3,1 9,1 18,-1 28,-1 1,4 -3,6 -3,10l10 0 0 -13 -9 0c-4,0 -7,-3 -7,-6l0 0c0,-4 3,-6 7,-6l9 0 0 -174 295 0 0 -35 -295 0 0 -258 -7 0 0 -12 -10 0 0 -12 -24 0 13 -13 0 -47 2 0c0,-1 0,-2 0,-4 0,-1 0,-2 0,-4 -2,-1 -3,-3 -3,-5 0,-3 3,-6 8,-7l0 -4c-2,-2 -3,-7 -3,-12 0,-8 2,-14 5,-14 2,0 4,6 4,14 0,5 -1,10 -2,12l0 4c4,1 8,4 8,7 0,2 -2,4 -4,5 0,2 1,3 1,4 0,2 -1,3 -1,4l2 0 0 30 312 -312c-3,-2 -5,-6 -5,-11 0,-5 3,-10 7,-12 -1,-3 -1,-7 -1,-11 0,-8 1,-15 3,-18l0 -9c-5,0 -9,-2 -9,-3 0,-2 4,-3 9,-4l0 -20c-5,-1 -10,-6 -10,-12 0,-7 6,-13 13,-13 7,0 12,6 12,13 0,6 -4,11 -10,12l0 20c6,1 9,2 9,4 0,1 -3,3 -9,3l0 9c2,3 4,10 4,18 0,4 -1,8 -1,11 4,2 7,7 7,12 0,5 -2,10 -6,12l125 124 89 -64 0 -31c0,-3 3,-5 6,-5l12 0c3,0 5,2 5,5l0 149 9 0 0 68 65 65 0 -30 2 0c0,-1 0,-2 0,-4 0,-1 0,-2 0,-4 -2,-1 -3,-3 -3,-5 0,-3 3,-6 8,-7l0 -4c-2,-2 -2,-7 -2,-12 0,-8 1,-14 4,-14 2,0 4,6 4,14 0,5 -1,10 -2,12l0 4c4,1 8,4 8,7 0,2 -2,4 -4,5 0,2 1,3 1,4 0,2 0,3 -1,4l2 0 0 47 13 13 -23 0 0 12 -11 0 0 12 -7 0 0 467 2 0c3,0 6,2 6,6l0 0c0,3 -3,6 -6,6l-2 0 0 30c4,-2 10,-1 14,-2 1,-4 6,-3 10,-4 1,0 3,0 6,0l2 -3c-2,0 -3,-1 3,-2 5,0 10,0 15,0 0,-1 0,-1 1,-2l0 0 0 0c2,-1 9,-2 9,-1l40 2 0 -497 -7 0 0 -12 -11 0 0 -12 -23 0 336 -336c1,-4 3,-8 7,-9 -1,-4 -1,-7 -1,-11 0,-8 1,-16 3,-19l0 -8c-5,-1 -9,-2 -9,-4 0,-1 4,-3 9,-3l0 -20c-6,-2 -10,-7 -10,-13 0,-6 6,-12 13,-12 6,0 12,6 12,12 0,6 -4,11 -10,13l0 20c5,0 9,2 9,3 0,2 -4,3 -9,4l0 8c2,3 3,11 3,19 0,4 0,7 0,11 3,1 5,4 6,8l199 199 0 -25 9 0 0 -137 24 0 0 137 10 0 0 68 72 72 0 -1 0 -38c0,-6 5,-12 11,-12l21 0 0 -149 -21 0c-6,0 -11,-6 -11,-12l0 -38c0,-6 5,-11 11,-11l143 0 0 -180 -21 0 0 -42 1167 0 0 42 -21 0 0 180 143 0c6,0 11,5 11,11l0 38c0,6 -5,12 -11,12l-21 0 0 149 21 0c6,0 11,6 11,12l0 38c0,6 -5,11 -11,11l-21 0 0 895 -622 0 -747 0 0 -895 -21 0 0 0 12 13 -23 0 0 12 -11 0 0 12 -7 0 0 858 -330 0 0 -38 -17 0 0 -29 -18 0 0 -30 -17 0 0 -29 -17 0 0 -29 -8 0 0 -212 -94 0 0 119 0 0 1 0c0,1 1,2 1,3 0,0 -2,1 -2,1l0 1c0,2 2,3 2,4l0 1c0,0 0,0 0,1l-2 0 0 5 0 0c0,0 1,0 1,1 3,-1 7,-1 7,-1l1 0c0,0 0,0 1,0 0,1 0,2 0,3 0,1 -1,2 -2,3 1,2 3,7 4,7 0,0 -1,1 -1,1 -3,0 -4,-1 -6,-2 -1,1 -1,1 -2,2l0 0 0 1c-1,0 -1,0 -1,0 0,0 0,0 0,1 -1,0 -1,0 -2,0l0 3c1,1 2,3 2,4 0,0 2,0 2,0 6,0 6,2 6,7l2 2c-1,1 -6,2 -7,0l-2 0c-1,1 -2,2 -2,2l-1 2 0 41 -7 0 0 29 -18 0 0 29 -17 0 0 30 -17 0 0 29 -18 0 0 28zm-244 -142c0,-1 0,-3 1,-4l0 0c0,0 0,0 -1,-1l1 -1 4 1 0 -6c-1,-1 -1,-1 -1,-2 0,0 0,0 0,0 -3,0 -7,0 -7,3l0 0 0 2 -4 0 0 1c-2,0 -3,1 -5,1l0 -2 -82 0 0 -178 91 0 0 91 0 0 0 0c1,0 2,0 4,-1 -3,-1 -3,-4 -1,-9 0,-1 2,-2 5,-3l0 -86 -107 0 0 194 102 0zm-3 -76l0 0c0,0 0,0 1,0 0,-2 1,-4 1,-7 0,1 -1,1 -2,1l0 6zm0 -12c0,-1 0,-1 0,-2 0,0 0,0 0,0l0 2zm25 -50c2,-2 3,-5 5,-7 -1,0 -1,0 -2,0 0,-1 0,-1 -1,-1l0 -1 0 0c-1,-1 0,-3 1,-3l0 -3 -1 0c0,0 -1,0 -2,0l0 15zm0 -32c3,-2 5,-4 8,-4l0 -3 -1 -1c0,-1 0,-2 0,-3l1 0 0 -5 13 0c-1,-1 -1,-2 0,-3 8,0 17,1 25,1 -1,0 -3,-1 -3,-2 -1,0 -2,-1 -2,-2 4,0 8,0 13,-1l0 -1 -54 0 0 24zm186 176l-1 0c0,1 0,1 0,2 0,6 0,11 -1,15 -2,8 -5,12 -7,18 3,-1 6,-2 9,-3l0 -32zm-96 16c-1,0 -1,0 -2,0l-2 0 0 11 0 0 0 0 0 25c3,2 6,5 8,7 0,0 0,0 0,0l1 1c0,0 1,1 1,1 3,2 8,4 12,6 3,2 7,3 10,5 4,1 8,1 11,1 3,1 5,1 7,1 3,0 4,0 7,1 1,0 3,1 5,2 2,0 4,1 6,2l0 0 0 0 0 0 0 0 0 0 0 0 0 0 0 0 0 0 0 0 0 0 0 0 0 0 0 0 0 0 0 0 0 0 0 0 0 0 0 0 0 0 0 0 0 0 0 0 0 0 0 0 0 0 0 0 0 0 0 0 0 0 0 0 0 0 0 0 0 0 0 0 0 0 0 0 0 0 0 0 0 0 0 0 0 0 0 0 0 0 0 0 0 0 0 0 0 0 0 0 0 0 0 0 0 0 0 0 0 0 0 0 0 0 0 0 0 0 0 0 0 0 0 0 0 0 0 0 0 0 0 0 0 0 0 0 0 0 0 0 0 0 0 0 0 0 0 0 0 0 0 0 0 0 0 0 0 0 0 0 0 0 0 0 0 0 0 0 0 0 0 -1c-1,-4 -1,-7 -2,-10l0 0 0 0 0 0 0 0 0 0 0 0 0 0 0 0 0 -1 0 0 0 0 0 0 0 0 0 0 0 0 0 0 0 0 0 0 0 0 0 0 0 0 0 0 0 0 -1 0 0 0 0 0 0 0 0 0 0 0 0 -1 0 0 0 0 0 0 0 0 0 0 0 0 0 0 0 0 0 0 0 0 0 0 0 0 0 0 0 0 0 0 0 0 0 0 0 0 0 0 0 0 0 0 0 0 0 -1 0 0 0 0 0 0 -1 0 0 0 0 0 0 0 0 0 0 0 0 0 0 0 0 0 0 0 0 0 0 0 0 0 0 0 0 0 0 0 0 0 0 0 0 0 0 -1 0 0 0 0 0 0 0 0 0 0 0 0 0 0 0 0 0 0 0 0 0 0 0 0 0 0 0 0 -1 0 0 0 0 0 0 0 0 0 0 0 0 -1 0 0 0 0 0 0 0 0 0 0 0 0 0 0 0 0 0 0 0 0 0 0 0 0 0 0 0 0 0 0 0 -1 0 0 0 0c-6,-3 -16,-11 -18,-13 -5,0 -18,0 -22,-3 -1,-1 -3,-7 -3,-7 5,0 7,4 16,4 1,-1 3,-1 3,-3 0,-1 -12,-10 -14,-11l-5 -2c-8,-3 -10,-4 -10,-8 3,0 11,3 13,4 11,4 23,17 31,18 0,0 0,0 0,0 0,-1 0,-2 0,-3 0,-3 0,-7 -1,-11 -1,-3 -2,-9 -2,-12 0,-2 -1,-5 -1,-8 -2,0 -4,0 -5,-2l-2 -1c-1,1 -3,1 -4,2 -4,-1 -9,-2 -12,-4 -3,1 -5,2 -6,2 -2,0 -6,3 -10,3 -1,1 -4,2 -4,2l-7 1 0 4c1,0 3,1 4,2zm-43 -38c1,0 1,0 1,0 0,0 1,1 1,1l0 0c0,0 2,-1 2,-1 1,1 1,1 1,1 0,0 -1,0 -1,1 0,0 1,0 2,0l1 2 0 -26 0 0c-1,0 -1,0 -2,0 0,3 0,5 -1,8 0,3 -1,7 -2,10l0 0c0,1 0,1 -1,1 0,1 0,2 -1,3zm3 -1c0,0 -1,0 -1,0 0,0 1,0 1,-1 0,0 0,1 0,1zm51 25c0,0 1,0 2,0l-1 -2c-1,0 -1,0 -1,0 0,1 0,1 0,1l0 1 0 0zm3 0c1,0 1,0 2,0 2,0 3,-1 5,-1 -2,-1 -3,-2 -3,-3 0,0 -2,0 -2,1l-1 2c0,0 -1,1 -1,1zm-18 -8l3 1c-1,-2 -2,-4 -3,-5l0 4zm4 1c3,0 6,1 10,1l-5 -8c-3,2 -2,6 -5,7zm-108 -1c-1,0 -1,-1 -1,-1 0,0 1,1 1,1l0 0zm173 -24c1,0 2,0 4,0 1,1 3,2 4,2 0,1 0,1 1,1 1,2 3,3 4,4 1,1 2,2 3,3 -1,2 -2,4 -2,6 -4,-3 -7,-7 -11,-9 -1,-1 -1,-2 -1,-3 -1,-2 -2,-3 -2,-4zm-12 30l-2 -4c-2,0 -4,0 -5,0 -1,0 -3,-1 -5,-1 -1,-1 -1,-2 -1,-2l0 -1 2 -1c0,0 3,0 3,-1l0 0 0 0c0,-1 0,-1 1,-2 -1,-1 -1,-2 -2,-3 1,-1 1,-1 1,-2 0,0 2,0 3,-1l0 0c0,0 1,-1 1,-1 3,-1 7,-1 11,-1l0 0c0,2 1,3 0,6 -2,4 -5,9 -7,14zm-9 1c0,0 0,1 1,1 -1,0 -2,-1 -3,-1 0,0 1,0 1,-1 0,1 1,1 1,1zm52 -10l0 1c0,1 0,2 0,3l0 0 0 -4zm-18 -1c-4,-2 -6,-5 -9,-7 0,0 0,0 -1,0 1,4 1,9 2,12 0,5 1,8 1,11 2,-5 4,-8 6,-13 0,-1 0,-2 1,-3zm-1538 -19c-2,0 -4,0 -6,0 -1,1 -2,2 -3,3 0,0 0,1 0,1 3,0 7,0 10,1 0,-1 0,-1 0,-1 -1,-1 -1,-2 -1,-4zm-141 -29c-1,2 -1,4 -2,6 0,0 -1,1 -2,1 -2,0 -4,0 -5,0 0,0 -1,-1 -1,-2 -1,0 -2,0 -3,0 1,0 1,0 2,0 1,-1 4,0 6,0 1,0 1,0 1,-1 1,1 1,1 1,1 0,-1 1,-3 1,-4 1,0 1,-1 2,-1zm-4 18c0,1 -1,2 -1,3 2,2 3,0 5,0l-3 10c0,0 1,0 1,0l1 -1c1,0 2,1 2,1 -1,3 1,7 3,10 1,0 1,1 2,1l1 1c-1,3 2,6 4,5l0 0c0,0 1,1 1,1l1 0 1 -5c-1,-1 -2,-2 -4,-3l1 0 -1 0 0 0c0,-1 1,-2 1,-3l1 0 1 1c0,0 1,1 1,1l0 -1 1 1c0,-1 0,-1 1,-1 0,0 0,-1 1,-2 0,0 0,0 0,0 1,0 1,1 2,1l0 0c0,0 1,0 2,0 0,-1 0,-1 1,-2l0 1c0,-1 0,-2 0,-2 2,1 5,-3 5,-4 1,-1 0,-2 0,-3 0,0 -1,-1 -1,-1l-1 -4 0 0 -1 0c1,-2 2,-6 2,-8 0,0 0,0 0,0l1 0 0 0c0,0 1,0 1,0 1,0 1,-1 2,-1 1,2 2,3 4,3 -1,1 -3,1 -3,2l0 0 -1 0c0,1 0,2 0,3 0,0 0,0 0,0 -1,1 -3,3 -4,4l0 1c1,0 2,-1 2,-2 1,-1 1,-1 2,-2l0 0c0,0 0,0 0,0 0,0 1,0 2,0 -2,2 -3,5 -2,6l3 -1 0 0c0,1 1,1 1,2l0 0c0,0 0,0 0,0 0,1 0,2 1,3 0,0 0,0 0,0 -1,1 -1,2 -1,3 0,0 0,-1 0,-1 -1,1 -2,3 -2,4 -1,1 -1,1 -1,1l-1 0c0,0 -1,1 -1,1 1,1 0,3 1,4 0,1 2,1 3,2 0,1 0,2 0,2 0,3 -2,10 0,12 2,2 4,2 5,1 0,1 0,1 0,2l0 0 0 0c0,1 1,2 1,2 0,0 2,-1 2,-1 1,0 1,1 2,1 -2,2 -1,4 1,8l-1 3c2,1 6,-1 8,-3 1,2 3,4 3,4 1,0 1,0 1,0 1,-2 1,-3 0,-5l1 0c0,0 0,0 1,0 2,2 4,5 6,6 0,1 0,1 1,1 0,0 1,0 1,1 0,0 0,0 0,0 1,1 2,3 2,4 1,1 1,2 1,2l0 0 0 0 1 0 0 0 0 1 0 0c0,0 1,1 3,3 3,3 12,9 15,13 4,4 6,8 8,12 1,5 0,9 0,13 -1,5 -1,9 -3,14 -2,6 -5,11 -9,17 -4,6 -8,13 -13,21 -1,0 -1,1 -2,1l0 1 0 0c-5,7 -12,14 -19,21l9 0 8 0 6 0 18 0 14 0 36 0c-6,-2 -13,-6 -17,-8 -5,-3 -7,-5 -9,-8 -3,-4 -3,-7 -3,-10 1,-3 3,-6 4,-9l1 -3c11,-8 22,-10 32,-14 10,-5 20,-3 29,-7l19 -7 17 -10 15 -5 -2 -3 -10 3 -9 3 15 -16c7,-6 14,-13 21,-20 1,-1 3,-2 4,-3l18 -5c3,-1 7,-2 10,-3 0,0 -1,-1 -1,-1 -1,0 -2,0 -2,0 4,-1 10,-1 14,-2 1,-3 -2,-3 -2,-5l7 -1 7 1c0,2 -3,2 -2,5 4,1 10,1 14,2 0,0 -1,0 -2,0 0,0 -1,1 -1,1 3,1 7,2 10,3l18 5c1,1 3,2 4,3 7,7 14,14 21,20l15 16 -9 -3 -10 -3 -2 3 15 5 17 10 19 7c9,4 19,2 29,7 10,4 21,6 32,14l1 3c1,3 3,6 4,9 0,3 0,6 -3,10 -2,3 -4,5 -9,8 -4,2 -11,6 -17,8l36 0 14 0 18 0 6 0 8 0 9 0c-7,-7 -14,-14 -19,-21l0 0 0 -1c-1,0 -1,-1 -2,-1 -5,-8 -9,-15 -13,-21 -4,-6 -7,-11 -9,-17 -2,-5 -2,-9 -3,-14 0,-4 -1,-8 0,-13 2,-4 4,-8 8,-12 3,-4 12,-10 15,-13 2,-2 3,-3 3,-3l0 0 0 -1 0 0 1 0 0 0 0 0c0,0 0,-1 1,-2 0,-1 1,-3 2,-4 0,0 0,0 0,0 0,-1 1,-1 1,-1 1,0 1,0 1,-1 2,-1 4,-4 6,-6 1,0 1,0 1,0l1 0c-1,2 -1,3 0,5 0,0 0,0 1,0 0,0 2,-2 3,-4 2,2 6,4 8,3l-1 -3c2,-4 3,-6 1,-8 1,0 1,-1 2,-1 0,0 2,1 2,1 0,0 1,-1 1,-2l0 0 0 0c0,-1 0,-1 0,-2 1,1 3,1 5,-1 2,-2 0,-9 0,-12 0,0 0,-1 0,-2 1,-1 3,-1 3,-2 1,-1 0,-3 1,-4 0,0 -1,-1 -1,-1l-1 0c0,0 0,0 -1,-1 0,-1 -1,-3 -2,-4 0,0 0,1 0,1 0,-1 0,-2 -1,-3 0,0 0,0 0,0 1,-1 1,-2 1,-3 0,0 0,0 0,0l0 0c1,-1 1,-1 1,-2l0 0 3 1c1,-1 0,-4 -2,-6 1,0 2,0 2,0 0,0 0,0 0,0l0 0c1,1 1,1 2,2 0,1 1,2 2,2l0 -1c-1,-1 -3,-3 -4,-4 0,0 0,0 0,0 0,-1 0,-2 0,-3l-1 0 0 0c0,-1 -2,-1 -3,-2 2,0 3,-1 4,-3 1,0 1,1 2,1 0,0 1,0 1,0l0 0 1 0c0,0 0,0 0,0 1,2 1,6 2,8l-1 0 0 0 -1 4c0,0 -1,1 -1,1 0,1 -1,2 0,3 1,1 3,5 5,4 0,0 0,1 0,2l0 -1c1,1 1,1 1,2 1,0 2,0 2,0l0 0c1,0 1,-1 2,-1 0,0 0,0 0,0 1,1 1,2 2,2 0,0 0,0 0,1l1 -1 0 1c0,0 1,-1 1,-1l1 -1 1 0c0,1 1,2 1,3l0 0 -1 0 1 0c-1,1 -3,2 -4,3l1 5 1 0c0,0 1,-1 1,-1l0 0c2,1 5,-2 4,-5l1 -1c1,0 1,-1 2,-1 2,-3 4,-7 3,-10 0,0 1,-1 2,-1l1 1c0,0 1,0 1,0l-3 -10c2,0 3,2 5,0 0,-1 -1,-2 -1,-3l0 0c2,1 7,1 9,-1l0 0c1,-1 2,-1 3,-2 1,-2 2,-6 3,-9 1,0 2,-1 2,-2l2 0c2,2 7,1 8,0l-2 -2c0,-5 0,-7 -6,-7 0,0 -2,0 -2,0 -1,-1 -2,-5 -3,-5 0,0 0,0 -1,-1 0,0 0,0 0,0 0,0 1,0 1,0 1,0 2,-1 2,-1 0,-1 1,-1 1,-1 0,0 0,0 0,0l1 -1 0 0c1,-1 1,-1 2,-2 1,1 3,2 6,2 0,0 0,-1 0,-1 0,0 -2,-5 -3,-7 1,-1 2,-2 2,-3 0,-1 -1,-2 -1,-3 0,0 -1,0 -1,0l-1 0c0,0 -3,0 -6,1 0,-1 -1,-1 -1,-1 -4,0 -11,-2 -14,-6 1,-1 1,-1 1,-2 0,0 0,0 0,-1 1,1 3,1 3,1 0,1 1,2 2,3 1,0 4,0 4,-1 1,1 3,1 5,1 0,-1 1,-1 1,-1l0 -1c-1,-1 -2,-2 -2,-5 0,0 1,-1 2,-1 0,-1 -1,-2 -2,-3l0 0 0 0c-1,0 -2,0 -3,0 2,-2 3,-4 1,-8 -2,-3 -12,-4 -16,-5 -1,-1 -2,-2 -5,-2 0,0 0,0 0,0 -1,-1 -3,-2 -4,-2 1,-2 1,-4 -1,-7 -2,-5 -14,-6 -18,-7 -1,0 -1,0 -1,0 1,-1 2,-1 2,-2l0 0c-1,0 -3,0 -4,1 -1,0 -2,-1 -3,-1 -1,0 -1,0 -1,0 -1,-1 -1,-1 -1,-1 -1,0 -1,-1 -1,-1 0,-1 0,-1 0,-1 0,0 0,0 0,0 0,-1 1,-1 1,-1 2,0 3,0 5,0l0 0 0 1 5 3c0,1 0,1 0,2 1,0 3,2 5,1 1,0 7,-2 7,-4 1,0 2,0 2,0l0 -1c1,0 2,0 3,0 0,-1 0,-2 0,-2l0 -1c0,0 0,-1 0,-2 0,0 1,-1 1,-1 1,0 2,0 3,0 0,-1 0,-1 1,-1l0 -1 0 0c0,0 0,-2 -1,-2l0 -2 1 -1c1,0 2,0 3,0l1 0 0 1 0 -1c0,2 0,5 2,7l8 0 0 -1c-1,0 -1,-1 -1,-1l0 0c2,-3 0,-9 -4,-9l-2 -1c0,-1 0,-2 0,-3 -3,-4 -8,-9 -13,-9 0,-1 0,-2 0,-2l1 -2c0,-1 1,-2 1,-2l-9 1c0,-2 -1,-4 -3,-6 1,0 1,-1 0,-2 -1,0 -3,0 -4,0l-1 -1c0,-1 -1,-3 -1,-4 -3,-4 -9,-11 -15,-11 0,0 0,-1 0,-2l2 -2c0,-1 0,-2 0,-2l-17 1c0,-4 5,-6 3,-10 -8,0 -17,2 -25,1 1,0 2,0 3,-1 1,0 2,-1 2,-2 -5,0 -13,-1 -19,-1l-43 -3c0,-1 -8,0 -9,1l0 0 0 0c-1,1 -1,1 -1,2 -5,0 -10,0 -15,0 -6,1 -5,2 -3,2l-2 3c-3,0 -5,0 -6,0 -4,1 -9,0 -10,4 -5,1 -10,0 -14,2 -1,0 -1,2 -2,2 0,0 -1,0 -1,1l-23 1c-7,0 -14,1 -20,1 0,1 2,2 3,2 0,1 2,2 3,2 -8,0 -17,-1 -26,-1 -1,3 3,5 3,9l-16 -1c0,1 0,2 0,3l2 1c0,1 -1,2 -1,3 -6,0 -11,7 -15,11 0,1 0,3 0,4l-2 1c-1,0 -1,1 -2,1 -1,0 -1,-1 -2,-1l-2 -1c0,-1 0,-3 0,-4 -4,-4 -9,-11 -15,-11 0,-1 -1,-2 -1,-3l2 -1c0,-1 0,-2 0,-3l-16 1c0,-4 4,-6 3,-9 -9,0 -18,1 -26,1 1,0 3,-1 3,-2 1,0 3,-1 3,-2 -6,0 -13,-1 -20,-1l-23 -1c0,-1 -1,-1 -1,-1 -1,0 -1,-2 -2,-2 -4,-2 -9,-1 -14,-2 -1,-4 -6,-3 -10,-4 -1,0 -3,0 -6,0l-2 -3c2,0 3,-1 -3,-2 -5,0 -10,0 -15,0 0,-1 0,-1 -1,-2l0 0 0 0c-1,-1 -9,-2 -9,-1l-43 3c-6,0 -14,1 -19,1 0,1 1,2 2,2 1,1 2,1 3,1 -8,1 -17,-1 -25,-1 -2,4 3,6 3,10l-17 -1c0,0 0,1 0,2l2 2c0,1 0,2 0,2 -6,0 -12,7 -15,11 0,1 -1,3 -1,4l-1 1c-1,0 -3,0 -4,0 -1,1 -1,2 0,2 -2,2 -3,4 -3,6l-9 -1c0,0 1,1 1,2l1 2c0,0 0,1 0,2 -5,0 -10,5 -13,9 0,1 0,2 0,3l-2 1c-4,0 -6,6 -4,9l0 0c0,0 0,1 -1,1l0 1 8 0c2,-2 2,-5 2,-7l0 1 0 -1 1 0c1,0 2,0 3,0l1 1 0 2c-1,0 -1,2 -1,2l0 0 0 1c1,0 1,0 1,1 1,0 2,0 3,0 0,1 1,1 1,1 0,1 0,2 0,2l0 1c0,0 0,1 0,2 1,0 2,0 3,0l0 1c0,0 1,0 2,0 0,2 6,4 7,4 2,1 4,-1 5,-1 0,-1 0,-1 0,-2l5 -3 0 -1 0 0c2,0 3,0 5,0 0,0 1,0 1,1 0,0 0,0 0,0 0,0 0,0 0,1 0,0 0,1 -1,1 0,0 0,0 0,1 -1,0 -1,0 -2,0 -1,0 -2,1 -3,1 -1,-1 -3,-1 -4,-1l0 0c0,1 1,1 2,2 0,0 0,0 -1,0 -4,1 -16,2 -18,7 -2,3 -2,5 -1,7 -1,0 -3,1 -4,2 0,0 0,0 0,0 -2,0 -4,1 -5,2 -4,1 -14,2 -16,5 -2,4 -1,6 1,8 -1,0 -2,0 -3,0l0 0 0 0c-1,1 -2,2 -2,3 1,0 2,1 2,1 0,3 -1,4 -2,5l0 1c0,0 1,0 1,1 2,0 4,0 5,-1 0,1 3,1 4,1 1,-1 2,-2 2,-3 1,0 2,0 3,-1 0,1 0,1 0,1 0,1 0,1 1,2 -3,4 -10,6 -14,6 0,0 -1,0 -1,1 -3,-1 -6,-1 -6,-1l-1 0c0,0 -1,0 -1,0 0,1 -1,2 -1,3 0,1 1,2 2,3 -1,2 -3,7 -3,7 0,0 0,1 0,1 3,0 5,-1 6,-2 1,1 1,1 2,2l0 0 1 1c0,0 0,0 0,0 0,0 1,0 1,1 0,0 1,1 2,1 0,0 1,0 1,0 0,0 0,0 0,0 -1,1 -1,1 -1,1 -1,0 -2,4 -3,5 0,0 -2,0 -2,0 -6,0 -6,2 -6,7l-2 2c1,1 6,2 8,0l2 0c0,1 1,2 2,2 1,3 2,7 3,9 1,1 2,1 3,2l0 0c2,2 7,2 9,1l0 0zm295 -82c-4,-10 -10,-20 -15,-29 0,0 1,0 1,0 0,-1 1,-1 1,-1l0 -1 0 0c1,-1 0,-3 0,-3l0 -3 0 0c1,0 3,0 5,0l0 0 0 0 0 0c1,3 1,5 3,8l1 0 0 0 4 0 4 0 0 0 1 0c2,-3 2,-5 3,-8l0 0 0 0 0 0c2,0 4,0 5,0l0 0 0 3c0,0 -1,2 0,3l0 0 0 1c0,0 1,0 1,1 0,0 1,0 1,0 -5,9 -10,19 -15,29zm4 -37l-1 -1c1,0 1,0 2,0 0,0 0,0 0,0 -1,0 -1,1 -1,1zm-268 114l0 0 0 0c0,0 0,0 0,0zm-1 -1l0 0 0 0 0 0zm-1 -4c0,-1 0,-1 0,-2 0,-2 1,-3 1,-5 1,0 1,0 1,0 0,2 0,4 1,6 0,0 0,1 1,1 0,1 0,1 0,1l0 0c-1,0 -2,-1 -4,-1zm5 8c-2,1 -3,2 -4,3 0,0 0,0 0,0 1,1 3,-1 4,-2 0,0 0,0 0,-1zm15 48c0,0 0,0 0,-1 1,0 1,-2 2,-2 -1,-1 -1,-2 -2,-2 1,0 1,-2 1,-2l0 -1c2,1 3,3 3,6 -1,0 -2,1 -2,2 -1,0 -1,0 -2,0zm16 8c1,1 2,2 2,2 0,0 0,1 0,2 0,0 -1,1 -1,1 -1,-1 -1,-2 -2,-3 0,0 1,-1 1,-2zm18 2c1,-1 1,-1 2,-3 0,0 0,-1 0,-2 0,0 0,0 -1,0 0,1 0,1 0,2 0,1 -1,1 -1,2 1,-4 3,-7 2,-14 0,0 0,-1 0,-1 3,0 6,0 8,0 3,0 4,0 6,0 0,1 0,1 0,2 0,6 1,11 2,15 1,8 4,12 7,18 -4,-1 -8,-2 -12,-4 0,0 0,0 0,0l0 0c-4,-2 -8,-4 -10,-6 -2,-3 -3,-4 -3,-8 0,0 0,-1 0,-1zm-37 -40c-1,-1 -2,-2 -3,-4 1,1 3,0 4,-3 1,0 2,-1 2,-1 0,-1 1,-1 1,-2 0,0 0,0 0,0 1,0 3,0 4,0 -1,4 -5,8 -8,10zm7 23c0,0 0,0 0,0 -1,0 -1,-2 0,-3 0,1 0,1 0,2 0,0 0,1 0,1zm-40 -15c0,1 0,2 1,3 0,-1 -1,-1 -1,-2 0,0 0,0 0,-1zm181 32c1,0 1,0 2,0 3,0 6,-1 9,-2 0,1 0,1 0,1l1 0 0 1c1,0 5,-1 5,-1l4 -1 1 0c-6,5 -12,9 -18,13 0,0 1,0 2,0 3,0 5,-1 8,-1 0,0 1,0 1,0l0 1 0 0c1,0 5,0 5,-1l11 -3c-2,2 -4,4 -5,6l0 0 -1 0c-1,1 -2,2 -3,3l-14 16c-4,4 -8,7 -12,11 0,0 0,0 0,0l0 1c-1,0 -2,1 -2,1 -3,2 -8,4 -12,6 -3,2 -7,3 -10,5 -4,1 -8,1 -11,1 -3,1 -5,1 -7,1 -3,0 -3,0 -7,1 -1,0 -3,1 -4,2 -3,0 -5,1 -6,2l0 0 -1 0 0 0 0 0 0 0 0 0 0 0 0 0 0 0 0 0 0 0 0 0 0 0 0 0 0 0 0 0 0 0 0 0 0 0 0 0 0 0 0 0 0 0 0 0 0 0 0 0 0 0 0 0 0 0 0 0 0 0 0 0 0 0 0 0 0 0 0 0 0 0 0 0 0 0 0 0 0 0 0 0 0 0 0 0 0 0 0 0 0 0 0 0 0 0 0 0 0 0 0 0 0 0 0 0 0 0 0 0 0 0 0 0 0 0 0 0 0 0 0 0 0 0 0 0 0 0 0 0 0 0 0 0 0 0 0 0 0 0 0 0 0 0 0 0 0 0 0 0 0 0 0 0 0 0 0 0 0 0 0 0 0 0 0 0 0 0 0 -1c1,-4 2,-7 2,-10l0 0 0 0 0 0 0 0 0 0 0 0 0 0 0 0 0 -1 0 0 0 0 0 0 0 0 0 0 0 0 1 0 0 0 0 0 0 0 0 0 0 0 0 0 0 0 0 0 0 0 0 0 0 0 0 0 0 0 0 -1 0 0 0 0 0 0 0 0 0 0 0 0 0 0 0 0 0 0 0 0 0 0 0 0 0 0 0 0 0 0 0 0 0 0 0 0 1 0 0 0 0 0 0 0 0 -1 0 0 0 0 0 0 0 0 0 0 0 0 0 0 0 0 0 0 0 0 0 0 0 0 0 0 0 0 0 0 0 0 0 0 0 0 0 0 0 0 0 0 0 0 0 -1 0 0 0 0 0 0 0 0 0 0 0 0 1 0 0 0 0 0 0 0 0 0 0 0 0 0 0 0 0 0 0 0 0 0 0 0 0 0 0 0 0 -1 0 0 0 0 0 0 0 0 0 0 0 0 0 0 0 0 0 0 0 0 0 0 0 0 0 0 1 0 0 0 0 -1 0 0 0 0c5,-3 15,-11 17,-13 5,0 18,0 22,-3 1,-1 4,-7 4,-7 -6,0 -8,4 -17,4 -1,-1 -3,-1 -3,-3 0,-1 12,-10 14,-11l6 -2c7,-3 10,-4 9,-8 -3,0 -11,3 -13,4 -11,4 -23,17 -31,18 0,0 0,0 0,0 0,-1 0,-2 0,-3 0,-3 0,-7 1,-11 1,-3 2,-9 2,-12 1,-2 1,-5 1,-8 2,0 4,0 5,-2l3 -1c1,1 2,1 3,2 4,-1 9,-2 13,-4 2,1 4,2 5,2 2,0 7,3 10,3 1,1 4,2 4,2l11 2c-3,2 -5,3 -8,5zm43 -38c0,0 -1,0 -1,0 0,0 -1,1 0,1l-1 0c0,0 -1,-1 -2,-1 0,1 -1,1 -1,1 1,0 1,0 1,1 0,0 -1,0 -1,0 -1,1 -2,3 -3,4l0 0c-1,0 -1,0 -1,0l0 1c0,0 0,1 -1,1 0,0 0,-1 -1,-1 0,0 0,0 -1,1 1,0 1,0 1,0 0,0 -1,0 -1,0 -4,2 -8,3 -11,4 -2,-1 -4,-2 -4,-3 -2,-1 -3,1 -4,0 -1,-1 -3,-4 -4,-5 2,-3 3,-7 5,-9 0,0 -1,2 0,3 0,0 0,2 1,3 2,-4 4,-7 7,-11 1,0 1,0 2,1 2,1 5,3 7,4 2,1 6,2 6,1 0,-1 -4,-2 -6,-3 -2,-1 -3,-3 -5,-4 -1,0 -2,-1 -3,-1 1,-1 2,-2 2,-3l1 -2c1,1 1,2 2,2 2,3 4,2 5,1 1,-1 0,-5 2,-7 1,0 2,-1 2,-1 1,0 2,0 2,0 0,3 1,5 1,8 1,3 2,7 3,10l-1 0c0,1 1,1 1,1 0,1 1,2 1,3zm-3 -1c0,0 1,0 1,0 0,0 0,0 -1,-1 0,0 0,1 0,1zm-51 25c0,0 -1,0 -1,0l1 -2c0,0 0,0 0,0 0,1 0,1 1,1l-1 1 0 0zm-3 0c0,0 -1,0 -2,0 -2,0 -3,-1 -4,-1 1,-1 2,-2 2,-3 1,0 2,0 3,1l0 2c1,0 1,1 1,1zm31 -11c-5,2 -10,3 -15,4 1,-3 3,-7 4,-10 1,2 3,3 5,4 2,1 3,1 5,2 1,0 1,0 1,0zm-16 4c-4,0 -7,1 -10,1l4 -8c3,2 3,6 6,7zm-65 -25c-2,0 -3,0 -4,0 -2,1 -4,2 -4,2 -1,1 -1,1 -1,1 -2,2 -4,3 -5,4 -1,1 -1,2 -2,3 0,2 1,4 1,6 4,-3 7,-7 12,-9 0,-1 0,-2 0,-3 1,-2 2,-3 3,-4zm-38 -8l0 0c-3,1 -5,2 -7,3 1,0 3,0 3,0 1,1 3,-1 4,-3zm-45 -26c-1,-1 -2,-2 -3,-3l-1 3c0,1 1,2 1,3 1,-1 2,-2 3,-2 0,0 0,-1 0,-1zm-55 22c-1,0 -2,-1 -3,-2 -1,-1 -2,-4 -2,-6 1,0 2,-1 3,-2 2,1 3,2 4,4 -1,1 -1,2 -1,5l-1 1zm6 -46c1,-1 1,-2 2,-2 0,0 0,-1 0,-1 0,0 0,1 0,1 0,0 0,1 0,1 -1,0 -1,1 -2,1zm3 -63c-1,1 -3,1 -3,3 0,-1 1,-2 3,-2 0,-1 0,-1 0,-1zm37 94c-2,2 -4,4 -5,6 0,-1 0,-1 0,-1 -1,-2 -1,-3 0,-5 2,1 4,0 5,0zm18 26c1,-2 1,-3 1,-3 0,0 0,0 0,0 0,0 0,0 0,0 0,0 1,0 1,0 0,0 0,0 0,1 0,0 0,0 -1,0 0,1 0,1 -1,2zm-24 -30l0 0 0 0c0,0 1,0 1,0 0,0 0,0 0,1l0 0c-1,0 -1,-1 -1,-1zm258 -99c1,0 1,0 2,0l-1 1c0,0 0,-1 -1,-1 0,0 0,0 0,0zm-149 160l3 -4c1,0 3,0 5,0 1,0 3,-1 5,-1 0,-1 0,-2 1,-2l0 -1 -3 -1c0,0 -2,0 -2,-1l0 0 -1 0c0,-1 0,-2 0,-2 0,-1 0,-2 1,-3 0,-1 -1,-1 0,-2 -1,0 -3,0 -3,-1l-1 0c0,0 -1,-1 -1,-1 -3,-1 -7,-1 -10,-1l-1 0c0,2 -1,3 0,6 2,4 5,9 7,14zm9 1c0,0 0,1 0,1 0,0 1,-1 2,-2 0,1 0,1 -1,0 0,1 0,1 -1,1zm-52 -11c0,0 0,1 0,2 0,1 0,2 1,3 -1,0 -2,0 -4,0 -3,1 -7,1 -11,1 -2,-4 -3,-9 -5,-13 1,0 1,0 1,0l1 1c2,0 4,-1 6,1 0,0 0,2 0,3 1,0 3,0 4,0l0 -1 0 0c1,0 2,-1 2,-3 1,3 2,5 5,6zm-19 -8c-1,-3 -1,-5 -2,-7 4,-5 11,-10 16,-7l-1 1c0,0 -3,2 -3,3 -1,0 -3,0 -4,1 0,0 -3,3 -1,4 -2,1 -3,3 -5,5zm38 8c3,-2 5,-5 8,-7 0,0 1,0 1,0 -1,4 -1,9 -1,12 -1,5 -1,8 -2,11 -2,-5 -4,-8 -5,-13 -1,-1 -1,-2 -1,-3zm-78 -52c0,1 0,2 1,2 -2,0 -4,1 -6,1l0 -1c1,0 1,-1 1,-1 1,0 3,0 4,0l0 -1 0 0 0 0zm406 33c2,0 4,0 6,0 1,1 2,2 3,3 0,0 0,1 1,1 -4,0 -8,0 -11,1 0,-1 0,-1 0,-1 1,-1 1,-2 1,-4zm141 -29c1,2 1,4 2,6 0,0 1,1 2,1 2,0 4,0 5,0 0,0 1,-1 1,-2 1,0 2,0 3,0 -1,0 -1,0 -2,0 -1,-1 -4,0 -6,0 -1,0 -1,0 -1,-1 -1,1 -1,1 -1,1 0,-1 -1,-3 -1,-4 -1,0 -1,-1 -2,-1zm-27 13l0 0 0 0c0,0 0,0 0,0zm1 -1l0 0 0 0 0 0zm1 -4c0,-1 0,-1 1,-2 -1,-2 -2,-3 -2,-5 -1,0 -1,0 -1,0 0,2 0,4 -1,6 0,0 0,1 -1,1 0,1 0,1 0,1l0 0c1,0 3,-1 4,-1zm-5 8c2,1 3,2 4,3 0,0 0,0 0,0 -1,1 -3,-1 -4,-2 0,0 0,0 0,-1zm-15 48c0,0 0,0 0,-1 -1,0 -1,-2 -2,-2 1,-1 1,-2 2,-2 -1,0 -1,-2 -1,-2l0 -1c-2,1 -3,3 -3,6 1,0 2,1 2,2 1,0 1,0 2,0zm-16 8c-1,1 -2,2 -2,2 0,0 0,1 0,2 0,0 1,1 1,1 1,-1 1,-2 2,-3 0,0 -1,-1 -1,-2zm-18 2c-1,-1 -1,-1 -2,-3 0,0 0,-1 0,-2 0,0 0,0 1,0 0,1 0,1 0,2 0,1 1,1 1,2 -1,-4 -3,-7 -2,-14 0,0 0,0 0,-1 -3,0 -6,0 -8,0 -3,0 -4,0 -6,0 0,1 0,1 0,2 0,6 -1,11 -2,15 -1,8 -4,12 -7,18 4,-1 8,-2 12,-4 0,0 0,0 0,0l0 0c4,-2 8,-4 10,-6 2,-3 3,-4 3,-8 0,0 0,-1 0,-1zm37 -40c1,-1 2,-2 3,-4 -1,1 -3,0 -4,-3 -1,0 -2,-1 -2,-1 0,-1 0,-1 -1,-2 0,0 0,0 0,0 -1,0 -3,0 -4,0 1,4 5,8 8,10zm-7 23c0,0 0,0 0,0 1,0 1,-2 0,-3 0,1 0,1 0,2 0,0 0,1 0,1zm40 -15c0,1 0,2 -1,3 0,-1 1,-1 1,-2 0,0 0,0 0,-1zm-181 32c-1,0 -1,0 -2,0 -3,0 -6,-1 -9,-2 0,1 0,1 0,1l-1 0 0 1c-1,0 -5,-1 -5,-1l-4 -1 -1 0c6,5 12,9 18,13 0,0 -1,0 -2,0 -3,0 -5,-1 -8,-1 0,0 -1,0 -1,0l0 1 0 0c-1,0 -5,0 -5,-1l-11 -3c2,2 4,4 5,6l0 0 1 0c1,1 2,2 3,3l14 16c4,4 8,7 12,11 0,0 0,0 0,0l0 1c1,0 2,1 2,1 3,2 8,4 12,6 3,2 7,3 10,5 4,1 8,1 11,1 3,1 5,1 7,1 3,0 4,0 7,1 1,0 3,1 4,2 3,0 5,1 6,2l1 0 0 0 0 0 0 0 0 0 0 0 0 0 0 0 0 0 0 0 0 0 0 0 0 0 0 0 0 0 0 0 0 0 0 0 0 0 0 0 0 0 0 0 0 0 0 0 0 0 0 0 0 0 0 0 0 0 0 0 0 0 0 0 0 0 0 0 0 0 0 0 0 0 0 0 0 0 0 0 0 0 0 0 0 0 0 0 0 0 0 0 0 0 0 0 0 0 0 0 0 0 0 0 0 0 0 0 0 0 0 0 0 0 0 0 0 0 0 0 0 0 0 0 0 0 0 0 0 0 0 0 0 0 0 0 0 0 0 0 0 0 0 0 0 0 0 0 0 0 0 0 0 0 0 0 0 0 0 0 0 0 0 0 0 0 0 0 0 0 0 -1c-1,-4 -2,-7 -2,-10l0 0 0 0 0 0 0 0 0 0 0 0 0 0 0 0 0 -1 0 0 0 0 0 0 0 0 0 0 0 0 -1 0 0 0 0 0 0 0 0 0 0 0 0 0 0 0 0 0 0 0 0 0 0 0 0 0 0 0 0 -1 0 0 0 0 0 0 0 0 0 0 0 0 0 0 0 0 0 0 0 0 0 0 0 0 0 0 0 0 0 0 0 0 0 0 0 0 -1 0 0 0 0 0 0 0 0 -1 0 0 0 0 0 0 0 0 0 0 0 0 0 0 0 0 0 0 0 0 0 0 0 0 0 0 0 0 0 0 0 0 0 0 0 0 0 0 0 0 0 0 0 0 0 -1 0 0 0 0 0 0 0 0 0 0 0 0 0 0 -1 0 0 0 0 0 0 0 0 0 0 0 0 0 0 0 0 0 0 0 0 0 0 0 0 0 0 -1 0 0 0 0 0 0 0 0 0 0 0 0 0 0 0 0 0 0 0 0 0 0 0 0 0 0 -1 0 0 0 0 -1 0 0 0 0c-5,-3 -15,-11 -17,-13 -5,0 -18,0 -22,-3 -1,-1 -4,-7 -4,-7 6,0 8,4 17,4 1,-1 3,-1 3,-3 0,-1 -12,-10 -14,-11l-6 -2c-7,-3 -10,-4 -9,-8 3,0 11,3 13,4 11,4 23,17 31,18 0,0 0,0 0,0 0,-1 0,-2 0,-3 0,-3 0,-7 -1,-11 -1,-3 -2,-9 -2,-12 -1,-2 -1,-5 -1,-8 -2,0 -4,0 -5,-2l-3 -1c-1,1 -2,1 -3,2 -4,-1 -9,-2 -13,-4 -2,1 -4,2 -5,2 -2,0 -7,3 -10,3 -1,1 -4,2 -4,2l-11 2c3,2 5,3 8,5zm-43 -38c0,0 1,0 1,0 0,0 1,1 0,1l1 0c0,0 1,-1 2,-1 0,1 1,1 1,1 -1,0 -1,0 -1,1 0,0 1,0 1,0 1,1 2,3 3,4l0 0c1,0 1,0 1,0l0 1c0,0 0,1 1,1 0,0 0,-1 1,-1 0,0 0,0 1,1 -1,0 -1,0 -1,0 0,0 1,0 2,0 3,2 7,3 11,4 1,-1 3,-2 3,-3 2,-1 3,1 4,0 1,-1 3,-4 4,-5 -2,-3 -3,-7 -5,-9 0,0 1,2 0,3 0,0 0,2 -1,3 -2,-4 -4,-7 -7,-11 -1,0 -1,0 -2,1 -2,1 -5,3 -7,4 -2,1 -6,2 -6,1 0,-1 4,-2 6,-3 2,-1 3,-3 5,-4 1,0 2,-1 3,-1 -1,-1 -2,-2 -2,-3l-1 -2c-1,1 -1,2 -2,2 -2,3 -4,2 -5,1 -1,-1 0,-5 -2,-7 -1,0 -2,-1 -2,-1 -1,0 -2,0 -2,0 0,3 -1,5 -1,8 -1,3 -2,7 -3,10l1 0c0,1 -1,1 -1,1 0,1 -1,2 -1,3zm3 -1c0,0 -1,0 -1,0 0,0 0,0 1,-1 0,0 0,1 0,1zm51 25c0,0 1,0 1,0l-1 -2c0,0 0,0 0,0 0,1 0,1 -1,1l1 1 0 0zm3 0c0,0 1,0 2,0 2,0 3,-1 4,-1 -1,-1 -2,-2 -2,-3 -1,0 -2,0 -3,1l0 2c-1,0 -1,1 -1,1zm-31 -11c5,2 10,3 15,4 -1,-3 -3,-7 -4,-10 -1,2 -3,3 -5,4 -2,1 -3,1 -5,2 -1,0 -1,0 -1,0zm16 4c4,0 7,1 10,1l-4 -8c-3,2 -3,6 -6,7zm65 -25c2,0 3,0 4,0 2,1 4,2 4,2 1,1 1,1 1,1 2,2 4,3 5,4 1,1 1,2 2,3 0,2 -1,4 -1,6 -4,-3 -7,-7 -12,-9 0,-1 0,-2 0,-3 -1,-2 -2,-3 -3,-4zm38 -8l0 0c3,1 5,2 7,3 -1,0 -2,0 -3,0 -1,1 -3,-1 -4,-3zm45 -26c1,-1 2,-2 3,-3l1 3c0,1 -1,2 -1,3 -1,-1 -2,-2 -3,-2 0,0 0,-1 0,-1zm55 22c1,0 2,-1 3,-2 1,-1 2,-4 2,-6 -1,0 -2,-1 -3,-2 -2,1 -3,2 -4,4 1,1 1,2 1,5l1 1zm-6 -46c-1,-1 -1,-2 -2,-2 0,0 0,-1 0,-1 0,0 0,1 0,1 0,0 0,1 0,1 1,0 1,1 2,1zm-3 -63c1,1 3,1 3,3 0,-1 -1,-2 -3,-2 0,-1 0,-1 0,-1zm-37 94c2,2 4,4 5,6 0,-1 0,-1 0,-1 1,-2 1,-3 0,-5 -2,1 -4,0 -5,0zm-18 26c-1,-2 -1,-3 -1,-3 0,0 0,0 0,0 0,0 0,0 0,0 0,0 -1,0 -1,0 0,0 0,0 0,1 0,0 0,0 1,0 0,1 0,1 1,2zm24 -30l0 0 0 0c0,0 -1,0 -1,0 0,0 0,0 0,1l0 0c1,0 1,-1 1,-1zm-109 61l-3 -4c-1,0 -3,0 -5,0 -1,0 -3,-1 -5,-1 0,-1 0,-2 -1,-2l0 -1 3 -1c0,0 2,0 2,-1l0 0 1 0c0,-1 0,-1 0,-2 0,-1 0,-2 -1,-3 0,-1 1,-1 1,-2 0,0 2,0 2,-1l1 0c0,0 1,-1 1,-1 3,-1 7,-1 10,-1l1 0c0,2 1,3 0,6 -2,4 -5,9 -7,14zm-9 1c0,0 0,1 0,1 0,0 -1,-1 -2,-1 0,0 0,0 1,-1 0,1 0,1 1,1zm52 -11c0,0 0,1 0,2 0,1 0,2 -1,3 1,0 2,0 4,0 3,1 7,1 11,1 2,-4 3,-9 5,-13 -1,0 -1,0 -1,0l-1 1c-2,0 -4,-1 -6,1 0,0 0,2 0,3 -1,0 -3,0 -4,0l0 -1 0 0c-1,0 -1,-1 -2,-3 -1,3 -2,5 -5,6zm19 -8c1,-3 1,-5 2,-7 -4,-5 -11,-10 -15,-7l0 1c0,0 3,2 3,3 1,0 3,0 4,1 0,0 3,3 1,4 2,1 3,3 5,5zm-38 8c-3,-2 -5,-5 -8,-7 0,0 -1,0 -1,0 1,4 1,9 1,12 1,5 1,8 2,11 2,-5 4,-8 5,-13 1,-1 1,-2 1,-3zm78 -52c0,1 0,2 -1,2 2,0 4,1 6,1l0 -1c-1,0 -1,-1 -1,-1 -1,0 -3,0 -3,0l0 -1 -1 0 0 0zm227 88c-1,0 -3,0 -4,0 -1,0 -1,1 -2,1 0,1 0,1 0,1 2,0 5,1 7,1 0,0 0,-1 0,-1 -1,0 -1,-1 -1,-2zm-97 -20c0,1 -1,2 -1,4 -1,0 -1,0 -1,0 -2,0 -3,0 -4,1 0,-1 -1,-1 -1,-2 -1,0 -1,0 -2,0 1,0 1,0 1,0 1,0 3,0 5,0 0,0 0,0 1,0 0,0 0,0 0,0 0,-1 1,-2 1,-3 0,0 1,0 1,0zm78 128c-1,-2 -1,-4 -1,-6 0,-2 1,-4 2,-6l1 -2c5,-4 10,-5 15,-7 -2,2 -4,5 -6,7 0,1 0,2 -1,2l0 0 0 0c-3,4 -7,8 -10,12zm91 -67l1 -2 12 -3c3,0 5,-1 8,-2 0,0 -1,0 -1,0 -1,-1 -1,-1 -2,-1 3,-1 7,-1 10,-1 0,-2 -1,-2 -2,-4l7 -1c0,0 0,0 0,0l-1 -1c0,0 0,-1 0,-1 2,0 4,-4 5,-5 0,-1 0,-2 0,-2l0 -1c2,0 3,-3 2,-4l0 0c0,0 0,-1 0,-1l0 0 -4 0c0,2 0,3 0,4l0 0 0 0 -1 0c0,0 -1,0 -1,0l-1 0 0 -1c0,0 0,0 0,0l1 0c0,-1 -1,-1 -1,-1l0 -1c-1,0 0,-1 0,-1 0,0 1,-1 2,-1l2 1 -2 -2c1,-1 2,-2 3,-3 0,0 0,0 0,-1 2,0 4,1 4,2 1,0 3,2 3,3 1,0 2,0 3,0 0,-7 0,-14 -1,-20 2,0 4,0 5,-1l-2 -2c0,-4 0,-5 -3,-5 1,-1 1,-2 1,-3 -1,0 -2,0 -2,0 -1,-1 -1,-3 -1,-5l0 0 0 0c0,-1 1,-1 1,-2 1,1 3,2 5,2 0,0 1,-1 1,-1 -1,0 -2,-3 -3,-5 1,0 2,0 2,0l12 2c-3,2 -6,4 -8,6 0,0 1,0 2,0 3,-1 6,-1 9,-2 0,0 0,1 1,1l0 0 0 0c1,1 6,0 6,0l4 -2 1 1c-6,5 -13,10 -20,14 1,0 1,0 2,0 4,0 7,-1 10,-2 0,1 0,1 1,1l0 0 0 1c1,0 6,-1 5,-1l12 -3c-2,2 -4,4 -6,6l0 0 0 1c-1,1 -2,2 -3,3l-16 17c-4,4 -9,8 -13,12 0,0 0,0 0,0l-1 1c0,0 -1,1 -2,1 -3,2 -8,5 -13,7 -3,2 -7,4 -11,5 -4,1 -8,2 -12,2 -3,0 -5,0 -7,0 -2,1 -3,1 -3,1zm40 -80l0 -1 1 -1c0,0 0,0 1,1 -1,0 -1,0 0,1l0 0 0 0 -2 0zm-197 -62c-1,0 -1,1 -1,2l0 0 -3 0c0,0 1,-1 1,-1 0,0 0,1 1,1 0,-2 0,-3 1,-5 1,0 1,0 2,0 -1,1 -1,2 -1,3zm-7 2c0,0 0,1 0,1l1 1c-1,0 -2,0 -3,0 0,0 -1,-1 -1,-2 -1,0 -2,0 -3,0 0,0 1,0 1,-1 2,0 3,1 5,1zm-4 6c-1,1 -2,2 -3,4 0,0 -1,0 -1,1 0,-1 0,-1 0,-1 -2,-2 -2,-4 -3,-7 2,0 3,-1 4,-2 1,1 2,3 4,4l-1 1zm18 82l0 -1 0 1c0,0 0,0 0,0zm-1 -1l0 0 0 0 0 0zm0 -3c-1,0 -1,-1 -1,-1 0,-1 1,-3 1,-4 0,0 1,0 1,1 0,1 0,2 0,3 0,1 1,1 1,1 0,1 0,1 0,1l0 0c-1,0 -2,0 -2,-1zm2 6c0,0 -1,1 -2,1 0,1 0,1 0,1 1,0 2,-1 3,-1 0,-1 0,-1 -1,-1zm11 33c0,0 0,-1 0,-1 1,0 1,-1 1,-1 0,-1 0,-1 -1,-2 0,0 1,-1 0,-1l1 -1c1,1 2,2 2,4 -1,0 -1,1 -2,1 0,1 0,1 -1,1zm11 6c1,0 1,0 1,0 0,1 0,2 0,2 0,0 0,0 0,1 -1,-1 -1,-2 -2,-2 1,-1 1,-1 1,-1zm12 1c1,-1 1,-1 2,-2 0,-1 0,-1 0,-1 0,-1 0,-1 -1,-1 0,1 0,1 0,1 0,1 0,1 -1,2 1,-2 2,-5 2,-9 0,-1 0,-1 -1,-1 3,0 5,0 6,0 2,0 3,0 4,-1 0,1 0,2 1,2 0,4 0,8 1,11 1,5 3,8 4,12 -2,-1 -5,-2 -7,-3 -1,0 -1,0 -1,0l0 0c-2,-1 -5,-3 -6,-4 -2,-2 -2,-3 -3,-6 0,0 0,0 0,0zm-25 -28c-1,-1 -2,-1 -2,-2 1,0 2,-1 3,-3 0,0 1,0 1,0 0,-1 0,-1 0,-2 1,0 1,0 1,0 0,0 2,0 3,0 -1,3 -4,6 -6,7zm5 16c0,0 0,0 0,0 -1,0 -1,-1 0,-2 0,0 0,1 0,1 0,0 0,1 0,1zm-28 -10c0,1 0,1 1,2 0,-1 -1,-1 -1,-2 0,0 0,0 0,0zm99 61l-1 0c-2,0 -3,0 -4,0 -3,1 -3,1 -5,1 -1,1 -2,1 -4,1 -1,1 -3,1 -4,2l0 0 0 0 0 0 0 0 0 0 0 0 0 0 0 0 0 0 0 0 0 0 0 0 0 0 0 0 0 0 0 0 0 0 0 0 0 0 0 0 0 0 0 0 0 0 0 0 0 0 0 0 0 0 0 0 0 0 0 0 0 0 0 0 0 0 0 0 0 0 0 0 0 0 0 0 0 0 0 0 0 0 0 0 0 0 0 0 0 0 0 0 0 0 0 0 0 0 0 0 0 0 0 0 0 0 0 0 0 0 0 0 0 0 0 0 0 0 0 0 0 0 0 0 0 0 0 0 0 0 0 0 0 0 0 0 0 0 0 0 0 0 0 0 0 0 0 0 0 0 0 0 0 0 0 0 0 0 0 0 0 0 0 0 0 0 0 0 0 0 0 -1c0,-2 1,-4 1,-7l0 0 0 0 0 0 0 0 0 0 0 0 0 0 0 0 0 0 0 0 0 0 0 0 0 0 0 0 1 0 0 0 0 0 0 0 0 0 0 0 0 0 0 0 0 0 0 0 0 0 0 0 0 0 0 -1 0 0 0 0 0 0 0 0 0 0 0 0 0 0 0 0 0 0 0 0 0 0 0 0 0 0 0 0 0 0 0 0 0 0 0 0 0 0 0 0 0 0 0 0 0 0 0 0 0 0 0 0 0 0 0 0 0 0 0 0 0 0 0 -1 0 0 0 0 1 0 0 0 0 0 0 0 0 0 0 0 0 0 0 0 0 0 0 0 0 0 0 0 0 0 0 0 0 0 0 0 0 0 0 0 0 0 0 0 0 0 0 0 0 0 0 0 0 0 0 0 0 0 0 0 0 0 0 0 0 -1 0 0 0 0 0 0 0 0 0 0 0 0 0 0 0 0 0 0 0 0 0 0 0 0 0 0 0 0 1 0 0 0 0 0 0 0 0 0 0 0 0 0 0 0c4,-3 10,-8 12,-9 2,0 7,-1 11,-2l0 1c-2,5 -5,11 -9,17zm10 -22c-1,0 -3,1 -6,1 -1,-1 -2,0 -2,-2 0,-1 8,-7 10,-7l0 0c-1,2 -1,5 -2,8zm2 -13c-7,3 -15,12 -20,13 0,0 0,0 0,0 0,-1 0,-1 -1,-2 1,-2 1,-5 1,-8 1,-2 2,-6 2,-8 0,-2 0,-4 0,-5 2,0 3,-1 4,-2l1 -1c1,1 2,1 3,1 2,0 6,-1 8,-2l1 0c1,1 1,2 1,2 1,4 0,8 0,12zm88 -19c0,0 1,-1 1,-1 0,0 -1,1 -1,1 0,0 0,0 0,0zm-118 -17c-1,0 -2,0 -3,0 -1,0 -2,1 -3,2 0,0 0,0 -1,0 -1,1 -2,2 -3,3 0,0 -1,1 -1,2 0,1 0,3 1,4 2,-2 4,-4 7,-6 1,-1 1,-1 1,-2 0,-2 1,-2 2,-3zm-27 -6l0 0c-1,1 -3,2 -4,3 1,0 2,0 2,0 1,0 2,-1 2,-3zm-30 -17c-1,-1 -2,-2 -2,-3l-1 2c0,1 0,2 1,2 0,0 1,-1 1,-1 1,0 1,0 1,0zm-38 15c-1,0 -1,-1 -2,-1 -1,-1 -1,-3 -2,-5 1,0 2,-1 3,-1 0,1 1,2 2,2 0,1 0,2 0,4l-1 1zm4 -32c1,-1 1,-1 1,-1 0,-1 0,-1 0,-1 0,0 0,0 1,0 -1,1 -1,1 -1,1 0,1 -1,1 -1,1zm2 -43c-1,0 -2,1 -2,1 0,0 1,-1 2,-1 0,0 0,0 0,0zm26 65c-2,1 -3,2 -4,3 0,0 0,0 0,0 0,-2 0,-2 0,-3 1,0 2,0 4,0zm12 17c0,-1 0,-2 0,-2 0,0 0,0 0,0 0,0 1,0 1,0 0,0 0,0 0,0 0,0 0,1 0,1 0,0 0,0 0,0 0,0 -1,1 -1,1zm-17 -20l0 -1 0 0c0,0 1,0 1,0 0,1 0,1 0,1l0 0c-1,0 -1,0 -1,0zm76 41l1 -2c1,0 3,0 4,0 0,0 2,0 3,-1 0,0 1,-1 1,-1l0 -1 -2 -1c0,1 -2,0 -2,0l0 0 0 -1c0,0 0,0 0,0 0,-1 0,-2 0,-3 0,0 0,0 0,-1 0,0 -1,0 -2,0l0 -1c0,0 -1,0 -1,-1 -2,0 -5,0 -7,0l0 0c0,1 -1,2 0,4 1,3 3,6 5,9zm6 1c0,1 -1,1 -1,1 1,0 1,-1 2,-1 0,0 0,0 -1,0 0,0 0,0 0,0zm-36 -8c0,1 0,2 0,2 0,1 0,1 0,2 0,0 -1,0 -2,0 -2,1 -5,1 -8,1 -1,-3 -2,-6 -3,-9 0,0 0,0 0,0l1 0c1,1 3,0 4,1 0,0 0,2 0,2 1,1 2,0 3,0l0 0 0 0c0,-1 1,-1 1,-2 1,2 2,3 4,3zm-13 -5c-1,-2 -1,-3 -2,-5 3,-3 8,-6 11,-4l0 0c-1,0 -2,2 -3,2 0,0 -1,0 -2,1 0,0 -2,2 -1,3 -1,1 -2,2 -3,3zm26 6c2,-2 4,-4 5,-5 1,0 1,0 1,0 0,3 -1,6 -1,8 0,4 -1,5 -1,8 -1,-4 -3,-6 -4,-9 0,-1 0,-1 0,-2zm-54 -36c0,1 0,1 1,2 -2,0 -3,0 -4,0l0 -1c0,0 0,0 0,0 1,0 2,0 3,-1l0 0 0 0 0 0zm245 -42c0,0 0,0 -1,0 0,0 0,1 0,1l0 0c-1,0 -2,-1 -3,-1 0,1 -1,1 -1,1 1,0 1,0 1,1 0,0 -1,0 -1,0 -1,2 -3,3 -4,5l0 0c0,0 0,0 0,0l0 0c0,1 -1,1 -1,2 0,-1 -1,-1 -1,-1 -1,0 -1,0 -1,0 0,1 0,1 1,1 -1,0 -2,0 -2,0 -4,1 -8,3 -12,4 -2,-1 -4,-2 -5,-3 -2,-1 -2,1 -4,0 -1,-1 -3,-4 -4,-6 2,-3 4,-7 6,-10 -1,1 -1,3 -1,3 0,1 0,3 1,4 2,-4 5,-8 8,-12 1,0 2,0 3,1 2,1 5,4 7,5 3,0 6,1 7,0 0,-1 -5,-2 -7,-3 -2,-1 -3,-3 -5,-4 -1,-1 -2,-1 -3,-1 0,-1 1,-3 2,-4l1 -2c1,1 1,2 1,3 3,3 5,1 6,0 1,0 0,-5 2,-7 1,-1 2,-1 3,-2 1,0 2,0 2,0 1,3 1,7 1,10 1,3 2,7 3,10l0 1c0,0 0,0 0,0 1,2 1,3 1,4zm-3 -2c1,1 1,1 2,1 0,0 -1,-1 -2,-1 0,0 0,0 0,0zm-25 16c-6,2 -11,3 -17,4 2,-3 4,-7 5,-10 1,1 3,2 5,4 2,1 4,1 6,2 0,0 1,0 1,0zm-18 4c-4,1 -7,1 -11,2l4 -9c4,2 3,6 7,7zm-216 -91c0,-1 1,-2 1,-2 0,0 0,-1 0,-1 0,0 1,0 1,1 0,0 -1,1 -1,1 0,0 -1,1 -1,1zm2 -69c-1,0 -2,1 -3,3 1,-1 2,-2 3,-3 0,0 0,0 0,0zm573 327l-232 0 0 -30 18 0 0 -29 17 0 0 -30 18 0 0 -29 17 0 0 -29 93 0 0 29 17 0 0 29 18 0 0 30 17 0 0 29 17 0 0 30zm-266 -593l11 0c1,0 3,1 3,2l0 17c0,1 -2,3 -3,3l-11 0c-1,0 -2,-2 -2,-3l0 -17c0,-1 1,-2 2,-2zm262 0l11 0c1,0 2,1 2,2l0 17c0,1 -1,3 -2,3l-11 0c-1,0 -2,-2 -2,-3l0 -17c0,-1 1,-2 2,-2zm-22 0l11 0c1,0 3,1 3,2l0 17c0,1 -2,3 -3,3l-11 0c-1,0 -2,-2 -2,-3l0 -17c0,-1 1,-2 2,-2zm-21 0l10 0c2,0 3,1 3,2l0 17c0,1 -1,3 -3,3l-10 0c-2,0 -3,-2 -3,-3l0 -17c0,-1 1,-2 3,-2zm-22 0l10 0c2,0 3,1 3,2l0 17c0,1 -1,3 -3,3l-10 0c-2,0 -3,-2 -3,-3l0 -17c0,-1 1,-2 3,-2zm-22 0l11 0c1,0 2,1 2,2l0 17c0,1 -1,3 -2,3l-11 0c-1,0 -3,-2 -3,-3l0 -17c0,-1 2,-2 3,-2zm-22 0l11 0c1,0 2,1 2,2l0 17c0,1 -1,3 -2,3l-11 0c-1,0 -2,-2 -2,-3l0 -17c0,-1 1,-2 2,-2zm-22 0l11 0c1,0 2,1 2,2l0 17c0,1 -1,3 -2,3l-11 0c-1,0 -2,-2 -2,-3l0 -17c0,-1 1,-2 2,-2zm-22 0l11 0c2,0 3,1 3,2l0 17c0,1 -1,3 -3,3l-11 0c-1,0 -2,-2 -2,-3l0 -17c0,-1 1,-2 2,-2zm-21 0l10 0c2,0 3,1 3,2l0 17c0,1 -1,3 -3,3l-10 0c-2,0 -3,-2 -3,-3l0 -17c0,-1 1,-2 3,-2zm-22 0l11 0c1,0 2,1 2,2l0 17c0,1 -1,3 -2,3l-11 0c-2,0 -3,-2 -3,-3l0 -17c0,-1 1,-2 3,-2zm-22 0l11 0c1,0 2,1 2,2l0 17c0,1 -1,3 -2,3l-11 0c-1,0 -2,-2 -2,-3l0 -17c0,-1 1,-2 2,-2zm-22 0l11 0c1,0 2,1 2,2l0 17c0,1 -1,3 -2,3l-11 0c-1,0 -2,-2 -2,-3l0 -17c0,-1 1,-2 2,-2zm432 -480l64 -69 0 97 -11 0 0 25 -53 -53zm64 -75l-67 72 -20 -20 87 -62 0 10zm-220 -20c-4,0 -7,-9 -8,-22l-285 285 584 0 -284 -284c-1,12 -4,21 -7,21zm-60 119l49 0 0 54 -49 0 0 -54zm68 0l49 0 0 54 -49 0 0 -54zm0 60l49 0 0 54 -49 0 0 -54zm-68 0l49 0 0 54 -49 0 0 -54zm131 -62l0 126 -145 0 0 -126 -12 0 0 -11 169 0 0 11 -12 0zm142 103l-81 -81 0 81 81 0zm-428 0l82 -81 0 81 -82 0zm435 147l54 0 0 195 -54 0 0 -195zm-195 0l53 0 0 195 -53 0 0 -195zm203 8l0 179 38 0 0 -179 -38 0zm-195 0l0 179 37 0 0 -179 -37 0zm71 85l0 94 91 0 0 -94 -91 0zm-8 -93l107 0 0 195 -107 0 0 -195zm-270 181l0 -78 -14 0 0 78 14 0zm24 0l0 -78 -19 0 0 78 19 0zm23 0l0 -78 -18 0 0 78 18 0zm20 -78l-14 0 0 78 14 0 0 -78zm-81 -6l81 0 0 -83 -81 0 0 83zm-13 -97l107 0 0 195 -107 0 0 -195zm226 455l53 0 0 194 -53 0 0 -194zm8 8l0 178 37 0 0 -178 -37 0zm-288 -43c10,-51 55,-90 109,-90 54,0 99,39 109,90l-218 0zm1257 271l-279 0 0 -34 279 0 0 34zm-268 -27l10 0c2,0 3,1 3,2l0 16c0,1 -1,2 -3,2l-10 0c-1,0 -2,-1 -2,-2l0 -16c0,-1 1,-2 2,-2zm247 0l10 0c2,0 3,1 3,2l0 16c0,1 -1,2 -3,2l-10 0c-1,0 -2,-1 -2,-2l0 -16c0,-1 1,-2 2,-2zm-20 0l10 0c1,0 2,1 2,2l0 16c0,1 -1,2 -2,2l-10 0c-2,0 -3,-1 -3,-2l0 -16c0,-1 1,-2 3,-2zm-21 0l10 0c1,0 3,1 3,2l0 16c0,1 -2,2 -3,2l-10 0c-1,0 -2,-1 -2,-2l0 -16c0,-1 1,-2 2,-2zm-20 0l10 0c1,0 2,1 2,2l0 16c0,1 -1,2 -2,2l-10 0c-2,0 -3,-1 -3,-2l0 -16c0,-1 1,-2 3,-2zm-21 0l10 0c1,0 2,1 2,2l0 16c0,1 -1,2 -2,2l-10 0c-1,0 -2,-1 -2,-2l0 -16c0,-1 1,-2 2,-2zm-21 0l10 0c2,0 3,1 3,2l0 16c0,1 -1,2 -3,2l-10 0c-1,0 -2,-1 -2,-2l0 -16c0,-1 1,-2 2,-2zm-20 0l10 0c1,0 2,1 2,2l0 16c0,1 -1,2 -2,2l-10 0c-1,0 -3,-1 -3,-2l0 -16c0,-1 2,-2 3,-2zm-21 0l10 0c2,0 3,1 3,2l0 16c0,1 -1,2 -3,2l-10 0c-1,0 -2,-1 -2,-2l0 -16c0,-1 1,-2 2,-2zm-20 0l10 0c1,0 2,1 2,2l0 16c0,1 -1,2 -2,2l-10 0c-2,0 -3,-1 -3,-2l0 -16c0,-1 1,-2 3,-2zm-21 0l10 0c1,0 3,1 3,2l0 16c0,1 -2,2 -3,2l-10 0c-1,0 -2,-1 -2,-2l0 -16c0,-1 1,-2 2,-2zm-20 0l10 0c1,0 2,1 2,2l0 16c0,1 -1,2 -2,2l-10 0c-2,0 -3,-1 -3,-2l0 -16c0,-1 1,-2 3,-2zm-21 0l10 0c1,0 2,1 2,2l0 16c0,1 -1,2 -2,2l-10 0c-1,0 -2,-1 -2,-2l0 -16c0,-1 1,-2 2,-2zm177 -1050c0,-9 5,-16 12,-16 6,0 11,7 12,16l-24 0zm-219 39c-5,0 -8,-15 -8,-32 0,-3 0,-6 0,-9l-284 284 584 0 -285 -285c0,3 0,6 0,10 0,17 -3,32 -7,32zm-178 804l61 0 0 171 -61 0 0 -171zm189 -30l-316 0 158 -159 158 159zm-19 -8l-278 0 139 -139 139 139zm105 36l107 0 0 194 -107 0 0 -194zm8 8l0 178 91 0 0 -178 -91 0zm-71 0l0 178 37 0 0 -178 -37 0zm195 0l0 178 38 0 0 -178 -38 0zm-203 -8l53 0 0 194 -53 0 0 -194zm195 0l54 0 0 194 -54 0 0 -194zm-421 -455l107 0 0 195 -107 0 0 -195zm13 97l81 0 0 -83 -81 0 0 83zm81 6l-14 0 0 78 14 0 0 -78zm-20 78l0 -78 -18 0 0 78 18 0zm-24 0l0 -78 -18 0 0 78 18 0zm-23 0l0 -78 -14 0 0 78 14 0zm270 -181l107 0 0 195 -107 0 0 -195zm8 8l0 85 91 0 0 -85 -91 0zm0 94l0 85 91 0 0 -85 -91 0zm-71 -94l0 179 37 0 0 -179 -37 0zm195 0l0 179 38 0 0 -179 -38 0zm-203 -8l53 0 0 195 -53 0 0 -195zm195 0l54 0 0 195 -54 0 0 -195zm-435 -147l81 -81 0 81 -81 0zm428 0l-81 -81 0 81 81 0zm-143 -103l0 126 -144 0 0 -126 -13 0 0 -11 170 0 0 11 -13 0zm-131 62l50 0 0 54 -50 0 0 -54zm68 0l50 0 0 54 -50 0 0 -54zm0 -60l50 0 0 54 -50 0 0 -54zm-68 0l50 0 0 54 -50 0 0 -54zm2588 -1408l0 -2178 112 0c140,-22 248,-140 253,-285l-41 0 0 -285 91 0 1 -138c-28,-1 -49,-3 -49,-6 0,-4 21,-6 50,-7l0 -51c-22,0 -38,-2 -38,-4 0,-3 17,-5 38,-5l1 -54c-15,0 -26,-2 -26,-3 0,-2 11,-4 26,-4l0 -61c-15,0 -26,-1 -26,-3 0,-2 11,-3 26,-4l1 -62c-11,0 -20,-1 -20,-3 0,-1 9,-2 20,-2l4 -424 4 0 4 424c12,0 20,1 20,2 0,2 -8,3 -19,3l0 62c15,1 27,2 27,4 0,2 -12,3 -27,3l1 61c15,0 26,2 26,4 0,1 -11,3 -26,3l0 54c22,0 38,2 38,5 0,2 -16,4 -38,4l1 51c28,1 49,3 49,7 0,3 -21,5 -49,6l1 138 276 0 0 285 -41 0c5,144 112,262 250,285l0 0 115 0 0 2431 20 0 0 -169 139 0 0 -128 307 0 0 128 139 0 0 169 55 0 0 -38 25 0 0 38 110 0 533 -4294 0 -120 96 0 0 120 333 2688 0 -291 182 0 0 -679 355 0 3 -99 -25 3 -1 -6 26 -3 0 -125 -30 -3 1 -6 29 3 0 -182c-11,-1 -21,-2 -21,-3 0,-1 10,-2 21,-2l0 -29c-5,-1 -9,-1 -9,-2 0,-1 4,-2 9,-2l0 -26 9 0 0 26c2,0 4,0 6,0 2,0 5,0 7,0l0 -167 4 0 0 167c7,0 12,1 12,2 0,1 -5,1 -12,2l0 1 -4 0 0 -1c-2,0 -5,0 -7,0 -2,0 -4,0 -6,0l0 29c10,0 18,1 18,2 0,1 -8,2 -18,3l0 183 33 3 -1 6 -32 -3 0 123 37 -3 1 6 -38 4 3 99 73 0 0 679 181 0 0 1265 145 0 0 -161 0 -1312 337 0 0 -357 270 0 0 -350 53 0 0 -407 23 0 0 -311 14 0 0 311 0 46 0 361 0 102 0 317 0 0 0 50 98 0 0 -50 0 -142 0 -175 0 -102 0 -361 0 -46 0 -311 14 0 0 311 23 0 0 407 53 0 0 277 218 0 0 111 81 0 0 81 314 0 0 1550 0 281 172 0 0 140 131 0 0 140 130 0 0 2436 -130 0 -131 0 -172 0 -469 0 -1010 0 -18 0 -1 0 -478 0 -647 0 -340 0 -721 0 -522 0 -560 0c-7,-6 -26,-8 -30,-21 -11,-41 -27,-131 -32,-198 -4,-70 -7,-150 8,-194 4,13 -1,40 -4,60 7,-11 13,-22 16,-36 5,23 -5,48 -10,68 10,-14 20,-28 26,-44 0,19 -10,47 -18,66 11,-6 22,-29 30,-44 1,23 -9,53 -18,74 11,-7 23,-29 32,-44 -1,21 -13,50 -20,74 13,-11 20,-29 33,-40 -8,24 -14,51 -23,74 11,-9 19,-22 27,-34 -2,19 -14,45 -21,66 10,-7 17,-16 23,-28 0,22 -12,49 -23,66 45,-35 80,-121 53,-198 -7,-19 -23,-38 -20,-68 11,15 19,33 24,56 5,-9 0,-36 0,-50 10,21 20,44 26,70 6,-18 1,-28 2,-52 10,20 18,44 26,68 4,-12 0,-32 2,-46 9,20 19,41 24,66 5,-12 1,-30 2,-42 9,20 17,42 22,66 7,-7 3,-29 4,-36 10,20 18,41 22,68 11,-146 -75,-230 -221,-233 22,-22 65,-4 89,6 -3,-8 -21,-18 -32,-24 17,1 39,14 58,20 -11,-11 -23,-21 -36,-30 18,2 42,16 62,22 -7,-11 -21,-17 -28,-28 17,6 36,9 50,18 -2,-8 -18,-19 -28,-26 19,2 42,17 62,24 -8,-8 -15,-18 -26,-24 15,2 38,13 52,22 3,-6 -10,-13 -12,-20 16,8 35,13 48,24 -20,-29 -62,-60 -112,-66 -72,-7 -136,24 -163,68 1,-34 40,-47 71,-58 -5,-3 -17,3 -27,0 11,-7 27,-10 41,-14 -12,-3 -30,-2 -41,-2 17,-8 36,-15 59,-18 -12,-3 -26,-4 -41,-4 14,-8 33,-11 51,-16 -9,-5 -23,-4 -36,-4 13,-9 33,-13 54,-16 -7,-4 -18,-4 -28,-4 13,-7 30,-12 50,-14 -5,-6 -19,-2 -26,-6 15,-6 32,-10 52,-12 -106,-21 -175,44 -193,130 -18,-65 -59,-119 -140,-116 12,6 27,9 38,16 -5,4 -14,-2 -22,2 13,8 30,12 44,18 -11,6 -14,-1 -28,0 12,10 30,13 44,20 -8,3 -23,-1 -30,-2 4,11 30,16 42,24 -8,3 -27,-8 -38,-4 15,9 34,12 44,24 -11,-3 -22,-6 -34,-4 13,7 28,12 40,18 -5,3 -19,-3 -28,-4 4,9 14,12 22,16 -53,-34 -142,-27 -197,10 -6,-1 -12,-1 -19,-1 12,-7 28,-10 44,-14 -8,-4 -20,-3 -32,-3 12,-9 29,-12 47,-14 -6,-4 -15,-4 -24,-4 12,-6 26,-11 43,-12 -4,-5 -16,-2 -22,-5 13,-6 28,-10 45,-11 -92,-18 -152,38 -167,114 -17,-57 -52,-105 -122,-102 10,6 23,8 33,14 -5,3 -13,-2 -20,2 12,7 27,10 39,16 -10,4 -13,-2 -25,0 10,8 27,11 39,17 -8,3 -20,-1 -26,-2 3,9 26,14 36,21 -7,3 -24,-7 -33,-3 13,7 29,10 39,21 -11,-3 -20,-6 -30,-4 11,6 24,10 35,16 -5,2 -17,-3 -25,-3 4,7 13,9 20,14 -64,-42 -184,-15 -210,52 14,-10 27,-21 44,-28 0,4 -10,14 -14,19 14,-3 31,-19 47,-26 -1,8 -17,15 -19,26 15,-10 29,-20 47,-28 -2,9 -19,19 -23,32 16,-12 34,-20 51,-30 -3,11 -23,19 -28,33 17,-9 34,-18 50,-28 0,9 -17,15 -21,26 14,-8 31,-14 46,-21 5,3 10,7 16,9 -92,10 -155,63 -156,169 7,-16 13,-34 19,-50 4,6 1,19 2,28 10,-12 14,-30 19,-46 3,6 -1,20 0,30 9,-18 15,-38 25,-56 2,10 -4,25 -2,40 9,-17 15,-36 25,-52 1,10 -6,25 -4,42 10,-17 17,-37 26,-54 1,8 -3,28 -5,40 7,-2 8,-14 12,-23 4,-9 9,-17 12,-24 -3,46 -30,74 -24,129 6,51 33,90 65,124 -5,-15 -21,-33 -25,-54 9,6 16,16 25,22 -4,-17 -21,-37 -27,-59 9,9 15,20 25,28 -3,-18 -17,-40 -23,-61 10,5 18,29 33,35 -10,-21 -20,-43 -28,-66 12,12 22,27 33,40 -3,-19 -18,-42 -24,-65 10,6 21,27 31,38 -2,-19 -19,-40 -22,-64 9,13 15,30 28,40 -3,59 -6,143 -9,215 -1,22 7,55 -11,61l-29 0 -16 0 -576 0 0 -299 0 -444 0 -1644c0,-134 110,-244 244,-244l0 0c110,0 203,73 234,174l98 0zm367 2457l-185 0 -45 0c-6,-5 -22,-7 -25,-18 -10,-36 -24,-114 -28,-172 -4,-61 -6,-131 7,-170 3,12 -1,36 -4,53 6,-9 12,-19 14,-32 5,20 -4,42 -8,60 8,-12 17,-24 22,-39 0,17 -9,41 -15,58 9,-5 18,-26 26,-39 1,21 -9,47 -16,65 9,-6 20,-25 28,-38 -2,18 -12,44 -17,64 11,-10 16,-25 27,-35 -6,22 -11,44 -19,65 10,-8 16,-19 23,-30 -2,17 -12,39 -18,58 9,-7 15,-15 20,-25 0,19 -10,43 -20,58 39,-31 70,-105 46,-173 -1,-3 -2,-5 -3,-8l4 -12c1,3 2,6 2,10 3,-4 3,-13 2,-22 2,-3 3,-6 4,-9 0,0 0,0 1,1l0 1c3,7 0,21 1,30 3,-3 5,-7 7,-11 3,9 6,18 8,27 5,-15 1,-24 2,-45 9,18 16,39 22,59 4,-10 1,-27 2,-40 9,18 17,36 21,57 5,-10 1,-25 2,-36 8,17 15,36 19,57 7,-5 3,-24 4,-31 8,17 16,36 19,59 0,-7 1,-14 1,-22 13,38 37,70 63,98 -4,-17 -24,-37 -28,-62 11,8 18,18 28,26 -4,-21 -23,-43 -30,-68 10,10 17,23 28,32 -3,-21 -19,-46 -26,-70 12,6 20,33 38,40 -11,-24 -23,-49 -32,-76 14,15 25,31 38,46 -4,-22 -21,-48 -28,-74 12,7 25,30 36,44 -3,-23 -21,-47 -26,-74 11,15 18,34 32,46 -2,67 -6,164 -10,246 -1,27 9,65 -14,71zm-197 -312c-5,-10 -9,-22 -8,-37 4,6 8,12 11,19 -1,6 -2,12 -3,18zm116 18c-8,-24 -21,-44 -38,-60 6,-14 12,-29 19,-41 2,11 -7,29 -4,48 12,-20 19,-43 30,-62 1,9 -4,31 -6,46 8,-2 10,-16 14,-26 5,-11 11,-20 14,-28 -3,45 -27,75 -29,123zm-46 -67c-2,-2 -4,-4 -6,-5 2,-6 5,-11 7,-15 2,5 1,12 -1,20zm-43 -26c-26,-11 -57,-17 -92,-18 19,-20 56,-4 77,5 -3,-7 -18,-16 -28,-21 15,1 34,12 50,18 -9,-10 -19,-19 -31,-26 13,1 30,9 46,16 -8,7 -16,16 -22,26zm25 -30c-6,-6 -14,-10 -19,-18 9,3 20,6 29,9 -3,3 -7,6 -10,9zm16 -13c-5,-4 -11,-9 -16,-12 7,1 15,4 23,7 -2,2 -5,3 -7,5zm17 -11c0,0 -1,0 -2,-1 1,0 2,1 3,1l-1 0zm35 -15c-1,-1 -3,-2 -5,-3 14,-7 28,-12 42,-19 7,3 11,8 18,10 -19,3 -38,6 -55,12zm-10 -6c-3,-2 -7,-3 -11,-5 10,-5 20,-11 30,-17 0,8 -12,14 -19,22zm-23 -9c-3,-2 -7,-2 -11,-3 9,-5 19,-10 27,-16 -1,7 -9,12 -16,19zm-27 -6c-5,0 -10,-1 -15,-1 8,-5 17,-10 26,-14 -1,5 -6,10 -11,15zm-30 0c-5,0 -10,1 -15,2 8,-5 16,-11 24,-15 0,5 -4,9 -9,13zm-36 7c-33,10 -59,29 -73,53 0,-20 15,-32 33,-40 -1,2 -2,5 -3,8 6,-5 12,-10 19,-14 4,-2 8,-3 12,-5 -1,-1 -2,-1 -4,-1 7,-5 15,-9 23,-13 0,3 -3,7 -7,12zm-33 2c-1,0 -1,0 -2,0 1,0 2,-1 3,-1l-1 1zm11 -14c-5,0 -9,0 -13,0 8,-3 15,-7 23,-10 -3,3 -7,7 -10,10zm-65 -1886l904 0c6,0 11,5 11,12l0 75c0,7 -5,12 -11,12l-904 0 0 -99zm-22 -212l926 0c6,0 11,5 11,11l0 76c0,6 -5,11 -11,11l-926 0c-6,0 -11,-5 -11,-11l0 -76c0,-6 5,-11 11,-11zm0 -213l926 0c6,0 11,5 11,11l0 76c0,6 -5,12 -11,12l-926 0c-6,0 -11,-6 -11,-12l0 -76c0,-6 5,-11 11,-11zm0 -213l926 0c6,0 11,6 11,12l0 76c0,6 -5,11 -11,11l-926 0c-6,0 -11,-5 -11,-11l0 -76c0,-6 5,-12 11,-12zm0 -212l926 0c6,0 11,5 11,11l0 76c0,6 -5,11 -11,11l-926 0c-6,0 -11,-5 -11,-11l0 -76c0,-6 5,-11 11,-11zm0 -213l926 0c6,0 11,5 11,12l0 75c0,7 -5,12 -11,12l-926 0c-6,0 -11,-5 -11,-12l0 -75c0,-7 5,-12 11,-12zm0 -212l926 0c6,0 11,5 11,11l0 76c0,6 -5,11 -11,11l-926 0c-6,0 -11,-5 -11,-11l0 -76c0,-6 5,-11 11,-11zm0 -213l926 0c6,0 11,5 11,11l0 76c0,7 -5,12 -11,12l-926 0c-6,0 -11,-5 -11,-12l0 -76c0,-6 5,-11 11,-11zm0 -212l926 0c6,0 11,5 11,11l0 76c0,6 -5,11 -11,11l-926 0c-6,0 -11,-5 -11,-11l0 -76c0,-6 5,-11 11,-11zm0 -213l926 0c6,0 11,5 11,11l0 76c0,6 -5,11 -11,11l-926 0c-6,0 -11,-5 -11,-11l0 -76c0,-6 5,-11 11,-11zm0 -213l926 0c6,0 11,6 11,12l0 76c0,6 -5,11 -11,11l-926 0c-6,0 -11,-5 -11,-11l0 -76c0,-6 5,-12 11,-12zm-527 1423c-77,0 -140,-63 -140,-140 0,-77 63,-140 140,-140 77,0 140,63 140,140 0,77 -63,140 -140,140zm107 -145l-104 0c-1,0 -1,0 -1,1l-58 -105c-1,-1 -4,-2 -5,-1l0 0c-2,1 -3,3 -2,5l59 105c0,1 0,2 0,2l0 4c0,4 3,7 7,7l104 0c4,0 7,-3 7,-7l0 -4c0,-4 -3,-7 -7,-7zm-1615 1886l152 0 0 88 -152 0 0 -88zm835 0l152 0 0 88 -152 0 0 -88zm-209 0l152 0 0 88 -152 0 0 -88zm-208 0l152 0 0 88 -152 0 0 -88zm-209 0l152 0 0 88 -152 0 0 -88zm-284 267l47 0 0 101 -47 0 0 -101zm1090 0l47 0 0 101 -47 0 0 -101zm-239 0l47 0 0 101 -47 0 0 -101zm-239 0l47 0 0 101 -47 0 0 -101zm-238 0l46 0 0 101 -46 0 0 -101zm649 0l47 0 0 101 -47 0 0 -101zm-239 0l47 0 0 101 -47 0 0 -101zm-239 0l47 0 0 101 -47 0 0 -101zm-239 0l47 0 0 101 -47 0 0 -101zm650 0l47 0 0 101 -47 0 0 -101zm-239 0l47 0 0 101 -47 0 0 -101zm-239 0l47 0 0 101 -47 0 0 -101zm-239 0l47 0 0 101 -47 0 0 -101zm-104 0l46 0 0 101 -46 0 0 -101zm-68 0l47 0 0 101 -47 0 0 -101zm1278 -2322l153 0c22,-10 46,-17 72,-19l13 -710 6 0 13 711c24,2 46,9 66,18l160 0 0 756c-32,-14 -68,-22 -105,-22 -145,0 -264,119 -264,264l0 2387 -186 0 0 -875 1 0c17,0 31,-14 31,-31l0 -38c0,-17 -14,-31 -31,-31l-1 0 0 -111 1 0c17,0 31,-14 31,-31l0 -38c0,-17 -14,-31 -31,-31l-123 0 0 -141 21 0 0 -81 -734 0 0 -1230 907 0 0 -747zm238 341c-92,0 -166,-74 -166,-166 0,-92 74,-166 166,-166 92,0 166,74 166,166 0,92 -74,166 -166,166zm-504 2232l0 0c-56,0 -103,47 -103,104l0 649 207 0 0 -649c0,-57 -47,-104 -104,-104zm-1021 0l0 0c-57,0 -104,47 -104,104l0 649 207 0 0 -649c0,-57 -46,-104 -103,-104zm255 0l0 0c-57,0 -103,47 -103,104l0 649 207 0 0 -649c0,-57 -47,-104 -104,-104zm256 0l0 0c-57,0 -104,47 -104,104l0 649 207 0 0 -649c0,-57 -46,-104 -103,-104zm255 0l0 0c-57,0 -103,47 -103,104l0 649 207 0 0 -649c0,-57 -47,-104 -104,-104zm3129 -1430l8 0 0 9 39 0 0 -85 -47 0 0 76zm178 0l17 0 0 9 30 0 0 -85 -47 0 0 76zm178 9l0 -9 24 0 0 9 23 0 0 -85 -47 0 0 85 0 0zm24 58l0 85 23 0 0 -85 -23 0zm0 144l0 85 23 0 0 -85 -23 0zm0 143l0 85 23 0 0 -85 -23 0zm0 143l0 86 23 0 0 -86 -23 0zm0 144l0 85 23 0 0 -85 -23 0zm0 143l0 85 23 0 0 -85 -23 0zm0 144l0 85 23 0 0 -85 -23 0zm0 143l0 85 23 0 0 -85 -23 0zm0 143l0 86 23 0 0 -86 -23 0zm0 144l0 85 23 0 0 -85 -23 0zm0 143l0 85 23 0 0 -85 -23 0zm0 144l0 85 25 0 0 -85 -25 0zm0 143l0 85 23 0 0 -85 -23 0zm0 144l0 85 23 0 0 -85 -23 0zm0 143l0 85 23 0 0 -85 -23 0zm340 85l0 -85 -8 0 0 85 8 0zm0 -143l0 -85 -8 0 0 85 8 0zm0 -144l0 -85 -8 0 0 85 8 0zm0 -143l0 -85 -13 0 0 85 13 0zm0 -144l0 -85 -8 0 0 85 8 0zm0 -143l0 -85 -8 0 0 85 8 0zm0 -143l0 -86 -8 0 0 86 8 0zm0 -144l0 -85 -8 0 0 85 8 0zm0 -143l0 -85 -8 0 0 85 8 0zm0 -144l0 -85 -8 0 0 85 8 0zm0 -143l0 -85 -8 0 0 85 8 0zm0 -143l0 -86 -8 0 0 86 8 0zm0 -144l0 -85 -8 0 0 85 8 0zm0 -143l0 -85 -8 0 0 85 8 0zm0 -144l0 -85 -8 0 0 85 8 0zm0 -143l0 -85 -8 0 0 85 8 0zm0 -144l0 -85 -8 0 0 85 8 0zm174 -143l0 -85 -4 0 0 85 4 0zm0 -143l0 -86 -4 0 0 86 4 0zm0 -144l0 -85 -4 0 0 85 4 0zm0 -143l0 -85 -4 0 0 85 4 0zm0 -144l0 -85 -4 0 0 85 4 0zm0 -143l0 -85 -4 0 0 85 4 0zm0 -143l0 -18 -4 -37 0 55 4 0zm3879 1989c34,-10 68,-21 102,-32l0 195c-34,8 -68,16 -102,24l0 -187zm-910 1077l55 0 0 89 -55 0 0 -89zm780 0l55 0 0 89 -55 0 0 -89zm-87 0l55 0 0 89 -55 0 0 -89zm-87 0l54 0 0 89 -54 0 0 -89zm-88 0l55 0 0 89 -55 0 0 -89zm-87 0l55 0 0 89 -55 0 0 -89zm-87 0l54 0 0 89 -54 0 0 -89zm-88 0l55 0 0 89 -55 0 0 -89zm-87 0l55 0 0 89 -55 0 0 -89zm-88 0l55 0 0 89 -55 0 0 -89zm-81 -159l55 0 0 89 -55 0 0 -89zm780 0l55 0 0 89 -55 0 0 -89zm-87 0l55 0 0 89 -55 0 0 -89zm-87 0l54 0 0 89 -54 0 0 -89zm-88 0l55 0 0 89 -55 0 0 -89zm-87 0l55 0 0 89 -55 0 0 -89zm-87 0l54 0 0 89 -54 0 0 -89zm-88 0l55 0 0 89 -55 0 0 -89zm-87 0l55 0 0 89 -55 0 0 -89zm-88 0l55 0 0 89 -55 0 0 -89zm-81 -159l55 0 0 89 -55 0 0 -89zm780 0l55 0 0 89 -55 0 0 -89zm-87 0l55 0 0 89 -55 0 0 -89zm-87 0l54 0 0 89 -54 0 0 -89zm-88 0l55 0 0 89 -55 0 0 -89zm-87 0l55 0 0 89 -55 0 0 -89zm-87 0l54 0 0 89 -54 0 0 -89zm-88 0l55 0 0 89 -55 0 0 -89zm-87 0l55 0 0 89 -55 0 0 -89zm-88 0l55 0 0 89 -55 0 0 -89zm-81 -159l55 0 0 90 -55 0 0 -90zm780 0l55 0 0 90 -55 0 0 -90zm-87 0l55 0 0 90 -55 0 0 -90zm-87 0l54 0 0 90 -54 0 0 -90zm-88 0l55 0 0 90 -55 0 0 -90zm-87 0l55 0 0 90 -55 0 0 -90zm-87 0l54 0 0 90 -54 0 0 -90zm-88 0l55 0 0 90 -55 0 0 -90zm-87 0l55 0 0 90 -55 0 0 -90zm-88 0l55 0 0 90 -55 0 0 -90zm-81 -159l55 0 0 90 -55 0 0 -90zm780 0l55 0 0 90 -55 0 0 -90zm-87 0l55 0 0 90 -55 0 0 -90zm-87 0l54 0 0 90 -54 0 0 -90zm-88 0l55 0 0 90 -55 0 0 -90zm-87 0l55 0 0 90 -55 0 0 -90zm-87 0l54 0 0 90 -54 0 0 -90zm-88 0l55 0 0 90 -55 0 0 -90zm-87 0l55 0 0 90 -55 0 0 -90zm-88 0l55 0 0 90 -55 0 0 -90zm-81 -159l55 0 0 90 -55 0 0 -90zm780 0l55 0 0 90 -55 0 0 -90zm-87 0l55 0 0 90 -55 0 0 -90zm-87 0l54 0 0 90 -54 0 0 -90zm-88 0l55 0 0 90 -55 0 0 -90zm-87 0l55 0 0 90 -55 0 0 -90zm-87 0l54 0 0 90 -54 0 0 -90zm-88 0l55 0 0 90 -55 0 0 -90zm-87 0l55 0 0 90 -55 0 0 -90zm-88 0l55 0 0 90 -55 0 0 -90zm-81 -159l55 0 0 90 -55 0 0 -90zm780 0l55 0 0 90 -55 0 0 -90zm-87 0l55 0 0 90 -55 0 0 -90zm-87 0l54 0 0 90 -54 0 0 -90zm-88 0l55 0 0 90 -55 0 0 -90zm-87 0l55 0 0 90 -55 0 0 -90zm-87 0l54 0 0 90 -54 0 0 -90zm-88 0l55 0 0 90 -55 0 0 -90zm-87 0l55 0 0 90 -55 0 0 -90zm-88 0l55 0 0 90 -55 0 0 -90zm-81 -159l55 0 0 90 -55 0 0 -90zm780 0l55 0 0 90 -55 0 0 -90zm-87 0l55 0 0 90 -55 0 0 -90zm-87 0l54 0 0 90 -54 0 0 -90zm-88 0l55 0 0 90 -55 0 0 -90zm-87 0l55 0 0 90 -55 0 0 -90zm-87 0l54 0 0 90 -54 0 0 -90zm-88 0l55 0 0 90 -55 0 0 -90zm-87 0l55 0 0 90 -55 0 0 -90zm-88 0l55 0 0 90 -55 0 0 -90zm-81 -158l55 0 0 89 -55 0 0 -89zm780 0l55 0 0 89 -55 0 0 -89zm-87 0l55 0 0 89 -55 0 0 -89zm-87 0l54 0 0 89 -54 0 0 -89zm-88 0l55 0 0 89 -55 0 0 -89zm-87 0l55 0 0 89 -55 0 0 -89zm-87 0l54 0 0 89 -54 0 0 -89zm-88 0l55 0 0 89 -55 0 0 -89zm-87 0l55 0 0 89 -55 0 0 -89zm-88 0l55 0 0 89 -55 0 0 -89zm-81 -159l55 0 0 89 -55 0 0 -89zm780 0l55 0 0 89 -55 0 0 -89zm-87 0l55 0 0 89 -55 0 0 -89zm-87 0l54 0 0 89 -54 0 0 -89zm-88 0l55 0 0 89 -55 0 0 -89zm-87 0l55 0 0 89 -55 0 0 -89zm-87 0l54 0 0 89 -54 0 0 -89zm-88 0l55 0 0 89 -55 0 0 -89zm-87 0l55 0 0 89 -55 0 0 -89zm-88 0l55 0 0 89 -55 0 0 -89zm-3363 -572l-47 0 0 83 47 0 0 -83zm-89 0l-47 0 0 83 47 0 0 -83zm114 -61l-187 0 0 -2831 187 0 0 2831zm17 -2666l47 0 0 85 -47 0 0 -85zm-267 0l47 0 0 85 -47 0 0 -85zm362 228l-6 0 0 -55 6 55zm-95 -85l47 0 0 85 -47 0 0 -85zm-267 0l47 0 0 85 -47 0 0 -85zm-42 30l0 55 -7 0 7 -55zm398 114l14 0 10 85 -24 0 0 -85zm-89 0l47 0 0 85 -47 0 0 -85zm-267 0l47 0 0 85 -47 0 0 -85zm-56 0l14 0 0 85 -25 0 11 -85zm412 143l32 0 10 85 -42 0 0 -85zm-89 0l47 0 0 85 -47 0 0 -85zm-267 0l47 0 0 85 -47 0 0 -85zm-74 0l32 0 0 85 -43 0 11 -85zm430 143l47 0 0 86 -47 0 0 -86zm-89 0l47 0 0 86 -47 0 0 -86zm-267 0l47 0 0 86 -47 0 0 -86zm-89 0l47 0 0 86 -47 0 0 -86zm445 144l47 0 0 85 -47 0 0 -85zm-89 0l47 0 0 85 -47 0 0 -85zm-267 0l47 0 0 85 -47 0 0 -85zm-89 0l47 0 0 85 -47 0 0 -85zm540 228l-6 0 0 -55 6 55zm-95 -85l47 0 0 85 -47 0 0 -85zm-89 0l47 0 0 85 -47 0 0 -85zm-267 0l47 0 0 85 -47 0 0 -85zm-89 0l47 0 0 85 -47 0 0 -85zm-42 31l0 54 -7 0 7 -54zm576 113l14 0 10 85 -24 0 0 -85zm-89 0l47 0 0 85 -47 0 0 -85zm-89 0l47 0 0 85 -47 0 0 -85zm-267 0l47 0 0 85 -47 0 0 -85zm-89 0l47 0 0 85 -47 0 0 -85zm-56 0l14 0 0 85 -25 0 11 -85zm590 143l31 0 11 85 -42 0 0 -85zm-89 0l47 0 0 85 -47 0 0 -85zm-89 0l47 0 0 85 -47 0 0 -85zm-267 0l47 0 0 85 -47 0 0 -85zm-89 0l47 0 0 85 -47 0 0 -85zm-74 0l32 0 0 85 -42 0 10 -85zm608 144l47 0 0 85 -47 0 0 -85zm-89 0l47 0 0 85 -47 0 0 -85zm-89 0l47 0 0 85 -47 0 0 -85zm-267 0l47 0 0 85 -47 0 0 -85zm-89 0l47 0 0 85 -47 0 0 -85zm-89 0l47 0 0 85 -47 0 0 -85zm623 143l47 0 0 85 -47 0 0 -85zm-89 0l47 0 0 85 -47 0 0 -85zm-89 0l47 0 0 85 -47 0 0 -85zm-267 0l47 0 0 85 -47 0 0 -85zm-89 0l47 0 0 85 -47 0 0 -85zm-89 0l47 0 0 85 -47 0 0 -85zm623 143l47 0 0 86 -47 0 0 -86zm-89 0l47 0 0 86 -47 0 0 -86zm-89 0l47 0 0 86 -47 0 0 -86zm-267 0l47 0 0 86 -47 0 0 -86zm-89 0l47 0 0 86 -47 0 0 -86zm-89 0l47 0 0 86 -47 0 0 -86zm-42 31l0 55 -7 0 7 -55zm665 113l47 0 0 85 -47 0 0 -85zm-89 0l47 0 0 85 -47 0 0 -85zm-89 0l47 0 0 85 -47 0 0 -85zm-267 0l47 0 0 85 -47 0 0 -85zm-89 0l47 0 0 85 -47 0 0 -85zm-89 0l47 0 0 85 -47 0 0 -85zm-56 0l14 0 0 85 -25 0 11 -85zm679 143l47 0 0 85 -47 0 0 -85zm-89 0l47 0 0 85 -47 0 0 -85zm-89 0l47 0 0 85 -47 0 0 -85zm-267 0l47 0 0 85 -47 0 0 -85zm-89 0l47 0 0 85 -47 0 0 -85zm-89 0l47 0 0 85 -47 0 0 -85zm-74 0l32 0 0 85 -42 0 10 -85zm697 144l47 0 0 85 -47 0 0 -85zm-89 0l47 0 0 85 -47 0 0 -85zm-89 0l47 0 0 85 -47 0 0 -85zm-267 0l47 0 0 85 -47 0 0 -85zm-89 0l47 0 0 85 -47 0 0 -85zm-89 0l47 0 0 85 -47 0 0 -85zm-89 0l47 0 0 85 -47 0 0 -85zm712 143l47 0 0 85 -47 0 0 -85zm-89 0l47 0 0 85 -47 0 0 -85zm-89 0l47 0 0 85 -47 0 0 -85zm-267 0l47 0 0 85 -47 0 0 -85zm-89 0l47 0 0 85 -47 0 0 -85zm-89 0l47 0 0 85 -47 0 0 -85zm-89 0l47 0 0 85 -47 0 0 -85zm712 143l47 0 0 86 -47 0 0 -86zm-89 0l47 0 0 86 -47 0 0 -86zm-89 0l47 0 0 86 -47 0 0 -86zm-267 0l47 0 0 86 -47 0 0 -86zm-89 0l47 0 0 86 -47 0 0 -86zm-89 0l47 0 0 86 -47 0 0 -86zm-89 0l47 0 0 86 -47 0 0 -86zm-42 31l0 55 -7 0 7 -55zm754 113l47 0 0 85 -47 0 0 -85zm-89 0l47 0 0 85 -47 0 0 -85zm-89 0l47 0 0 85 -47 0 0 -85zm-267 0l47 0 0 85 -47 0 0 -85zm-89 0l47 0 0 85 -47 0 0 -85zm-89 0l47 0 0 85 -47 0 0 -85zm-89 0l47 0 0 85 -47 0 0 -85zm-56 0l14 0 0 85 -25 0 11 -85zm590 143l47 0 0 85 -33 0 -14 0 0 -85zm-267 0l47 0 0 85 -47 0 0 -85zm-89 0l47 0 0 85 -47 0 0 -85zm-89 0l47 0 0 85 -47 0 0 -85zm-89 0l47 0 0 85 -47 0 0 -85zm-74 0l32 0 0 85 -42 0 10 -85zm608 144l47 0 0 85 -47 0 0 -85zm-356 0l47 0 0 85 -47 0 0 -85zm-178 0l47 0 0 85 -47 0 0 -85zm534 143l47 0 0 85 -47 0 0 -85zm-89 0l47 0 0 85 -47 0 0 -85zm-89 0l47 0 0 85 -47 0 0 -85zm178 144l47 0 0 85 -47 0 0 -85zm-89 0l47 0 0 85 -47 0 0 -85zm-89 0l47 0 0 85 -47 0 0 -85zm178 143l47 0 0 85 -47 0 0 -85zm-89 0l47 0 0 85 -47 0 0 -85zm-89 0l47 0 0 85 -47 0 0 -85zm178 143l47 0 0 86 -47 0 0 -86zm-89 0l47 0 0 86 -47 0 0 -86zm-89 0l47 0 0 86 -47 0 0 -86zm178 144l47 0 0 85 -47 0 0 -85zm-89 0l47 0 0 85 -47 0 0 -85zm-89 0l47 0 0 85 -47 0 0 -85zm178 143l47 0 0 85 -47 0 0 -85zm-89 0l47 0 0 85 -47 0 0 -85zm-89 0l47 0 0 85 -47 0 0 -85zm178 144l47 0 0 85 -47 0 0 -85zm-89 0l47 0 0 85 -47 0 0 -85zm-89 0l47 0 0 85 -47 0 0 -85zm178 143l47 0 0 85 -47 0 0 -85zm-89 0l47 0 0 85 -47 0 0 -85zm-89 0l47 0 0 85 -47 0 0 -85zm178 143l47 0 0 86 -47 0 0 -86zm-89 0l47 0 0 86 -47 0 0 -86zm-89 0l47 0 0 86 -47 0 0 -86zm178 144l47 0 0 85 -47 0 0 -85zm-89 0l47 0 0 85 -47 0 0 -85zm-89 0l47 0 0 85 -47 0 0 -85zm178 143l47 0 0 85 -47 0 0 -85zm-89 0l47 0 0 85 -47 0 0 -85zm-89 0l47 0 0 85 -47 0 0 -85zm175 144l46 0 0 85 -46 0 0 -85zm-87 0l46 0 0 85 -46 0 0 -85zm-87 0l46 0 0 85 -46 0 0 -85zm177 143l47 0 0 85 -47 0 0 -85zm-89 0l47 0 0 85 -47 0 0 -85zm-89 0l47 0 0 85 -47 0 0 -85zm178 144l47 0 0 85 -47 0 0 -85zm-89 0l47 0 0 85 -47 0 0 -85zm-89 0l47 0 0 85 -47 0 0 -85zm178 143l47 0 0 85 -47 0 0 -85zm-89 0l47 0 0 85 -47 0 0 -85zm-89 0l47 0 0 85 -47 0 0 -85zm2123 -5528c29,0 24,-46 70,-32 -21,29 -14,55 0,88 -29,0 -46,-25 -68,15 0,-29 -19,-33 -2,-71zm-112 5c30,0 24,-48 70,-33 -21,30 -14,57 0,92 -29,0 -46,-27 -68,15 0,-31 -19,-35 -2,-74zm5190 5542l0 -656 101 0 3 0 0 656 -104 0zm-2764 -1277c88,-29 174,-59 260,-91l0 216c-50,14 -100,28 -151,42l0 -6c-2,0 -4,1 -7,2l0 6c-34,9 -68,18 -102,26l0 -195zm534 -198c89,-37 175,-75 260,-115l0 253c-49,20 -99,39 -150,57l0 -3c-2,1 -5,2 -7,3l0 3c-34,13 -68,25 -103,37l0 -235zm268 -118c88,-41 175,-84 260,-129l0 270c-50,23 -100,45 -151,66l0 -2c-2,1 -4,2 -7,3l0 2c-34,15 -68,29 -102,43l0 -253zm267 -133c89,-46 175,-94 260,-143l0 285c-50,26 -100,52 -150,76l0 0c-3,1 -5,2 -8,3l0 1c-34,16 -68,32 -102,48l0 -270zm267 -148c89,-52 176,-106 260,-161l0 301c-84,51 -171,100 -260,146l0 -286zm268 -166c89,-59 176,-120 260,-183l0 318c-50,33 -100,66 -151,99l0 -3c-2,1 -5,3 -7,4l0 3c-34,22 -68,43 -102,64l0 -302zm267 -188c90,-67 176,-137 260,-208l0 335c-84,66 -171,129 -260,191l0 -318zm267 -214c91,-78 178,-157 260,-239l0 354c-83,76 -170,149 -260,220l0 -335zm268 -246c67,-67 132,-135 193,-205l0 373c-62,64 -127,126 -193,187l0 -355zm-8 374l0 1459 -150 0 0 -1329c51,-43 101,-86 150,-130zm8 1459l0 -1466c34,-32 68,-64 102,-96l0 1562 -102 0zm-275 -1235l0 1235 -150 0 0 -1121c51,-37 101,-75 150,-114zm7 1235l0 -1240c35,-28 69,-55 103,-83l0 1323 -103 0zm-274 -1039l0 1039 -151 0 0 -940c51,-33 101,-65 151,-99zm7 1039l0 -1044c34,-24 69,-48 102,-72l0 1116 -102 0zm-275 -868l0 868 -150 0 0 -781c51,-29 101,-58 150,-87zm8 868l0 -873c34,-20 68,-41 102,-63l0 936 -102 0zm-275 -718l0 718 -150 0 0 -642c50,-25 100,-50 150,-76zm7 718l0 -722c35,-18 69,-37 103,-55l0 777 -103 0zm-274 -587l0 587 -151 0 0 -520c51,-22 101,-44 151,-67zm7 587l0 -590c34,-16 68,-32 102,-49l0 639 -102 0zm-275 -472l0 472 -150 0 0 -414c51,-19 101,-38 150,-58zm8 472l0 -475c34,-14 68,-28 102,-42l0 517 -102 0zm1713 -1569c29,-28 57,-55 84,-84l0 294 -32 28 0 693 -31 28 0 610 -21 0 0 -1569zm260 -273l0 525c-15,-1 -30,-2 -45,-4l0 -10 -32 -28 0 -398c26,-28 52,-57 77,-85zm0 641l0 637c-4,0 -9,0 -14,0l0 -46 -31 -28 0 -559c15,-2 30,-3 45,-4zm0 754l0 447 -14 0 0 -446c5,-1 10,-1 14,-1zm7 447l0 -448c12,0 23,0 35,0 14,0 27,0 40,1l0 447 -75 0zm0 -563l0 -638c12,-1 23,-1 35,-1 14,0 27,0 40,1l0 637c-13,1 -26,1 -40,1 -12,0 -23,0 -35,0zm0 -754l0 -534c12,-14 24,-28 36,-42 13,16 26,31 39,46l0 530c-13,0 -26,1 -40,1 -12,0 -23,-1 -35,-1zm3558 1221l0 96 100 0 0 -84c-34,-3 -67,-7 -100,-12zm-8 96l0 -97c-51,-6 -102,-13 -152,-21l0 118 152 0zm-3467 -1839l0 521c11,0 21,-1 32,-2l0 -11 32 -28 0 -409c-22,-24 -43,-47 -64,-71zm0 638l0 637 0 0 0 -46 32 -28 0 -560c-11,-1 -21,-2 -32,-3zm0 754l0 447 0 0 0 -447 0 0zm267 -1114l0 1561 100 0 0 -1468c-34,-30 -67,-61 -100,-93zm-7 1561l0 -1568c-33,-32 -66,-64 -97,-96l0 305 31 28 0 693 32 28 0 610 34 0zm274 -1324l0 1324 101 0 0 -1243c-34,-27 -68,-54 -101,-81zm-7 1324l0 -1330c-52,-43 -103,-87 -152,-131l0 1461 152 0zm275 -1118l0 1118 100 0 0 -1048c-34,-23 -67,-47 -100,-70zm-8 1118l0 -1124c-51,-37 -102,-75 -152,-114l0 1238 152 0zm275 -939l0 939 100 0 0 -878c-34,-20 -67,-40 -100,-61zm-7 939l0 -944c-52,-32 -103,-65 -153,-99l0 1043 153 0zm274 -782l0 782 100 0 0 -728c-33,-18 -67,-36 -100,-54zm-7 782l0 -786c-52,-28 -102,-57 -153,-87l0 873 153 0zm274 -644l0 644 101 0 0 -597c-34,-15 -67,-31 -101,-47zm-7 644l0 -648c-51,-24 -102,-50 -152,-76l0 724 152 0zm275 -524l0 524 100 0 0 -482c-34,-14 -67,-28 -100,-42zm-8 524l0 -527c-51,-21 -102,-44 -152,-67l0 594 152 0zm275 -419l0 419 100 0 0 -383c-33,-12 -67,-24 -100,-36zm-7 419l0 -421c-51,-19 -102,-38 -153,-58l0 479 153 0zm274 -328l0 328 101 0 0 -298c-34,-10 -67,-20 -101,-30zm-7 328l0 -331c-51,-16 -102,-32 -152,-50l0 381 152 0zm275 -252l0 252 100 0 0 -226c-34,-8 -67,-17 -100,-26zm-8 252l0 -253c-51,-14 -102,-28 -152,-43l0 296 152 0zm275 -188l0 188 100 0 0 -167c-33,-6 -67,-13 -100,-21zm-7 188l0 -189c-51,-11 -102,-23 -153,-35l0 224 153 0zm274 -136l0 136 101 0 0 -119c-34,-5 -67,-11 -101,-17zm-7 136l0 -137c-51,-9 -102,-18 -152,-28l0 165 152 0zm642 0l-260 0 0 -83c86,10 173,18 260,24l0 59zm0 -69c-87,-6 -174,-14 -260,-24l0 -123c86,18 173,35 260,50l0 97zm-267 -24c-87,-10 -174,-22 -260,-35l0 -149c86,21 172,41 260,60l0 124zm-267 -36c-88,-14 -175,-29 -260,-46l0 -172c85,24 172,47 260,69l0 149zm-268 -48c-87,-17 -174,-36 -260,-57l0 -194c86,28 173,54 260,79l0 172zm-267 -59c-88,-22 -174,-45 -260,-70l0 -214c85,31 172,61 260,90l0 194zm-267 -72c-88,-26 -175,-53 -260,-83l0 -233c85,35 172,69 260,101l0 215zm-268 -85c-88,-31 -174,-63 -260,-97l0 -251c86,39 172,77 260,114l0 234zm-267 -100c-88,-35 -175,-72 -260,-111l0 -269c85,45 172,87 260,128l0 252zm-267 -114c-89,-41 -175,-83 -260,-128l0 -285c85,50 171,97 260,144l0 269zm-268 -132c-88,-46 -175,-95 -260,-145l0 -301c85,55 172,109 260,161l0 285zm-267 -149c-89,-54 -175,-109 -260,-166l0 -317c84,62 171,123 260,181l0 302zm-267 -171c-89,-61 -176,-125 -260,-190l0 -334c83,71 170,140 260,206l0 318zm-267 -196c-90,-70 -177,-143 -260,-218l0 -354c82,82 169,161 260,238l0 334zm-268 -225c-70,-64 -139,-129 -204,-197l0 -372c65,73 133,145 204,215l0 354zm-696 1504l0 27 -19 -15 0 -12 19 0zm0 50l0 109 -61 0 0 -135 30 0 31 26zm228 109l0 -17 101 -84 0 101 -101 0zm0 -40l0 -12 -3 0 0 -107 104 0 0 36 -101 83zm-303 40l-180 0 0 -12 150 -123 30 0 0 135zm-222 -159l180 0 0 12 -159 130 -21 0 0 -142zm-240 159l180 0 0 -12 -150 -123 -30 0 0 135zm-15 0l-179 0 0 -12 150 -123 29 0 0 135zm-221 -159l179 0 0 12 -158 130 -21 0 0 -142zm458 0l-180 0 0 12 159 130 21 0 0 -142zm-698 159l179 0 0 -12 -150 -123 -29 0 0 135zm-15 0l-179 0 0 -12 149 -123 30 0 0 135zm-221 -159l179 0 0 12 -159 130 -20 0 0 -142zm457 0l-179 0 0 12 158 130 21 0 0 -142zm-698 159l180 0 0 -12 -150 -123 -30 0 0 135zm-14 0l-180 0 0 -12 150 -123 30 0 0 135zm-222 -159l180 0 0 12 -159 130 -21 0 0 -142zm458 0l-180 0 0 12 159 130 21 0 0 -142zm-477 0l-179 0 0 12 159 130 20 0 0 -142zm2138 -2052l0 6c-2,1 -4,1 -6,1 2,-2 4,-5 6,-7zm-117 129c-37,43 -75,87 -114,129l0 -120c35,-6 73,-9 114,-9zm-99 -121c-5,-1 -10,-2 -15,-3l0 -16c5,6 10,12 15,19zm111 121c34,40 69,79 105,118l0 -110c-32,-5 -68,-8 -105,-8zm517 2082l-179 0 0 -12 149 -123 30 0 0 135zm3349 0l180 0 0 -12 -150 -123 -30 0 0 135zm-14 0l-180 0 0 -12 150 -123 30 0 0 135zm-222 -159l180 0 0 12 -159 130 -21 0 0 -142zm458 0l-180 0 0 12 159 130 21 0 0 -142zm-698 159l180 0 0 -12 -150 -123 -30 0 0 135zm-14 0l-180 0 0 -12 150 -123 30 0 0 135zm-222 -159l180 0 0 12 -159 130 -21 0 0 -142zm458 0l-180 0 0 12 159 130 21 0 0 -142zm-698 159l180 0 0 -12 -150 -123 -30 0 0 135zm-14 0l-180 0 0 -12 150 -123 30 0 0 135zm-222 -159l180 0 0 12 -159 130 -21 0 0 -142zm458 0l-180 0 0 12 159 130 21 0 0 -142zm-698 159l179 0 0 -12 -149 -123 -30 0 0 135zm-15 0l-179 0 0 -12 149 -123 30 0 0 135zm-221 -159l179 0 0 12 -159 130 -20 0 0 -142zm457 0l-179 0 0 12 159 130 20 0 0 -142zm-697 159l179 0 0 -12 -150 -123 -29 0 0 135zm-15 0l-180 0 0 -12 150 -123 30 0 0 135zm-222 -159l180 0 0 12 -159 130 -21 0 0 -142zm458 0l-180 0 0 12 159 130 21 0 0 -142zm-698 159l180 0 0 -12 -150 -123 -30 0 0 135zm-14 0l-180 0 0 -12 150 -123 30 0 0 135zm-222 -159l180 0 0 12 -159 130 -21 0 0 -142zm458 0l-180 0 0 12 159 130 21 0 0 -142zm-698 159l179 0 0 -12 -149 -123 -30 0 0 135zm-15 0l-179 0 0 -12 149 -123 30 0 0 135zm-221 -159l179 0 0 12 -159 130 -20 0 0 -142zm457 0l-179 0 0 12 159 130 20 0 0 -142zm-698 159l179 0 0 -12 -149 -123 -30 0 0 135zm221 -159l-179 0 0 12 159 130 20 0 0 -142zm-457 0l179 0 0 12 -159 130 -20 0 0 -142z"/>
 </g>
</svg>
