<svg xmlns="http://www.w3.org/2000/svg" fill-rule="evenodd" clip-rule="evenodd" image-rendering="optimizeQuality" shape-rendering="geometricPrecision" text-rendering="geometricPrecision" viewBox="0 0 18401 6618"><path d="M11998 6210c7-16 15-30 25-42 0 19-23 38-25 42zm-7118 21c7-15 14-29 24-40 0 18-22 36-24 40zm-317 50c6-13 13-25 21-35-1 16-19 32-21 35zm7816-131c7-18 17-35 29-49-1 22-27 44-29 49zm45-202c-10 3-33-11-45-5 17 10 40 14 53 29-14-4-27-8-41-5 15 8 32 14 48 22-7 3-23-4-34-5 5 10 17 13 27 19-65-42-171-33-237 11-7-1-15-1-23-1 14-9 34-12 52-17-8-5-24-4-37-4 14-10 35-13 56-16-7-5-18-5-29-5 14-7 31-13 52-14-5-7-20-3-27-7 16-6 33-11 54-12-110-22-182 46-201 136-19-68-62-125-146-121 12 6 28 9 40 16-5 4-15-2-23 2 13 8 31 12 46 19-12 6-15-2-30 0 12 11 32 13 46 21-8 3-23-1-31-2 4 11 31 16 44 25-9 3-29-9-40-4 15 8 35 13 46 25-12-3-23-6-35-4 13 7 28 12 42 19-6 3-21-4-30-4 5 9 15 11 23 16-30-19-71-26-111-22v-246h1949v656h-97v49h-29v99h818v-99h-29v-49h-109v-656h3965v-16h-86v-12l86-70v-22l-107 87h-21v-142h128v-24h-344v-58c114 8 228 13 344 15v-10c-116-2-230-7-344-15v-97c114 20 228 38 344 53v-10c-1700-224-3150-946-4030-1942v-16l-39-35v-52l-9-8h-4l-9 8v52l-38 35v38c-6 7-13 15-19 23-29 3-60 5-93 5-32 0-63-1-91-5-9-11-19-23-28-35v-26l-38-35v-52l-9-8h-4l-9 8v52l-39 35v27c-620 703-1524 1269-2599 1620-3 1-5 2-7 2v1c-34 11-68 22-102 32v-515c0-6-5-11-11-11h-18c-6 0-11 5-11 11v23h-11l-121-634h-175v-59h-38v-40h-39v-40h-39v-490l-13-6v-118l-14-11v-152l-2-17-3 17v152l-13 11v119l-14 5v490h-39v40h-38v40h-39v59h-175l-121 634h-10v-23c0-6-5-11-12-11h-18c-6 0-11 5-11 11v1916h1684v-389c4-10 8-19 13-27 2 11-7 30-4 50 12-20 20-44 31-65 1 10-4 33-6 48 8-2 10-17 15-27 4-11 10-21 14-29-4 55-36 89-29 154 7 62 40 109 77 149-5-18-25-39-29-65 11 8 19 19 29 27-4-21-24-45-31-71 10 11 18 24 29 34-4-22-20-48-27-74 12 7 21 35 40 42-12-25-24-51-34-79 14 15 26 33 40 48-4-23-22-51-29-78 12 8 25 32 37 47-3-24-22-49-27-78 11 16 19 36 34 48-3 71-7 172-11 258-1 29 10 73-19 75 36 5 81 1 120 2-5-10-30-10-34-25-12-43-28-137-33-207-5-73-8-156 8-203 3 13-2 42-4 63 7-11 13-23 17-38 5 24-6 50-11 71 10-14 21-28 27-46 0 20-10 49-18 69 11-6 22-30 31-46 1 25-10 55-19 77 11-7 24-30 34-46-2 23-14 53-21 78 13-12 20-30 33-42-8 26-14 53-23 77 11-9 19-22 27-35-1 20-14 47-21 69 10-8 18-17 23-29 1 23-11 50-23 69 47-37 83-126 55-208-1-3-3-6-4-9l5-15 3 12c3-5 3-15 2-26 2-4 3-7 5-11 0 0 0 1 1 1v1c4 9 0 25 1 36 3-4 6-8 9-13 3 11 7 21 9 33 7-18 1-29 2-55 12 22 19 47 28 72 4-12 0-33 2-49 10 22 20 43 25 70 6-13 1-31 2-44 9 21 18 43 23 69 8-7 3-30 4-38 11 21 19 43 23 71 1-9 1-18 1-26 16 45 45 83 77 117-6-21-29-45-34-75 12 10 21 22 34 32-5-25-29-52-36-82 11 13 20 28 33 38-4-24-23-55-31-84 14 8 24 40 46 48-15-29-28-59-39-91 16 18 30 38 46 55-5-26-26-58-34-89 14 9 29 37 43 53-3-27-26-55-31-89 13 19 21 42 39 56-3 81-8 196-12 295-2 34 11 84-22 87 41 5 92 0 137 2-6-11-34-12-39-29-13-49-32-157-38-238-6-83-9-179 10-233 3 16-2 49-5 72 8-12 15-26 19-43 6 28-6 58-12 82 12-16 23-33 31-53 0 23-12 57-21 79 12-7 26-35 36-53 1 29-12 64-22 89 13-8 28-35 39-53-3 26-16 61-25 89 16-13 24-34 39-48-9 30-16 61-26 89 12-11 22-26 31-41-2 23-17 54-24 80 11-9 20-20 26-34 1 26-14 58-26 79 53-42 95-144 62-238-8-22-27-44-24-81 13 19 24 40 29 67 7-10 1-43 0-60 12 26 24 53 31 84 8-21 1-33 3-62 13 24 21 53 31 81 5-13 1-37 2-55 12 24 23 49 29 79 7-14 2-35 2-50 11 24 21 50 27 79 9-8 4-34 5-43 12 24 22 50 26 82 13-176-89-276-264-279 26-27 78-5 106 7-3-10-25-22-39-29 21 1 48 16 70 24-13-13-27-26-43-36 21 2 50 19 74 27-9-14-24-21-34-34 21 7 44 11 60 22-2-10-21-24-33-32 23 2 50 20 74 29-9-10-17-22-31-29 19 2 46 16 63 27 4-8-12-16-15-24 20 9 42 15 58 29-24-35-74-73-135-80-85-9-162 29-194 82 0-41 47-56 84-70-6-4-20 3-31 0 12-8 31-12 48-17-14-4-36-2-48-2 20-10 42-19 69-22-13-4-30-5-48-4 16-11 39-14 60-20-10-6-27-4-43-4 16-12 40-16 65-20-8-4-21-5-34-4 17-9 36-16 60-17-5-8-23-3-31-7 18-8 38-13 62-15-126-25-209 53-230 156-23-78-71-143-168-139 14 7 32 11 45 19-6 4-17-2-26 3 16 9 36 13 53 21-14 7-18-2-34 0 14 12 36 15 53 24-10 3-27-1-36-2 4 12 36 18 50 29zm-243 77c-4 3-8 7-12 11h-16c9-4 18-8 28-11zm-25 26l-1 2h-2c1-1 2-1 3-2zm-9 15c-1 3-3 6-4 9 8-6 15-11 23-17 5-2 10-3 14-5-1-1-2-1-4-1 8-6 17-11 27-15 0 3-4 8-8 13-39 12-71 35-88 64 0-24 19-38 40-48zm73-22c10-6 19-13 29-17 0 5-6 10-11 15-6 1-12 1-18 2zm36-3c10-6 20-12 31-16-1 5-6 11-13 17-6 0-12-1-18-1zm38 4c11-6 21-12 32-18-2 8-11 14-19 22-5-2-9-3-13-4zm27 9c12-6 24-13 36-20 0 9-14 16-23 26-4-2-8-4-13-6zm19 10c16-9 34-15 51-23 7 4 13 9 21 12-23 3-45 8-65 14-2-1-5-2-7-3zm-34 21l-2 1-2-2c1 0 2 1 4 1zm-14 8c-3 2-6 4-8 6-6-6-14-11-20-15 9 1 19 4 28 9zm-15 11c-4 3-9 7-13 10-7-7-17-13-23-21 12 4 25 6 36 11zm-17 14c-9 10-18 20-25 32-32-14-69-21-111-22 22-23 68-4 92 7-3-9-22-19-34-26 18 2 42 15 61 21-11-11-23-22-38-31 16 2 37 12 55 19zm-54 100c-2 7-3 15-4 22-6-12-11-26-9-45 5 7 9 15 13 23zm73-43c2-7 5-13 8-18 2 6 1 15-1 24-2-2-5-4-7-6zm17 14c7-17 14-34 23-49 2 13-8 35-5 58 13-24 23-51 36-75 0 12-5 38-7 55 9-2 11-19 16-31 6-12 13-24 17-34-4 55-32 91-34 148-10-28-26-52-46-72zm-363-34v-20c15-8 31-17 46-26 0 10-21 18-25 32 17-10 37-17 55-25 6 3 11 8 19 10-36 4-68 13-95 29zm0-31v-10c6-3 13-7 19-11-2 8-11 14-19 21zm-699-578h102v-146l-102 24v122zm109 0h33v-68h66v-5l3-1v-100c-34 9-68 18-102 26v148zm109-75l148-28v-62h3v-53c-50 14-100 28-151 42v101zm158-90h102v-87c-33 11-68 21-102 32v55zm110 0h64v-110c-22 7-43 14-64 21v89zm64-120v-22h7v20c26-9 53-18 79-27v-234c-85 35-172 69-260 102v216c34-11 69-21 102-32v-4c3-1 5-2 8-3v5c21-7 42-14 64-21zm7 8v112h13v97h66v-236c-26 9-53 18-79 27zm86 209h17v68h39v69h47v-412c-34 13-68 25-103 37v238zm56 185v135h159v-12l-149-123h-10zm-529-154h38v-21h-58v58h20v-37zm400 0h55v37h11v-58h-66v21zm73 37h4v-58h-4v58zm-29 0v-29h-44v29h44zm-406-29h-32v29h32v-29zm-9761 926h7c0 1 1 2 2 3l1 1c-4 0-8 0-10 1l-1-1c1-1 1-2 1-4zm47 86v1c-2 5-1 9-1 13 1 1 1 2 1 3v-17zm36 79c3 3 6 6 8 9v-29h17v-29h18v-30h17v-29h18v-29h93v29h17v29h17v30h18v29h17v30h-322c6-2 13-6 17-8 5-3 8-5 10-8 2-4 2-7 2-10-1-3-2-6-4-9l-1-3c-11-8-22-10-32-14-9-5-19-3-29-7l-17-7v66h-330v-38h-17v-29h-17v-30h-18v-29h-17v-29h-8v-212h-94v212h-7v29h-17v29h-18v30h-17v29h-18v38h-36v-135s-1 1-2 1l-19 5c-2 1-3 2-4 3-8 8-16 15-24 23l-16 17 10-4 11-2 2 2-17 7-18 10-21 7c-11 6-22 4-32 8-11 5-23 8-35 16l-1 4c-2 3-4 6-4 9-1 4 0 7 2 11 2 3 5 6 10 9s13 6 19 9H742c4-5 9-10 13-15 0 0 1 0 1-1 4-5 7-10 9-14 3-4 5-8 6-12 2-3 2-6 2-9s1-6 0-9-2-6-5-9c-2-2-8-6-11-9l-2-2c0-1 0-1-1-2 0-1-1-2-1-3h-1l-1-1c-1-1-3-2-4-4h-1c0 1 1 2 0 3h-1l-2-2c-1 1-4 2-5 2v-2c-1-3-1-4-1-6 0 0 0-1-1-1l-1 1-1-1v-2c-1 1-2 1-3 0-2-2 0-7 0-8v-2c-1-1-2-1-2-2-1 0-1-1-1-2 0 0 1 0 1-1h1c0-1 1-3 1-3l1-1v-1s0-1-1-1v-2l-3 1c0-1 1-3 2-4h-2v1c-1 0-1 1-2 1 0-1 2-3 2-3h1v-2h1c0-1 1-1 1-2-1 0-2 0-2-1h-3c0 2-1 4-1 5v1l1 2c0 1 0 1 1 1v2c-1 1-2 3-3 3s-1 1-1 1-1 0-1 1h-1l-1-1c-1 1-1 1-1 2h-1l-1-1h-1c0 1-1 1-1 2 1 1 2 1 3 2l-1 4-1-1c-2 0-4-1-3-3l-1-1-1-1c-1-2-3-5-2-7-1 0-1 0-1-1l-1 1h-1l2-6c-1-1-2 0-4-1 1 0 1-1 1-2-1 1-5 1-6 0v-1c-1 0-1 0-2-1-1-2-2-4-2-6-1 0-1-1-2-1h-1c-1 1-4 0-5 0l1-2c0-4 0-5 4-5h2c0-1 1-3 1-3s1 0 1-1c-1 0-2-1-2-1h-1v-1c-1 0-1-1-1-1-1 1-3 1-5 1v-1c1 0 2-3 2-4s-1-2-1-2c0-1 1-2 1-2v-1h1s2 1 4 1c1 0 1-1 1-1 3 0 8-1 9-4v-1h-2c0 1-1 1-1 2-1 0-3 0-3-1-1 1-3 1-4 1v-1c0-1 1-2 1-4h-2c0-1 1-2 2-2 0-1 1-1 2-1-1-1-2-2-1-5 2-2 9-3 11-4 1 0 2-1 4-1 1 0 2-1 3-1-1-2-1-3 0-5s4-3 8-4c-1 0-1 0-2-1l-1 1h-2l1-2c-1 0-1 0-1-1h-2l-1-1-1-1v-1l1-1c-1 0-1 0-1-1h-2s0-1-1-1c0 0 0-2 1-2v-1h-1s-1-1-2-1v1-1c-1 2-1 4-2 5h-5v-1c-1-3 0-6 3-6l1-1s-1-1-1-2c-2-2-3-6-4-9-1-1-2-1-3-2h-2c-2 2-7 1-8 0l2-3c0-6 0-7 6-7 1 0 3-1 3-1 0-1 2-4 3-4 0-1 0-1 1-1v-1h-1c-1 0-2-1-2-1l-1-1h-1l-1-1c0-1-1-2-1-2-2 1-4 2-7 2 0-1-1-1-1-1 1-1 3-5 4-8-1-1-2-2-2-3s1-2 1-3l1-1h1s4 1 7 1l1-1c4 0 12-2 15-6 0-1-1-1-1-2 0 0 0-1 1-1-1 0-4 1-4 1 0 1-1 2-2 3-1 0-4 0-4-1-2 1-4 1-7 1v-2c0-2 2-3 2-6l-2-1c0-1 1-2 1-3h4c-2-2-3-5-1-9s13-5 17-6c1-1 4-1 6-2h1c1-1 2-2 4-2-1-2-1-5 0-8 3-5 16-6 21-7 0-1 0-1 1-1-1 0-2-1-3-1l1-1c1 0 3 1 4 1s2 0 4-1h2c0-1 0-2 1-2l-1-1h1c-1-1-1-1-2-1h-5v1l-5 4s-1 1-1 2c-1 0-3 1-5 1-1 0-8-2-8-5h-2c-1 0-2-1-3-1l-1-2v-1l1-2c-1 0-1-1-1-1-1 0-2-1-4-1v-2h-1l1-2v-3h-5v1-1c-1 2-1 5-3 8h-8v-2s1 0 1-1c-2-3 0-9 5-9l1-2c0-1 1-2 1-3 3-4 8-10 13-10 0-1 1-2 1-2l-2-2v-2h10c0-2 1-4 2-6 0 0 0-1 1-2h4l1-1c0-1 1-3 1-4 4-5 10-12 17-12v-3l-2-2v-3l18 1c0-4-5-6-3-10 9 0 19 2 28 1-1 0-3 0-3-1-1 0-3-2-3-3 6 0 14-1 21-1l48-3c0-1 8 0 10 1 0 1 1 1 1 2h16c6 1 6 3 3 3l3 3c3 0 5-1 6-1 5 3 10 1 11 5 5 1 11 1 16 3 0 0 1 1 2 1 0 0 0 1 1 1l26 2c7 0 14 1 21 1 0 1-2 3-3 3 0 1-2 1-3 1 9 1 18-1 28-1 1 4-3 6-3 10h10v-13h-9c-4 0-7-3-7-6 0-4 3-6 7-6h9v-174h295v-35h-295v-258h-7v-12h-10v-12h-24l13-13v-47h2v-8c-2-1-3-3-3-5 0-3 3-6 8-7v-4c-2-2-3-7-3-12 0-8 2-14 5-14 2 0 4 6 4 14 0 5-1 10-2 12v4c4 1 8 4 8 7 0 2-2 4-4 5 0 2 1 3 1 4 0 2-1 3-1 4h2v30l312-312c-3-2-5-6-5-11s3-10 7-12c-1-3-1-7-1-11 0-8 1-15 3-18v-9c-5 0-9-2-9-3 0-2 4-3 9-4v-20c-5-1-10-6-10-12 0-7 6-13 13-13s12 6 12 13c0 6-4 11-10 12v20c6 1 9 2 9 4 0 1-3 3-9 3v9c2 3 4 10 4 18 0 4-1 8-1 11 4 2 7 7 7 12s-2 10-6 12l125 124 89-64v-31c0-3 3-5 6-5h12c3 0 5 2 5 5v149h9v68l65 65v-30h2v-8c-2-1-3-3-3-5 0-3 3-6 8-7v-4c-2-2-2-7-2-12 0-8 1-14 4-14 2 0 4 6 4 14 0 5-1 10-2 12v4c4 1 8 4 8 7 0 2-2 4-4 5 0 2 1 3 1 4 0 2 0 3-1 4h2v47l13 13h-23v12h-11v12h-7v467h2c3 0 6 2 6 6 0 3-3 6-6 6h-2v30c4-2 10-1 14-2 1-4 6-3 10-4h6l2-3c-2 0-3-1 3-2h15c0-1 0-1 1-2 2-1 9-2 9-1l40 2v-497h-7v-12h-11v-12h-23l336-336c1-4 3-8 7-9-1-4-1-7-1-11 0-8 1-16 3-19v-8c-5-1-9-2-9-4 0-1 4-3 9-3v-20c-6-2-10-7-10-13s6-12 13-12c6 0 12 6 12 12s-4 11-10 13v20c5 0 9 2 9 3 0 2-4 3-9 4v8c2 3 3 11 3 19v11c3 1 5 4 6 8l199 199v-25h9v-137h24v137h10v68l72 72v-39c0-6 5-12 11-12h21v-149h-21c-6 0-11-6-11-12v-38c0-6 5-11 11-11h143v-180h-21v-42h1167v42h-21v180h143c6 0 11 5 11 11v38c0 6-5 12-11 12h-21v149h21c6 0 11 6 11 12v38c0 6-5 11-11 11h-21v895H2392v-895h-21l12 13h-23v12h-11v12h-7v858h-330v-38h-17v-29h-18v-30h-17v-29h-17v-29h-8v-212h-94v119h1c0 1 1 2 1 3l-2 1v1c0 2 2 3 2 4v2h-2v5s1 0 1 1c3-1 7-1 7-1h2v3c0 1-1 2-2 3 1 2 3 7 4 7l-1 1c-3 0-4-1-6-2l-2 2v1h-1v1h-2v3c1 1 2 3 2 4h2c6 0 6 2 6 7l2 2c-1 1-6 2-7 0h-2l-2 2-1 2v41h-7v29h-18v29h-17v30h-17v29h-18v28zm-244-142c0-1 0-3 1-4l-1-1 1-1 4 1v-6c-1-1-1-1-1-2-3 0-7 0-7 3v2h-4v1c-2 0-3 1-5 1v-2h-82v-178h91v91c1 0 2 0 4-1-3-1-3-4-1-9 0-1 2-2 5-3v-86h-107v194h102zm-3-76h1c0-2 1-4 1-7 0 1-1 1-2 1v6zm0-12v-2 2zm25-50c2-2 3-5 5-7h-2c0-1 0-1-1-1v-1c-1-1 0-3 1-3v-3h-3v15zm0-32c3-2 5-4 8-4v-3l-1-1v-3h1v-5h13c-1-1-1-2 0-3 8 0 17 1 25 1-1 0-3-1-3-2-1 0-2-1-2-2 4 0 8 0 13-1v-1h-54v24zm186 176h-1v2c0 6 0 11-1 15-2 8-5 12-7 18l9-3v-32zm-96 16h-4v36c3 2 6 5 8 7l1 1 1 1c3 2 8 4 12 6 3 2 7 3 10 5 4 1 8 1 11 1 3 1 5 1 7 1 3 0 4 0 7 1 1 0 3 1 5 2 2 0 4 1 6 2v-1c-1-4-1-7-2-10v-1h-1v-2h-1v-1h-1v-2c-6-3-16-11-18-13-5 0-18 0-22-3-1-1-3-7-3-7 5 0 7 4 16 4 1-1 3-1 3-3 0-1-12-10-14-11l-5-2c-8-3-10-4-10-8 3 0 11 3 13 4 11 4 23 17 31 18v-3c0-3 0-7-1-11-1-3-2-9-2-12 0-2-1-5-1-8-2 0-4 0-5-2l-2-1c-1 1-3 1-4 2-4-1-9-2-12-4-3 1-5 2-6 2-2 0-6 3-10 3-1 1-4 2-4 2l-7 1v4c1 0 3 1 4 2zm-43-38h1l1 1 2-1 1 1s-1 0-1 1h2l1 2v-26h-2c0 3 0 5-1 8 0 3-1 7-2 10 0 1 0 1-1 1 0 1 0 2-1 3zm3-1h-1s1 0 1-1v1zm51 25h2l-1-2h-1v2zm3 0h2c2 0 3-1 5-1-2-1-3-2-3-3 0 0-2 0-2 1l-1 2-1 1zm-18-8l3 1c-1-2-2-4-3-5v4zm4 1c3 0 6 1 10 1l-5-8c-3 2-2 6-5 7zm-108-1c-1 0-1-1-1-1l1 1zm173-24h4c1 1 3 2 4 2 0 1 0 1 1 1 1 2 3 3 4 4l3 3c-1 2-2 4-2 6-4-3-7-7-11-9-1-1-1-2-1-3-1-2-2-3-2-4zm-12 30l-2-4h-5c-1 0-3-1-5-1-1-1-1-2-1-2v-1l2-1s3 0 3-1 0-1 1-2c-1-1-1-2-2-3 1-1 1-1 1-2 0 0 2 0 3-1l1-1c3-1 7-1 11-1 0 2 1 3 0 6-2 4-5 9-7 14zm-9 1s0 1 1 1c-1 0-2-1-3-1 0 0 1 0 1-1 0 1 1 1 1 1zm52-10v4-4zm-18-1c-4-2-6-5-9-7h-1c1 4 1 9 2 12 0 5 1 8 1 11 2-5 4-8 6-13 0-1 0-2 1-3zm-1538-19h-6l-3 3v1c3 0 7 0 10 1v-1c-1-1-1-2-1-4zm-141-29c-1 2-1 4-2 6 0 0-1 1-2 1h-5s-1-1-1-2h-3 2c1-1 4 0 6 0 1 0 1 0 1-1l1 1c0-1 1-3 1-4 1 0 1-1 2-1zm-4 18c0 1-1 2-1 3 2 2 3 0 5 0l-3 10h1l1-1c1 0 2 1 2 1-1 3 1 7 3 10 1 0 1 1 2 1l1 1c-1 3 2 6 4 5l1 1h1l1-5c-1-1-2-2-4-3h1-1c0-1 1-2 1-3h1l1 1 1 1v-1l1 1c0-1 0-1 1-1 0 0 0-1 1-2 1 0 1 1 2 1h2c0-1 0-1 1-2v-1c2 1 5-3 5-4 1-1 0-2 0-3l-1-1-1-4h-1c1-2 2-6 2-8h2c1 0 1-1 2-1 1 2 2 3 4 3-1 1-3 1-3 2h-1v3l-4 4v1c1 0 2-1 2-2l2-2h2c-2 2-3 5-2 6l3-1c0 1 1 1 1 2s0 2 1 3c-1 1-1 2-1 3v-1c-1 1-2 3-2 4l-1 1h-1l-1 1c1 1 0 3 1 4 0 1 2 1 3 2v2c0 3-2 10 0 12s4 2 5 1v2c0 1 1 2 1 2l2-1c1 0 1 1 2 1-2 2-1 4 1 8l-1 3c2 1 6-1 8-3 1 2 3 4 3 4h1c1-2 1-3 0-5h2c2 2 4 5 6 6 0 1 0 1 1 1 0 0 1 0 1 1 1 1 2 3 2 4 1 1 1 2 1 2h1v1l3 3c3 3 12 9 15 13 4 4 6 8 8 12 1 5 0 9 0 13-1 5-1 9-3 14-2 6-5 11-9 17s-8 13-13 21c-1 0-1 1-2 1v1c-5 7-12 14-19 21h91c-6-2-13-6-17-8-5-3-7-5-9-8-3-4-3-7-3-10 1-3 3-6 4-9l1-3c11-8 22-10 32-14 10-5 20-3 29-7l19-7 17-10 15-5-2-3-10 3-9 3 15-16c7-6 14-13 21-20 1-1 3-2 4-3l18-5c3-1 7-2 10-3l-1-1h-2c4-1 10-1 14-2 1-3-2-3-2-5l7-1 7 1c0 2-3 2-2 5 4 1 10 1 14 2h-2l-1 1c3 1 7 2 10 3l18 5c1 1 3 2 4 3 7 7 14 14 21 20l15 16-9-3-10-3-2 3 15 5 17 10 19 7c9 4 19 2 29 7 10 4 21 6 32 14l1 3c1 3 3 6 4 9 0 3 0 6-3 10-2 3-4 5-9 8-4 2-11 6-17 8h91c-7-7-14-14-19-21v-1c-1 0-1-1-2-1-5-8-9-15-13-21s-7-11-9-17c-2-5-2-9-3-14 0-4-1-8 0-13 2-4 4-8 8-12 3-4 12-10 15-13l3-3v-1h1s0-1 1-2c0-1 1-3 2-4 0-1 1-1 1-1 1 0 1 0 1-1 2-1 4-4 6-6h2c-1 2-1 3 0 5h1s2-2 3-4c2 2 6 4 8 3l-1-3c2-4 3-6 1-8 1 0 1-1 2-1l2 1s1-1 1-2v-2c1 1 3 1 5-1s0-9 0-12v-2c1-1 3-1 3-2 1-1 0-3 1-4l-1-1h-1l-1-1c0-1-1-3-2-4v1c0-1 0-2-1-3 1-1 1-2 1-3 1-1 1-1 1-2l3 1c1-1 0-4-2-6h2l2 2c0 1 1 2 2 2v-1l-4-4v-3h-1c0-1-2-1-3-2 2 0 3-1 4-3 1 0 1 1 2 1h2c1 2 1 6 2 8h-1l-1 4-1 1c0 1-1 2 0 3s3 5 5 4v2-1c1 1 1 1 1 2h2c1 0 1-1 2-1 1 1 1 2 2 2v1l1-1v1l1-1 1-1h1c0 1 1 2 1 3h-1 1c-1 1-3 2-4 3l1 5h1l1-1c2 1 5-2 4-5l1-1c1 0 1-1 2-1 2-3 4-7 3-10 0 0 1-1 2-1l1 1h1l-3-10c2 0 3 2 5 0 0-1-1-2-1-3 2 1 7 1 9-1 1-1 2-1 3-2 1-2 2-6 3-9 1 0 2-1 2-2h2c2 2 7 1 8 0l-2-2c0-5 0-7-6-7h-2c-1-1-2-5-3-5l-1-1h1c1 0 2-1 2-1 0-1 1-1 1-1l1-1 2-2c1 1 3 2 6 2v-1s-2-5-3-7c1-1 2-2 2-3s-1-2-1-3h-2s-3 0-6 1c0-1-1-1-1-1-4 0-11-2-14-6 1-1 1-1 1-2v-1c1 1 3 1 3 1 0 1 1 2 2 3 1 0 4 0 4-1 1 1 3 1 5 1 0-1 1-1 1-1v-1c-1-1-2-2-2-5 0 0 1-1 2-1 0-1-1-2-2-3h-3c2-2 3-4 1-8-2-3-12-4-16-5-1-1-2-2-5-2-1-1-3-2-4-2 1-2 1-4-1-7-2-5-14-6-18-7h-1c1-1 2-1 2-2-1 0-3 0-4 1-1 0-2-1-3-1h-1l-1-1c-1 0-1-1-1-1v-1c0-1 1-1 1-1h5v1l5 3v2c1 0 3 2 5 1 1 0 7-2 7-4h2v-1h3v-5l1-1h3c0-1 0-1 1-1v-1s0-2-1-2v-2l1-1h4v1-1c0 2 0 5 2 7h8v-1c-1 0-1-1-1-1 2-3 0-9-4-9l-2-1v-3c-3-4-8-9-13-9v-2l1-2c0-1 1-2 1-2l-9 1c0-2-1-4-3-6 1 0 1-1 0-2h-4l-1-1c0-1-1-3-1-4-3-4-9-11-15-11v-2l2-2v-2l-17 1c0-4 5-6 3-10-8 0-17 2-25 1 1 0 2 0 3-1 1 0 2-1 2-2-5 0-13-1-19-1l-43-3c0-1-8 0-9 1s-1 1-1 2h-15c-6 1-5 2-3 2l-2 3h-6c-4 1-9 0-10 4-5 1-10 0-14 2-1 0-1 2-2 2 0 0-1 0-1 1l-23 1c-7 0-14 1-20 1 0 1 2 2 3 2 0 1 2 2 3 2-8 0-17-1-26-1-1 3 3 5 3 9l-16-1v3l2 1c0 1-1 2-1 3-6 0-11 7-15 11v4l-2 1c-1 0-1 1-2 1s-1-1-2-1l-2-1v-4c-4-4-9-11-15-11 0-1-1-2-1-3l2-1v-3l-16 1c0-4 4-6 3-9-9 0-18 1-26 1 1 0 3-1 3-2 1 0 3-1 3-2-6 0-13-1-20-1l-23-1c0-1-1-1-1-1-1 0-1-2-2-2-4-2-9-1-14-2-1-4-6-3-10-4h-6l-2-3c2 0 3-1-3-2h-15c0-1 0-1-1-2s-9-2-9-1l-43 3c-6 0-14 1-19 1 0 1 1 2 2 2 1 1 2 1 3 1-8 1-17-1-25-1-2 4 3 6 3 10l-17-1v2l2 2v2c-6 0-12 7-15 11 0 1-1 3-1 4l-1 1h-4c-1 1-1 2 0 2-2 2-3 4-3 6l-9-1s1 1 1 2l1 2v2c-5 0-10 5-13 9v3l-2 1c-4 0-6 6-4 9 0 0 0 1-1 1v1h8c2-2 2-5 2-7v1-1h4l1 1v2c-1 0-1 2-1 2v1c1 0 1 0 1 1h3c0 1 1 1 1 1v5h3v1h2c0 2 6 4 7 4 2 1 4-1 5-1v-2l5-3v-1h5s1 0 1 1v1s0 1-1 1v1h-2c-1 0-2 1-3 1-1-1-3-1-4-1 0 1 1 1 2 2h-1c-4 1-16 2-18 7-2 3-2 5-1 7-1 0-3 1-4 2-2 0-4 1-5 2-4 1-14 2-16 5-2 4-1 6 1 8h-3c-1 1-2 2-2 3 1 0 2 1 2 1 0 3-1 4-2 5v1s1 0 1 1c2 0 4 0 5-1 0 1 3 1 4 1 1-1 2-2 2-3 1 0 2 0 3-1v1c0 1 0 1 1 2-3 4-10 6-14 6 0 0-1 0-1 1-3-1-6-1-6-1H3c0 1-1 2-1 3s1 2 2 3c-1 2-3 7-3 7v1c3 0 5-1 6-2l2 2 1 1s1 0 1 1c0 0 1 1 2 1h1l-1 1c-1 0-2 4-3 5H8c-6 0-6 2-6 7l-2 2c1 1 6 2 8 0h2c0 1 1 2 2 2 1 3 2 7 3 9 1 1 2 1 3 2 2 2 7 2 9 1zm295-82c-4-10-10-20-15-29h1c0-1 1-1 1-1v-1c1-1 0-3 0-3v-3h5c1 3 1 5 3 8h10c2-3 2-5 3-8h5v3s-1 2 0 3v1s1 0 1 1h1c-5 9-10 19-15 29zm4-37l-1-1h2c-1 0-1 1-1 1zM58 6427zm-1-1zm-1-4v-2c0-2 1-3 1-5h1c0 2 0 4 1 6 0 0 0 1 1 1v1c-1 0-2-1-4-1zm5 8c-2 1-3 2-4 3 1 1 3-1 4-2v-1zm15 48v-1c1 0 1-2 2-2-1-1-1-2-2-2 1 0 1-2 1-2v-1c2 1 3 3 3 6-1 0-2 1-2 2h-2zm16 8l2 2v2l-1 1c-1-1-1-2-2-3 0 0 1-1 1-2zm18 2c1-1 1-1 2-3v-2h-1v2c0 1-1 1-1 2 1-4 3-7 2-14v-1h14v2c0 6 1 11 2 15 1 8 4 12 7 18-4-1-8-2-12-4s-8-4-10-6c-2-3-3-4-3-8v-1zm-37-40c-1-1-2-2-3-4 1 1 3 0 4-3 1 0 2-1 2-1 0-1 1-1 1-2h4c-1 4-5 8-8 10zm7 23c-1 0-1-2 0-3v3zm-40-15c0 1 0 2 1 3 0-1-1-1-1-2v-1zm181 32h2c3 0 6-1 9-2v1h1v1c1 0 5-1 5-1l4-1h1c-6 5-12 9-18 13h2c3 0 5-1 8-1h1v1c1 0 5 0 5-1l11-3c-2 2-4 4-5 6h-1l-3 3-14 16c-4 4-8 7-12 11v1c-1 0-2 1-2 1-3 2-8 4-12 6-3 2-7 3-10 5-4 1-8 1-11 1-3 1-5 1-7 1-3 0-3 0-7 1-1 0-3 1-4 2-3 0-5 1-6 2h-1v-1c1-4 2-7 2-10v-1h1v-1h1v-2h1v-1h1v-1c5-3 15-11 17-13 5 0 18 0 22-3 1-1 4-7 4-7-6 0-8 4-17 4-1-1-3-1-3-3 0-1 12-10 14-11l6-2c7-3 10-4 9-8-3 0-11 3-13 4-11 4-23 17-31 18v-3c0-3 0-7 1-11 1-3 2-9 2-12 1-2 1-5 1-8 2 0 4 0 5-2l3-1c1 1 2 1 3 2 4-1 9-2 13-4 2 1 4 2 5 2 2 0 7 3 10 3 1 1 4 2 4 2l11 2c-3 2-5 3-8 5zm43-38h-1s-1 1 0 1h-1s-1-1-2-1c0 1-1 1-1 1 1 0 1 0 1 1h-1c-1 1-2 3-3 4h-1v1s0 1-1 1c0 0 0-1-1-1l-1 1c-4 2-8 3-11 4-2-1-4-2-4-3-2-1-3 1-4 0s-3-4-4-5c2-3 3-7 5-9 0 0-1 2 0 3 0 0 0 2 1 3 2-4 4-7 7-11 1 0 1 0 2 1 2 1 5 3 7 4s6 2 6 1-4-2-6-3-3-3-5-4c-1 0-2-1-3-1 1-1 2-2 2-3l1-2c1 1 1 2 2 2 2 3 4 2 5 1s0-5 2-7c1 0 2-1 2-1h2c0 3 1 5 1 8 1 3 2 7 3 10h-1c0 1 1 1 1 1 0 1 1 2 1 3zm-3-1h1l-1-1v1zm-51 25h-1l1-2c0 1 0 1 1 1l-1 1zm-3 0h-2c-2 0-3-1-4-1 1-1 2-2 2-3 1 0 2 0 3 1v2c1 0 1 1 1 1zm31-11c-5 2-10 3-15 4 1-3 3-7 4-10 1 2 3 3 5 4s3 1 5 2h1zm-16 4c-4 0-7 1-10 1l4-8c3 2 3 6 6 7zm-65-25h-4l-4 2-1 1c-2 2-4 3-5 4s-1 2-2 3c0 2 1 4 1 6 4-3 7-7 12-9v-3c1-2 2-3 3-4zm-38-8c-3 1-5 2-7 3h3c1 1 3-1 4-3zm-45-26l-3-3-1 3c0 1 1 2 1 3 1-1 2-2 3-2v-1zm-55 22c-1 0-2-1-3-2s-2-4-2-6c1 0 2-1 3-2 2 1 3 2 4 4-1 1-1 2-1 5l-1 1zm6-46c1-1 1-2 2-2v-1 2c-1 0-1 1-2 1zm3-63c-1 1-3 1-3 3 0-1 1-2 3-2v-1zm37 94c-2 2-4 4-5 6v-1c-1-2-1-3 0-5 2 1 4 0 5 0zm18 26c1-2 1-3 1-3h1v1h-1c0 1 0 1-1 2zm-24-30h1v1c-1 0-1-1-1-1zm258-99h2l-1 1s0-1-1-1zm-149 160l3-4h5c1 0 3-1 5-1 0-1 0-2 1-2v-1l-3-1s-2 0-2-1h-1v-2c0-1 0-2 1-3 0-1-1-1 0-2-1 0-3 0-3-1h-1l-1-1c-3-1-7-1-10-1h-1c0 2-1 3 0 6 2 4 5 9 7 14zm9 1v1l2-2c0 1 0 1-1 0 0 1 0 1-1 1zm-52-11v2c0 1 0 2 1 3h-4c-3 1-7 1-11 1-2-4-3-9-5-13h1l1 1c2 0 4-1 6 1v3h4v-1c1 0 2-1 2-3 1 3 2 5 5 6zm-19-8c-1-3-1-5-2-7 4-5 11-10 16-7l-1 1s-3 2-3 3c-1 0-3 0-4 1 0 0-3 3-1 4-2 1-3 3-5 5zm38 8c3-2 5-5 8-7h1c-1 4-1 9-1 12-1 5-1 8-2 11-2-5-4-8-5-13-1-1-1-2-1-3zm-78-52c0 1 0 2 1 2-2 0-4 1-6 1v-1c1 0 1-1 1-1h4v-1zm406 33h6l3 3s0 1 1 1c-4 0-8 0-11 1v-1c1-1 1-2 1-4zm141-29c1 2 1 4 2 6 0 0 1 1 2 1h5s1-1 1-2h3-2c-1-1-4 0-6 0-1 0-1 0-1-1l-1 1c0-1-1-3-1-4-1 0-1-1-2-1zm-27 13zm1-1zm1-4c0-1 0-1 1-2-1-2-2-3-2-5h-1c0 2 0 4-1 6 0 0 0 1-1 1v1c1 0 3-1 4-1zm-5 8c2 1 3 2 4 3-1 1-3-1-4-2v-1zm-15 48v-1c-1 0-1-2-2-2 1-1 1-2 2-2-1 0-1-2-1-2v-1c-2 1-3 3-3 6 1 0 2 1 2 2h2zm-16 8l-2 2v2l1 1c1-1 1-2 2-3 0 0-1-1-1-2zm-18 2c-1-1-1-1-2-3v-2h1v2c0 1 1 1 1 2-1-4-3-7-2-14v-1h-14v2c0 6-1 11-2 15-1 8-4 12-7 18 4-1 8-2 12-4s8-4 10-6c2-3 3-4 3-8v-1zm37-40c1-1 2-2 3-4-1 1-3 0-4-3-1 0-2-1-2-1 0-1 0-1-1-2h-4c1 4 5 8 8 10zm-7 23c1 0 1-2 0-3v3zm40-15c0 1 0 2-1 3 0-1 1-1 1-2v-1zm-181 32h-2c-3 0-6-1-9-2v1h-1v1c-1 0-5-1-5-1l-4-1h-1c6 5 12 9 18 13h-2c-3 0-5-1-8-1h-1v1c-1 0-5 0-5-1l-11-3c2 2 4 4 5 6h1l3 3 14 16c4 4 8 7 12 11v1c1 0 2 1 2 1 3 2 8 4 12 6 3 2 7 3 10 5 4 1 8 1 11 1 3 1 5 1 7 1 3 0 4 0 7 1 1 0 3 1 4 2 3 0 5 1 6 2h1v-1c-1-4-2-7-2-10v-1h-1v-1h-1v-2h-1v-1h-1v-1c-5-3-15-11-17-13-5 0-18 0-22-3-1-1-4-7-4-7 6 0 8 4 17 4 1-1 3-1 3-3 0-1-12-10-14-11l-6-2c-7-3-10-4-9-8 3 0 11 3 13 4 11 4 23 17 31 18v-3c0-3 0-7-1-11-1-3-2-9-2-12-1-2-1-5-1-8-2 0-4 0-5-2l-3-1c-1 1-2 1-3 2-4-1-9-2-13-4-2 1-4 2-5 2-2 0-7 3-10 3-1 1-4 2-4 2l-11 2c3 2 5 3 8 5zm-43-38h1s1 1 0 1h1s1-1 2-1c0 1 1 1 1 1-1 0-1 0-1 1h1c1 1 2 3 3 4h1v1s0 1 1 1c0 0 0-1 1-1l1 1h-1 2c3 2 7 3 11 4 1-1 3-2 3-3 2-1 3 1 4 0s3-4 4-5c-2-3-3-7-5-9 0 0 1 2 0 3 0 0 0 2-1 3-2-4-4-7-7-11-1 0-1 0-2 1-2 1-5 3-7 4s-6 2-6 1 4-2 6-3 3-3 5-4c1 0 2-1 3-1-1-1-2-2-2-3l-1-2c-1 1-1 2-2 2-2 3-4 2-5 1s0-5-2-7c-1 0-2-1-2-1h-2c0 3-1 5-1 8-1 3-2 7-3 10h1c0 1-1 1-1 1 0 1-1 2-1 3zm3-1h-1l1-1v1zm51 25h1l-1-2c0 1 0 1-1 1l1 1zm3 0h2c2 0 3-1 4-1-1-1-2-2-2-3-1 0-2 0-3 1v2c-1 0-1 1-1 1zm-31-11c5 2 10 3 15 4-1-3-3-7-4-10-1 2-3 3-5 4s-3 1-5 2h-1zm16 4c4 0 7 1 10 1l-4-8c-3 2-3 6-6 7zm65-25h4l4 2 1 1c2 2 4 3 5 4s1 2 2 3c0 2-1 4-1 6-4-3-7-7-12-9v-3c-1-2-2-3-3-4zm38-8c3 1 5 2 7 3h-3c-1 1-3-1-4-3zm45-26l3-3 1 3c0 1-1 2-1 3-1-1-2-2-3-2v-1zm55 22c1 0 2-1 3-2s2-4 2-6c-1 0-2-1-3-2-2 1-3 2-4 4 1 1 1 2 1 5l1 1zm-6-46c-1-1-1-2-2-2v-1 2c1 0 1 1 2 1zm-3-63c1 1 3 1 3 3 0-1-1-2-3-2v-1zm-37 94c2 2 4 4 5 6v-1c1-2 1-3 0-5-2 1-4 0-5 0zm-18 26c-1-2-1-3-1-3h-1v1h1c0 1 0 1 1 2zm24-30h-1v1c1 0 1-1 1-1zm-109 61l-3-4h-5c-1 0-3-1-5-1 0-1 0-2-1-2v-1l3-1s2 0 2-1h1v-2c0-1 0-2-1-3 0-1 1-1 1-2 0 0 2 0 2-1h1l1-1c3-1 7-1 10-1h1c0 2 1 3 0 6-2 4-5 9-7 14zm-9 1v1s-1-1-2-1l1-1c0 1 0 1 1 1zm52-11v2c0 1 0 2-1 3h4c3 1 7 1 11 1 2-4 3-9 5-13h-1l-1 1c-2 0-4-1-6 1v3h-4v-1c-1 0-1-1-2-3-1 3-2 5-5 6zm19-8c1-3 1-5 2-7-4-5-11-10-15-7v1s3 2 3 3c1 0 3 0 4 1 0 0 3 3 1 4 2 1 3 3 5 5zm-38 8c-3-2-5-5-8-7h-1c1 4 1 9 1 12 1 5 1 8 2 11 2-5 4-8 5-13 1-1 1-2 1-3zm78-52c0 1 0 2-1 2 2 0 4 1 6 1v-1c-1 0-1-1-1-1h-3v-1h-1zm227 88h-4c-1 0-1 1-2 1v1c2 0 5 1 7 1v-1c-1 0-1-1-1-2zm-97-20c0 1-1 2-1 4h-1c-2 0-3 0-4 1 0-1-1-1-1-2h-2 7c0-1 1-2 1-3h1zm78 128c-1-2-1-4-1-6s1-4 2-6l1-2c5-4 10-5 15-7-2 2-4 5-6 7 0 1 0 2-1 2-3 4-7 8-10 12zm91-67l1-2 12-3c3 0 5-1 8-2h-1c-1-1-1-1-2-1 3-1 7-1 10-1 0-2-1-2-2-4l7-1-1-1v-1c2 0 4-4 5-5v-3c2 0 3-3 2-4v-1h-4v4h-3v-1h1c0-1-1-1-1-1v-1c-1 0 0-1 0-1s1-1 2-1l2 1-2-2 3-3v-1c2 0 4 1 4 2 1 0 3 2 3 3h3c0-7 0-14-1-20 2 0 4 0 5-1l-2-2c0-4 0-5-3-5 1-1 1-2 1-3h-2c-1-1-1-3-1-5 0-1 1-1 1-2 1 1 3 2 5 2l1-1c-1 0-2-3-3-5h2l12 2c-3 2-6 4-8 6h2c3-1 6-1 9-2 0 0 0 1 1 1 1 1 6 0 6 0l4-2 1 1c-6 5-13 10-20 14h2c4 0 7-1 10-2 0 1 0 1 1 1v1c1 0 6-1 5-1l12-3-6 6v1l-3 3-16 17c-4 4-9 8-13 12l-1 1s-1 1-2 1c-3 2-8 5-13 7-3 2-7 4-11 5s-8 2-12 2h-7c-2 1-3 1-3 1zm40-80v-1l1-1 1 1c-1 0-1 0 0 1h-2zm-197-62c-1 0-1 1-1 2h-3l1-1s0 1 1 1c0-2 0-3 1-5h2c-1 1-1 2-1 3zm-7 2v1l1 1h-3s-1-1-1-2h-3s1 0 1-1c2 0 3 1 5 1zm-4 6c-1 1-2 2-3 4 0 0-1 0-1 1v-1c-2-2-2-4-3-7 2 0 3-1 4-2 1 1 2 3 4 4l-1 1zm18 82v-1 1zm-1-1zm0-3c-1 0-1-1-1-1 0-1 1-3 1-4 0 0 1 0 1 1v3c0 1 1 1 1 1v1c-1 0-2 0-2-1zm2 6s-1 1-2 1v1c1 0 2-1 3-1 0-1 0-1-1-1zm11 33v-1c1 0 1-1 1-1 0-1 0-1-1-2 0 0 1-1 0-1l1-1c1 1 2 2 2 4-1 0-1 1-2 1 0 1 0 1-1 1zm11 6h1v3c-1-1-1-2-2-2l1-1zm12 1l2-2v-1c0-1 0-1-1-1v1c0 1 0 1-1 2 1-2 2-5 2-9 0-1 0-1-1-1h6c2 0 3 0 4-1 0 1 0 2 1 2 0 4 0 8 1 11 1 5 3 8 4 12-2-1-5-2-7-3h-1c-2-1-5-3-6-4-2-2-2-3-3-6zm-25-28c-1-1-2-1-2-2 1 0 2-1 3-3h1v-2h4c-1 3-4 6-6 7zm5 16c-1 0-1-1 0-2v2zm-28-10c0 1 0 1 1 2 0-1-1-1-1-2zm99 61h-5c-3 1-3 1-5 1-1 1-2 1-4 1-1 1-3 1-4 2v-1c0-2 1-4 1-7h1v-2h1v-1h1c4-3 10-8 12-9 2 0 7-1 11-2v1c-2 5-5 11-9 17zm10-22c-1 0-3 1-6 1-1-1-2 0-2-2 0-1 8-7 10-7-1 2-1 5-2 8zm2-13c-7 3-15 12-20 13 0-1 0-1-1-2 1-2 1-5 1-8 1-2 2-6 2-8v-5c2 0 3-1 4-2l1-1c1 1 2 1 3 1 2 0 6-1 8-2h1c1 1 1 2 1 2 1 4 0 8 0 12zm88-19l1-1-1 1zm-118-17h-3c-1 0-2 1-3 2h-1l-3 3s-1 1-1 2 0 3 1 4c2-2 4-4 7-6 1-1 1-1 1-2 0-2 1-2 2-3zm-27-6c-1 1-3 2-4 3h2c1 0 2-1 2-3zm-30-17c-1-1-2-2-2-3l-1 2c0 1 0 2 1 2l1-1h1zm-38 15c-1 0-1-1-2-1-1-1-1-3-2-5 1 0 2-1 3-1 0 1 1 2 2 2v4l-1 1zm4-32l1-1v-1h1l-1 1c0 1-1 1-1 1zm2-43c-1 0-2 1-2 1s1-1 2-1zm26 65c-2 1-3 2-4 3v-3h4zm12 17v-2h1v1l-1 1zm-17-20v-1h1v1h-1zm76 41l1-2h4s2 0 3-1l1-1v-1l-2-1c0 1-2 0-2 0v-5h-2v-1s-1 0-1-1h-7c0 1-1 2 0 4 1 3 3 6 5 9zm6 1c0 1-1 1-1 1 1 0 1-1 2-1h-1zm-36-8v4h-2c-2 1-5 1-8 1l-3-9h1c1 1 3 0 4 1v2c1 1 2 0 3 0 0-1 1-1 1-2 1 2 2 3 4 3zm-13-5c-1-2-1-3-2-5 3-3 8-6 11-4-1 0-2 2-3 2 0 0-1 0-2 1 0 0-2 2-1 3l-3 3zm26 6l5-5h1c0 3-1 6-1 8 0 4-1 5-1 8-1-4-3-6-4-9v-2zm-54-36c0 1 0 1 1 2h-4v-1c1 0 2 0 3-1zm245-42h-1v1c-1 0-2-1-3-1 0 1-1 1-1 1 1 0 1 0 1 1h-1c-1 2-3 3-4 5 0 1-1 1-1 2 0-1-1-1-1-1h-1c0 1 0 1 1 1h-2c-4 1-8 3-12 4-2-1-4-2-5-3-2-1-2 1-4 0-1-1-3-4-4-6 2-3 4-7 6-10-1 1-1 3-1 3 0 1 0 3 1 4 2-4 5-8 8-12 1 0 2 0 3 1 2 1 5 4 7 5 3 0 6 1 7 0 0-1-5-2-7-3s-3-3-5-4c-1-1-2-1-3-1 0-1 1-3 2-4l1-2c1 1 1 2 1 3 3 3 5 1 6 0 1 0 0-5 2-7 1-1 2-1 3-2h2c1 3 1 7 1 10 1 3 2 7 3 10v1c1 2 1 3 1 4zm-3-2c1 1 1 1 2 1 0 0-1-1-2-1zm-25 16c-6 2-11 3-17 4 2-3 4-7 5-10 1 1 3 2 5 4 2 1 4 1 6 2h1zm-18 4c-4 1-7 1-11 2l4-9c4 2 3 6 7 7zm-216-91c0-1 1-2 1-2v-1s1 0 1 1l-1 1-1 1zm2-69c-1 0-2 1-3 3l3-3zm573 327h-232v-30h18v-29h17v-30h18v-29h17v-29h93v29h17v29h18v30h17v29h17v30zm-266-593h11c1 0 3 1 3 2v17c0 1-2 3-3 3h-11c-1 0-2-2-2-3v-17c0-1 1-2 2-2zm262 0h11c1 0 2 1 2 2v17c0 1-1 3-2 3h-11c-1 0-2-2-2-3v-17c0-1 1-2 2-2zm-22 0h11c1 0 3 1 3 2v17c0 1-2 3-3 3h-11c-1 0-2-2-2-3v-17c0-1 1-2 2-2zm-21 0h10c2 0 3 1 3 2v17c0 1-1 3-3 3h-10c-2 0-3-2-3-3v-17c0-1 1-2 3-2zm-22 0h10c2 0 3 1 3 2v17c0 1-1 3-3 3h-10c-2 0-3-2-3-3v-17c0-1 1-2 3-2zm-22 0h11c1 0 2 1 2 2v17c0 1-1 3-2 3h-11c-1 0-3-2-3-3v-17c0-1 2-2 3-2zm-22 0h11c1 0 2 1 2 2v17c0 1-1 3-2 3h-11c-1 0-2-2-2-3v-17c0-1 1-2 2-2zm-22 0h11c1 0 2 1 2 2v17c0 1-1 3-2 3h-11c-1 0-2-2-2-3v-17c0-1 1-2 2-2zm-22 0h11c2 0 3 1 3 2v17c0 1-1 3-3 3h-11c-1 0-2-2-2-3v-17c0-1 1-2 2-2zm-21 0h10c2 0 3 1 3 2v17c0 1-1 3-3 3h-10c-2 0-3-2-3-3v-17c0-1 1-2 3-2zm-22 0h11c1 0 2 1 2 2v17c0 1-1 3-2 3h-11c-2 0-3-2-3-3v-17c0-1 1-2 3-2zm-22 0h11c1 0 2 1 2 2v17c0 1-1 3-2 3h-11c-1 0-2-2-2-3v-17c0-1 1-2 2-2zm-22 0h11c1 0 2 1 2 2v17c0 1-1 3-2 3h-11c-1 0-2-2-2-3v-17c0-1 1-2 2-2zm432-480l64-69v97h-11v25l-53-53zm64-75l-67 72-20-20 87-62v10zm-220-20c-4 0-7-9-8-22l-285 285h584l-284-284c-1 12-4 21-7 21zm-60 119h49v54h-49v-54zm68 0h49v54h-49v-54zm0 60h49v54h-49v-54zm-68 0h49v54h-49v-54zm131-62v126h-145v-126h-12v-11h169v11h-12zm142 103l-81-81v81h81zm-428 0l82-81v81h-82zm435 147h54v195h-54v-195zm-195 0h53v195h-53v-195zm203 8v179h38v-179h-38zm-195 0v179h37v-179h-37zm71 85v94h91v-94h-91zm-8-93h107v195h-107v-195zm-270 181v-78h-14v78h14zm24 0v-78h-19v78h19zm23 0v-78h-18v78h18zm20-78h-14v78h14v-78zm-81-6h81v-83h-81v83zm-13-97h107v195h-107v-195zm226 455h53v194h-53v-194zm8 8v178h37v-178h-37zm-288-43c10-51 55-90 109-90s99 39 109 90h-218zm1257 271h-279v-34h279v34zm-268-27h10c2 0 3 1 3 2v16c0 1-1 2-3 2h-10c-1 0-2-1-2-2v-16c0-1 1-2 2-2zm247 0h10c2 0 3 1 3 2v16c0 1-1 2-3 2h-10c-1 0-2-1-2-2v-16c0-1 1-2 2-2zm-20 0h10c1 0 2 1 2 2v16c0 1-1 2-2 2h-10c-2 0-3-1-3-2v-16c0-1 1-2 3-2zm-21 0h10c1 0 3 1 3 2v16c0 1-2 2-3 2h-10c-1 0-2-1-2-2v-16c0-1 1-2 2-2zm-20 0h10c1 0 2 1 2 2v16c0 1-1 2-2 2h-10c-2 0-3-1-3-2v-16c0-1 1-2 3-2zm-21 0h10c1 0 2 1 2 2v16c0 1-1 2-2 2h-10c-1 0-2-1-2-2v-16c0-1 1-2 2-2zm-21 0h10c2 0 3 1 3 2v16c0 1-1 2-3 2h-10c-1 0-2-1-2-2v-16c0-1 1-2 2-2zm-20 0h10c1 0 2 1 2 2v16c0 1-1 2-2 2h-10c-1 0-3-1-3-2v-16c0-1 2-2 3-2zm-21 0h10c2 0 3 1 3 2v16c0 1-1 2-3 2h-10c-1 0-2-1-2-2v-16c0-1 1-2 2-2zm-20 0h10c1 0 2 1 2 2v16c0 1-1 2-2 2h-10c-2 0-3-1-3-2v-16c0-1 1-2 3-2zm-21 0h10c1 0 3 1 3 2v16c0 1-2 2-3 2h-10c-1 0-2-1-2-2v-16c0-1 1-2 2-2zm-20 0h10c1 0 2 1 2 2v16c0 1-1 2-2 2h-10c-2 0-3-1-3-2v-16c0-1 1-2 3-2zm-21 0h10c1 0 2 1 2 2v16c0 1-1 2-2 2h-10c-1 0-2-1-2-2v-16c0-1 1-2 2-2zm177-1050c0-9 5-16 12-16 6 0 11 7 12 16h-24zm-219 39c-5 0-8-15-8-32v-9l-284 284h584l-285-285v10c0 17-3 32-7 32zm-178 804h61v171h-61v-171zm189-30h-316l158-159 158 159zm-19-8h-278l139-139 139 139zm105 36h107v194h-107v-194zm8 8v178h91v-178h-91zm-71 0v178h37v-178h-37zm195 0v178h38v-178h-38zm-203-8h53v194h-53v-194zm195 0h54v194h-54v-194zm-421-455h107v195h-107v-195zm13 97h81v-83h-81v83zm81 6h-14v78h14v-78zm-20 78v-78h-18v78h18zm-24 0v-78h-18v78h18zm-23 0v-78h-14v78h14zm270-181h107v195h-107v-195zm8 8v85h91v-85h-91zm0 94v85h91v-85h-91zm-71-94v179h37v-179h-37zm195 0v179h38v-179h-38zm-203-8h53v195h-53v-195zm195 0h54v195h-54v-195zm-435-147l81-81v81h-81zm428 0l-81-81v81h81zm-143-103v126h-144v-126h-13v-11h170v11h-13zm-131 62h50v54h-50v-54zm68 0h50v54h-50v-54zm0-60h50v54h-50v-54zm-68 0h50v54h-50v-54zm2588-1408V1983h112c140-22 248-140 253-285h-41v-285h91l1-138c-28-1-49-3-49-6 0-4 21-6 50-7v-51c-22 0-38-2-38-4 0-3 17-5 38-5l1-54c-15 0-26-2-26-3 0-2 11-4 26-4v-61c-15 0-26-1-26-3s11-3 26-4l1-62c-11 0-20-1-20-3 0-1 9-2 20-2l4-424h4l4 424c12 0 20 1 20 2 0 2-8 3-19 3v62c15 1 27 2 27 4s-12 3-27 3l1 61c15 0 26 2 26 4 0 1-11 3-26 3v54c22 0 38 2 38 5 0 2-16 4-38 4l1 51c28 1 49 3 49 7 0 3-21 5-49 6l1 138h276v285h-41c5 144 112 262 250 285h115v2431h20v-169h139v-128h307v128h139v169h55v-38h25v38h110l533-4294V0h96v120l333 2688v-291h182v-679h355l3-99-25 3-1-6 26-3v-125l-30-3 1-6 29 3v-182c-11-1-21-2-21-3s10-2 21-2v-29c-5-1-9-1-9-2s4-2 9-2v-26h9v26h13v-167h4v167c7 0 12 1 12 2s-5 1-12 2v1h-4v-1h-13v29c10 0 18 1 18 2s-8 2-18 3v183l33 3-1 6-32-3v123l37-3 1 6-38 4 3 99h73v679h181v1265h145V2309h337v-357h270v-350h53v-407h23V884h14v1187h98V884h14v311h23v407h53v277h218v111h81v81h314v1831h172v140h131v140h130v2436H5038c-7-6-26-8-30-21-11-41-27-131-32-198-4-70-7-150 8-194 4 13-1 40-4 60 7-11 13-22 16-36 5 23-5 48-10 68 10-14 20-28 26-44 0 19-10 47-18 66 11-6 22-29 30-44 1 23-9 53-18 74 11-7 23-29 32-44-1 21-13 50-20 74 13-11 20-29 33-40-8 24-14 51-23 74 11-9 19-22 27-34-2 19-14 45-21 66 10-7 17-16 23-28 0 22-12 49-23 66 45-35 80-121 53-198-7-19-23-38-20-68 11 15 19 33 24 56 5-9 0-36 0-50 10 21 20 44 26 70 6-18 1-28 2-52 10 20 18 44 26 68 4-12 0-32 2-46 9 20 19 41 24 66 5-12 1-30 2-42 9 20 17 42 22 66 7-7 3-29 4-36 10 20 18 41 22 68 11-146-75-230-221-233 22-22 65-4 89 6-3-8-21-18-32-24 17 1 39 14 58 20-11-11-23-21-36-30 18 2 42 16 62 22-7-11-21-17-28-28 17 6 36 9 50 18-2-8-18-19-28-26 19 2 42 17 62 24-8-8-15-18-26-24 15 2 38 13 52 22 3-6-10-13-12-20 16 8 35 13 48 24-20-29-62-60-112-66-72-7-136 24-163 68 1-34 40-47 71-58-5-3-17 3-27 0 11-7 27-10 41-14-12-3-30-2-41-2 17-8 36-15 59-18-12-3-26-4-41-4 14-8 33-11 51-16-9-5-23-4-36-4 13-9 33-13 54-16-7-4-18-4-28-4 13-7 30-12 50-14-5-6-19-2-26-6 15-6 32-10 52-12-106-21-175 44-193 130-18-65-59-119-140-116 12 6 27 9 38 16-5 4-14-2-22 2 13 8 30 12 44 18-11 6-14-1-28 0 12 10 30 13 44 20-8 3-23-1-30-2 4 11 30 16 42 24-8 3-27-8-38-4 15 9 34 12 44 24-11-3-22-6-34-4 13 7 28 12 40 18-5 3-19-3-28-4 4 9 14 12 22 16-53-34-142-27-197 10-6-1-12-1-19-1 12-7 28-10 44-14-8-4-20-3-32-3 12-9 29-12 47-14-6-4-15-4-24-4 12-6 26-11 43-12-4-5-16-2-22-5 13-6 28-10 45-11-92-18-152 38-167 114-17-57-52-105-122-102 10 6 23 8 33 14-5 3-13-2-20 2 12 7 27 10 39 16-10 4-13-2-25 0 10 8 27 11 39 17-8 3-20-1-26-2 3 9 26 14 36 21-7 3-24-7-33-3 13 7 29 10 39 21-11-3-20-6-30-4 11 6 24 10 35 16-5 2-17-3-25-3 4 7 13 9 20 14-64-42-184-15-210 52 14-10 27-21 44-28 0 4-10 14-14 19 14-3 31-19 47-26-1 8-17 15-19 26 15-10 29-20 47-28-2 9-19 19-23 32 16-12 34-20 51-30-3 11-23 19-28 33 17-9 34-18 50-28 0 9-17 15-21 26 14-8 31-14 46-21 5 3 10 7 16 9-92 10-155 63-156 169 7-16 13-34 19-50 4 6 1 19 2 28 10-12 14-30 19-46 3 6-1 20 0 30 9-18 15-38 25-56 2 10-4 25-2 40 9-17 15-36 25-52 1 10-6 25-4 42 10-17 17-37 26-54 1 8-3 28-5 40 7-2 8-14 12-23s9-17 12-24c-3 46-30 74-24 129 6 51 33 90 65 124-5-15-21-33-25-54 9 6 16 16 25 22-4-17-21-37-27-59 9 9 15 20 25 28-3-18-17-40-23-61 10 5 18 29 33 35-10-21-20-43-28-66 12 12 22 27 33 40-3-19-18-42-24-65 10 6 21 27 31 38-2-19-19-40-22-64 9 13 15 30 28 40-3 59-6 143-9 215-1 22 7 55-11 61h-621V4231c0-134 110-244 244-244 110 0 203 73 234 174h98zm367 2457h-230c-6-5-22-7-25-18-10-36-24-114-28-172-4-61-6-131 7-170 3 12-1 36-4 53 6-9 12-19 14-32 5 20-4 42-8 60 8-12 17-24 22-39 0 17-9 41-15 58 9-5 18-26 26-39 1 21-9 47-16 65 9-6 20-25 28-38-2 18-12 44-17 64 11-10 16-25 27-35-6 22-11 44-19 65 10-8 16-19 23-30-2 17-12 39-18 58 9-7 15-15 20-25 0 19-10 43-20 58 39-31 70-105 46-173-1-3-2-5-3-8l4-12c1 3 2 6 2 10 3-4 3-13 2-22 2-3 3-6 4-9l1 1v1c3 7 0 21 1 30 3-3 5-7 7-11 3 9 6 18 8 27 5-15 1-24 2-45 9 18 16 39 22 59 4-10 1-27 2-40 9 18 17 36 21 57 5-10 1-25 2-36 8 17 15 36 19 57 7-5 3-24 4-31 8 17 16 36 19 59 0-7 1-14 1-22 13 38 37 70 63 98-4-17-24-37-28-62 11 8 18 18 28 26-4-21-23-43-30-68 10 10 17 23 28 32-3-21-19-46-26-70 12 6 20 33 38 40-11-24-23-49-32-76 14 15 25 31 38 46-4-22-21-48-28-74 12 7 25 30 36 44-3-23-21-47-26-74 11 15 18 34 32 46-2 67-6 164-10 246-1 27 9 65-14 71zm-197-312c-5-10-9-22-8-37 4 6 8 12 11 19l-3 18zm116 18c-8-24-21-44-38-60 6-14 12-29 19-41 2 11-7 29-4 48 12-20 19-43 30-62 1 9-4 31-6 46 8-2 10-16 14-26 5-11 11-20 14-28-3 45-27 75-29 123zm-46-67c-2-2-4-4-6-5 2-6 5-11 7-15 2 5 1 12-1 20zm-43-26c-26-11-57-17-92-18 19-20 56-4 77 5-3-7-18-16-28-21 15 1 34 12 50 18-9-10-19-19-31-26 13 1 30 9 46 16-8 7-16 16-22 26zm25-30c-6-6-14-10-19-18 9 3 20 6 29 9-3 3-7 6-10 9zm16-13c-5-4-11-9-16-12 7 1 15 4 23 7-2 2-5 3-7 5zm17-11s-1 0-2-1c1 0 2 1 3 1h-1zm35-15c-1-1-3-2-5-3 14-7 28-12 42-19 7 3 11 8 18 10-19 3-38 6-55 12zm-10-6c-3-2-7-3-11-5 10-5 20-11 30-17 0 8-12 14-19 22zm-23-9c-3-2-7-2-11-3 9-5 19-10 27-16-1 7-9 12-16 19zm-27-6c-5 0-10-1-15-1 8-5 17-10 26-14-1 5-6 10-11 15zm-30 0c-5 0-10 1-15 2 8-5 16-11 24-15 0 5-4 9-9 13zm-36 7c-33 10-59 29-73 53 0-20 15-32 33-40-1 2-2 5-3 8 6-5 12-10 19-14 4-2 8-3 12-5-1-1-2-1-4-1 7-5 15-9 23-13 0 3-3 7-7 12zm-33 2h-2c1 0 2-1 3-1l-1 1zm11-14h-13c8-3 15-7 23-10l-10 10zm-65-1886h904c6 0 11 5 11 12v75c0 7-5 12-11 12h-904v-99zm-22-212h926c6 0 11 5 11 11v76c0 6-5 11-11 11h-926c-6 0-11-5-11-11v-76c0-6 5-11 11-11zm0-213h926c6 0 11 5 11 11v76c0 6-5 12-11 12h-926c-6 0-11-6-11-12v-76c0-6 5-11 11-11zm0-213h926c6 0 11 6 11 12v76c0 6-5 11-11 11h-926c-6 0-11-5-11-11v-76c0-6 5-12 11-12zm0-212h926c6 0 11 5 11 11v76c0 6-5 11-11 11h-926c-6 0-11-5-11-11v-76c0-6 5-11 11-11zm0-213h926c6 0 11 5 11 12v75c0 7-5 12-11 12h-926c-6 0-11-5-11-12v-75c0-7 5-12 11-12zm0-212h926c6 0 11 5 11 11v76c0 6-5 11-11 11h-926c-6 0-11-5-11-11v-76c0-6 5-11 11-11zm0-213h926c6 0 11 5 11 11v76c0 7-5 12-11 12h-926c-6 0-11-5-11-12v-76c0-6 5-11 11-11zm0-212h926c6 0 11 5 11 11v76c0 6-5 11-11 11h-926c-6 0-11-5-11-11v-76c0-6 5-11 11-11zm0-213h926c6 0 11 5 11 11v76c0 6-5 11-11 11h-926c-6 0-11-5-11-11v-76c0-6 5-11 11-11zm0-213h926c6 0 11 6 11 12v76c0 6-5 11-11 11h-926c-6 0-11-5-11-11v-76c0-6 5-12 11-12zm-527 1423c-77 0-140-63-140-140s63-140 140-140 140 63 140 140-63 140-140 140zm107-145h-104c-1 0-1 0-1 1l-58-105c-1-1-4-2-5-1-2 1-3 3-2 5l59 105v6c0 4 3 7 7 7h104c4 0 7-3 7-7v-4c0-4-3-7-7-7zM2583 5288h152v88h-152v-88zm835 0h152v88h-152v-88zm-209 0h152v88h-152v-88zm-208 0h152v88h-152v-88zm-209 0h152v88h-152v-88zm-284 267h47v101h-47v-101zm1090 0h47v101h-47v-101zm-239 0h47v101h-47v-101zm-239 0h47v101h-47v-101zm-238 0h46v101h-46v-101zm649 0h47v101h-47v-101zm-239 0h47v101h-47v-101zm-239 0h47v101h-47v-101zm-239 0h47v101h-47v-101zm650 0h47v101h-47v-101zm-239 0h47v101h-47v-101zm-239 0h47v101h-47v-101zm-239 0h47v101h-47v-101zm-104 0h46v101h-46v-101zm-68 0h47v101h-47v-101zm1278-2322h153c22-10 46-17 72-19l13-710h6l13 711c24 2 46 9 66 18h160v756c-32-14-68-22-105-22-145 0-264 119-264 264v2387h-186v-875h1c17 0 31-14 31-31v-38c0-17-14-31-31-31h-1v-111h1c17 0 31-14 31-31v-38c0-17-14-31-31-31h-123v-141h21v-81h-734V3980h907v-747zm238 341c-92 0-166-74-166-166s74-166 166-166 166 74 166 166-74 166-166 166zm-504 2232c-56 0-103 47-103 104v649h207v-649c0-57-47-104-104-104zm-1021 0c-57 0-104 47-104 104v649h207v-649c0-57-46-104-103-104zm255 0c-57 0-103 47-103 104v649h207v-649c0-57-47-104-104-104zm256 0c-57 0-104 47-104 104v649h207v-649c0-57-46-104-103-104zm255 0c-57 0-103 47-103 104v649h207v-649c0-57-47-104-104-104zm3129-1430h8v9h39v-85h-47v76zm178 0h17v9h30v-85h-47v76zm178 9v-9h24v9h23v-85h-47v85zm24 58v85h23v-85h-23zm0 144v85h23v-85h-23zm0 143v85h23v-85h-23zm0 143v86h23v-86h-23zm0 144v85h23v-85h-23zm0 143v85h23v-85h-23zm0 144v85h23v-85h-23zm0 143v85h23v-85h-23zm0 143v86h23v-86h-23zm0 144v85h23v-85h-23zm0 143v85h23v-85h-23zm0 144v85h25v-85h-25zm0 143v85h23v-85h-23zm0 144v85h23v-85h-23zm0 143v85h23v-85h-23zm340 85v-85h-8v85h8zm0-143v-85h-8v85h8zm0-144v-85h-8v85h8zm0-143v-85h-13v85h13zm0-144v-85h-8v85h8zm0-143v-85h-8v85h8zm0-143v-86h-8v86h8zm0-144v-85h-8v85h8zm0-143v-85h-8v85h8zm0-144v-85h-8v85h8zm0-143v-85h-8v85h8zm0-143v-86h-8v86h8zm0-144v-85h-8v85h8zm0-143v-85h-8v85h8zm0-144v-85h-8v85h8zm0-143v-85h-8v85h8zm0-144v-85h-8v85h8zm174-143v-85h-4v85h4zm0-143v-86h-4v86h4zm0-144v-85h-4v85h4zm0-143v-85h-4v85h4zm0-144v-85h-4v85h4zm0-143v-85h-4v85h4zm0-143v-18l-4-37v55h4zm3879 1989c34-10 68-21 102-32v195l-102 24v-187zm-910 1077h55v89h-55v-89zm780 0h55v89h-55v-89zm-87 0h55v89h-55v-89zm-87 0h54v89h-54v-89zm-88 0h55v89h-55v-89zm-87 0h55v89h-55v-89zm-87 0h54v89h-54v-89zm-88 0h55v89h-55v-89zm-87 0h55v89h-55v-89zm-88 0h55v89h-55v-89zm-81-159h55v89h-55v-89zm780 0h55v89h-55v-89zm-87 0h55v89h-55v-89zm-87 0h54v89h-54v-89zm-88 0h55v89h-55v-89zm-87 0h55v89h-55v-89zm-87 0h54v89h-54v-89zm-88 0h55v89h-55v-89zm-87 0h55v89h-55v-89zm-88 0h55v89h-55v-89zm-81-159h55v89h-55v-89zm780 0h55v89h-55v-89zm-87 0h55v89h-55v-89zm-87 0h54v89h-54v-89zm-88 0h55v89h-55v-89zm-87 0h55v89h-55v-89zm-87 0h54v89h-54v-89zm-88 0h55v89h-55v-89zm-87 0h55v89h-55v-89zm-88 0h55v89h-55v-89zm-81-159h55v90h-55v-90zm780 0h55v90h-55v-90zm-87 0h55v90h-55v-90zm-87 0h54v90h-54v-90zm-88 0h55v90h-55v-90zm-87 0h55v90h-55v-90zm-87 0h54v90h-54v-90zm-88 0h55v90h-55v-90zm-87 0h55v90h-55v-90zm-88 0h55v90h-55v-90zm-81-159h55v90h-55v-90zm780 0h55v90h-55v-90zm-87 0h55v90h-55v-90zm-87 0h54v90h-54v-90zm-88 0h55v90h-55v-90zm-87 0h55v90h-55v-90zm-87 0h54v90h-54v-90zm-88 0h55v90h-55v-90zm-87 0h55v90h-55v-90zm-88 0h55v90h-55v-90zm-81-159h55v90h-55v-90zm780 0h55v90h-55v-90zm-87 0h55v90h-55v-90zm-87 0h54v90h-54v-90zm-88 0h55v90h-55v-90zm-87 0h55v90h-55v-90zm-87 0h54v90h-54v-90zm-88 0h55v90h-55v-90zm-87 0h55v90h-55v-90zm-88 0h55v90h-55v-90zm-81-159h55v90h-55v-90zm780 0h55v90h-55v-90zm-87 0h55v90h-55v-90zm-87 0h54v90h-54v-90zm-88 0h55v90h-55v-90zm-87 0h55v90h-55v-90zm-87 0h54v90h-54v-90zm-88 0h55v90h-55v-90zm-87 0h55v90h-55v-90zm-88 0h55v90h-55v-90zm-81-159h55v90h-55v-90zm780 0h55v90h-55v-90zm-87 0h55v90h-55v-90zm-87 0h54v90h-54v-90zm-88 0h55v90h-55v-90zm-87 0h55v90h-55v-90zm-87 0h54v90h-54v-90zm-88 0h55v90h-55v-90zm-87 0h55v90h-55v-90zm-88 0h55v90h-55v-90zm-81-158h55v89h-55v-89zm780 0h55v89h-55v-89zm-87 0h55v89h-55v-89zm-87 0h54v89h-54v-89zm-88 0h55v89h-55v-89zm-87 0h55v89h-55v-89zm-87 0h54v89h-54v-89zm-88 0h55v89h-55v-89zm-87 0h55v89h-55v-89zm-88 0h55v89h-55v-89zm-81-159h55v89h-55v-89zm780 0h55v89h-55v-89zm-87 0h55v89h-55v-89zm-87 0h54v89h-54v-89zm-88 0h55v89h-55v-89zm-87 0h55v89h-55v-89zm-87 0h54v89h-54v-89zm-88 0h55v89h-55v-89zm-87 0h55v89h-55v-89zm-88 0h55v89h-55v-89zm-3363-572h-47v83h47v-83zm-89 0h-47v83h47v-83zm114-61h-187V1410h187v2831zm17-2666h47v85h-47v-85zm-267 0h47v85h-47v-85zm362 228h-6v-55l6 55zm-95-85h47v85h-47v-85zm-267 0h47v85h-47v-85zm-42 30v55h-7l7-55zm398 114h14l10 85h-24v-85zm-89 0h47v85h-47v-85zm-267 0h47v85h-47v-85zm-56 0h14v85h-25l11-85zm412 143h32l10 85h-42v-85zm-89 0h47v85h-47v-85zm-267 0h47v85h-47v-85zm-74 0h32v85h-43l11-85zm430 143h47v86h-47v-86zm-89 0h47v86h-47v-86zm-267 0h47v86h-47v-86zm-89 0h47v86h-47v-86zm445 144h47v85h-47v-85zm-89 0h47v85h-47v-85zm-267 0h47v85h-47v-85zm-89 0h47v85h-47v-85zm540 228h-6v-55l6 55zm-95-85h47v85h-47v-85zm-89 0h47v85h-47v-85zm-267 0h47v85h-47v-85zm-89 0h47v85h-47v-85zm-42 31v54h-7l7-54zm576 113h14l10 85h-24v-85zm-89 0h47v85h-47v-85zm-89 0h47v85h-47v-85zm-267 0h47v85h-47v-85zm-89 0h47v85h-47v-85zm-56 0h14v85h-25l11-85zm590 143h31l11 85h-42v-85zm-89 0h47v85h-47v-85zm-89 0h47v85h-47v-85zm-267 0h47v85h-47v-85zm-89 0h47v85h-47v-85zm-74 0h32v85h-42l10-85zm608 144h47v85h-47v-85zm-89 0h47v85h-47v-85zm-89 0h47v85h-47v-85zm-267 0h47v85h-47v-85zm-89 0h47v85h-47v-85zm-89 0h47v85h-47v-85zm623 143h47v85h-47v-85zm-89 0h47v85h-47v-85zm-89 0h47v85h-47v-85zm-267 0h47v85h-47v-85zm-89 0h47v85h-47v-85zm-89 0h47v85h-47v-85zm623 143h47v86h-47v-86zm-89 0h47v86h-47v-86zm-89 0h47v86h-47v-86zm-267 0h47v86h-47v-86zm-89 0h47v86h-47v-86zm-89 0h47v86h-47v-86zm-42 31v55h-7l7-55zm665 113h47v85h-47v-85zm-89 0h47v85h-47v-85zm-89 0h47v85h-47v-85zm-267 0h47v85h-47v-85zm-89 0h47v85h-47v-85zm-89 0h47v85h-47v-85zm-56 0h14v85h-25l11-85zm679 143h47v85h-47v-85zm-89 0h47v85h-47v-85zm-89 0h47v85h-47v-85zm-267 0h47v85h-47v-85zm-89 0h47v85h-47v-85zm-89 0h47v85h-47v-85zm-74 0h32v85h-42l10-85zm697 144h47v85h-47v-85zm-89 0h47v85h-47v-85zm-89 0h47v85h-47v-85zm-267 0h47v85h-47v-85zm-89 0h47v85h-47v-85zm-89 0h47v85h-47v-85zm-89 0h47v85h-47v-85zm712 143h47v85h-47v-85zm-89 0h47v85h-47v-85zm-89 0h47v85h-47v-85zm-267 0h47v85h-47v-85zm-89 0h47v85h-47v-85zm-89 0h47v85h-47v-85zm-89 0h47v85h-47v-85zm712 143h47v86h-47v-86zm-89 0h47v86h-47v-86zm-89 0h47v86h-47v-86zm-267 0h47v86h-47v-86zm-89 0h47v86h-47v-86zm-89 0h47v86h-47v-86zm-89 0h47v86h-47v-86zm-42 31v55h-7l7-55zm754 113h47v85h-47v-85zm-89 0h47v85h-47v-85zm-89 0h47v85h-47v-85zm-267 0h47v85h-47v-85zm-89 0h47v85h-47v-85zm-89 0h47v85h-47v-85zm-89 0h47v85h-47v-85zm-56 0h14v85h-25l11-85zm590 143h47v85h-47v-85zm-267 0h47v85h-47v-85zm-89 0h47v85h-47v-85zm-89 0h47v85h-47v-85zm-89 0h47v85h-47v-85zm-74 0h32v85h-42l10-85zm608 144h47v85h-47v-85zm-356 0h47v85h-47v-85zm-178 0h47v85h-47v-85zm534 143h47v85h-47v-85zm-89 0h47v85h-47v-85zm-89 0h47v85h-47v-85zm178 144h47v85h-47v-85zm-89 0h47v85h-47v-85zm-89 0h47v85h-47v-85zm178 143h47v85h-47v-85zm-89 0h47v85h-47v-85zm-89 0h47v85h-47v-85zm178 143h47v86h-47v-86zm-89 0h47v86h-47v-86zm-89 0h47v86h-47v-86zm178 144h47v85h-47v-85zm-89 0h47v85h-47v-85zm-89 0h47v85h-47v-85zm178 143h47v85h-47v-85zm-89 0h47v85h-47v-85zm-89 0h47v85h-47v-85zm178 144h47v85h-47v-85zm-89 0h47v85h-47v-85zm-89 0h47v85h-47v-85zm178 143h47v85h-47v-85zm-89 0h47v85h-47v-85zm-89 0h47v85h-47v-85zm178 143h47v86h-47v-86zm-89 0h47v86h-47v-86zm-89 0h47v86h-47v-86zm178 144h47v85h-47v-85zm-89 0h47v85h-47v-85zm-89 0h47v85h-47v-85zm178 143h47v85h-47v-85zm-89 0h47v85h-47v-85zm-89 0h47v85h-47v-85zm175 144h46v85h-46v-85zm-87 0h46v85h-46v-85zm-87 0h46v85h-46v-85zm177 143h47v85h-47v-85zm-89 0h47v85h-47v-85zm-89 0h47v85h-47v-85zm178 144h47v85h-47v-85zm-89 0h47v85h-47v-85zm-89 0h47v85h-47v-85zm178 143h47v85h-47v-85zm-89 0h47v85h-47v-85zm-89 0h47v85h-47v-85zM9029 923c29 0 24-46 70-32-21 29-14 55 0 88-29 0-46-25-68 15 0-29-19-33-2-71zm-112 5c30 0 24-48 70-33-21 30-14 57 0 92-29 0-46-27-68 15 0-31-19-35-2-74zm5190 5542v-656h104v656h-104zm-2764-1277c88-29 174-59 260-91v216c-50 14-100 28-151 42v-6c-2 0-4 1-7 2v6c-34 9-68 18-102 26v-195zm534-198c89-37 175-75 260-115v253c-49 20-99 39-150 57v-3c-2 1-5 2-7 3v3c-34 13-68 25-103 37v-235zm268-118c88-41 175-84 260-129v270c-50 23-100 45-151 66v-2c-2 1-4 2-7 3v2c-34 15-68 29-102 43v-253zm267-133c89-46 175-94 260-143v285c-50 26-100 52-150 76-3 1-5 2-8 3v1l-102 48v-270zm267-148c89-52 176-106 260-161v301c-84 51-171 100-260 146v-286zm268-166c89-59 176-120 260-183v318c-50 33-100 66-151 99v-3c-2 1-5 3-7 4v3c-34 22-68 43-102 64v-302zm267-188c90-67 176-137 260-208v335c-84 66-171 129-260 191v-318zm267-214c91-78 178-157 260-239v354c-83 76-170 149-260 220v-335zm268-246c67-67 132-135 193-205v373c-62 64-127 126-193 187v-355zm-8 374v1459h-150V4286c51-43 101-86 150-130zm8 1459V4149l102-96v1562h-102zm-275-1235v1235h-150V4494c51-37 101-75 150-114zm7 1235V4375c35-28 69-55 103-83v1323h-103zm-274-1039v1039h-151v-940c51-33 101-65 151-99zm7 1039V4571c34-24 69-48 102-72v1116h-102zm-275-868v868h-150v-781c51-29 101-58 150-87zm8 868v-873c34-20 68-41 102-63v936h-102zm-275-718v718h-150v-642c50-25 100-50 150-76zm7 718v-722c35-18 69-37 103-55v777h-103zm-274-587v587h-151v-520c51-22 101-44 151-67zm7 587v-590c34-16 68-32 102-49v639h-102zm-275-472v472h-150v-414c51-19 101-38 150-58zm8 472v-475l102-42v517h-102zm1713-1569c29-28 57-55 84-84v294l-32 28v693l-31 28v610h-21V4046zm260-273v525c-15-1-30-2-45-4v-10l-32-28v-398c26-28 52-57 77-85zm0 641v637h-14v-46l-31-28v-559c15-2 30-3 45-4zm0 754v447h-14v-446c5-1 10-1 14-1zm7 447v-448h35c14 0 27 0 40 1v447h-75zm0-563v-638c12-1 23-1 35-1 14 0 27 0 40 1v637c-13 1-26 1-40 1h-35zm0-754v-534l36-42c13 16 26 31 39 46v530c-13 0-26 1-40 1-12 0-23-1-35-1zm3558 1221v96h100v-84c-34-3-67-7-100-12zm-8 96v-97c-51-6-102-13-152-21v118h152zm-3467-1839v521c11 0 21-1 32-2v-11l32-28v-409c-22-24-43-47-64-71zm0 638v637-46l32-28v-560c-11-1-21-2-32-3zm0 754v447-447zm267-1114v1561h100V4147c-34-30-67-61-100-93zm-7 1561V4047c-33-32-66-64-97-96v305l31 28v693l32 28v610h34zm274-1324v1324h101V4372c-34-27-68-54-101-81zm-7 1324V4285c-52-43-103-87-152-131v1461h152zm275-1118v1118h100V4567c-34-23-67-47-100-70zm-8 1118V4491c-51-37-102-75-152-114v1238h152zm275-939v939h100v-878c-34-20-67-40-100-61zm-7 939v-944c-52-32-103-65-153-99v1043h153zm274-782v782h100v-728c-33-18-67-36-100-54zm-7 782v-786c-52-28-102-57-153-87v873h153zm274-644v644h101v-597c-34-15-67-31-101-47zm-7 644v-648c-51-24-102-50-152-76v724h152zm275-524v524h100v-482c-34-14-67-28-100-42zm-8 524v-527c-51-21-102-44-152-67v594h152zm275-419v419h100v-383c-33-12-67-24-100-36zm-7 419v-421c-51-19-102-38-153-58v479h153zm274-328v328h101v-298c-34-10-67-20-101-30zm-7 328v-331c-51-16-102-32-152-50v381h152zm275-252v252h100v-226c-34-8-67-17-100-26zm-8 252v-253c-51-14-102-28-152-43v296h152zm275-188v188h100v-167c-33-6-67-13-100-21zm-7 188v-189c-51-11-102-23-153-35v224h153zm274-136v136h101v-119c-34-5-67-11-101-17zm-7 136v-137c-51-9-102-18-152-28v165h152zm642 0h-260v-83c86 10 173 18 260 24v59zm0-69c-87-6-174-14-260-24v-123c86 18 173 35 260 50v97zm-267-24c-87-10-174-22-260-35v-149c86 21 172 41 260 60v124zm-267-36c-88-14-175-29-260-46v-172c85 24 172 47 260 69v149zm-268-48c-87-17-174-36-260-57v-194c86 28 173 54 260 79v172zm-267-59c-88-22-174-45-260-70v-214c85 31 172 61 260 90v194zm-267-72c-88-26-175-53-260-83v-233c85 35 172 69 260 101v215zm-268-85c-88-31-174-63-260-97v-251c86 39 172 77 260 114v234zm-267-100c-88-35-175-72-260-111v-269c85 45 172 87 260 128v252zm-267-114c-89-41-175-83-260-128v-285c85 50 171 97 260 144v269zm-268-132c-88-46-175-95-260-145v-301c85 55 172 109 260 161v285zm-267-149c-89-54-175-109-260-166v-317c84 62 171 123 260 181v302zm-267-171c-89-61-176-125-260-190v-334c83 71 170 140 260 206v318zm-267-196c-90-70-177-143-260-218v-354c82 82 169 161 260 238v334zm-268-225c-70-64-139-129-204-197v-372c65 73 133 145 204 215v354zm-696 1504v27l-19-15v-12h19zm0 50v109h-61v-135h30l31 26zm228 109v-17l101-84v101h-101zm0-40v-12h-3v-107h104v36l-101 83zm-303 40h-180v-12l150-123h30v135zm-222-159h180v12l-159 130h-21v-142zm-240 159h180v-12l-150-123h-30v135zm-15 0h-179v-12l150-123h29v135zm-221-159h179v12l-158 130h-21v-142zm458 0h-180v12l159 130h21v-142zm-698 159h179v-12l-150-123h-29v135zm-15 0h-179v-12l149-123h30v135zm-221-159h179v12l-159 130h-20v-142zm457 0h-179v12l158 130h21v-142zm-698 159h180v-12l-150-123h-30v135zm-14 0h-180v-12l150-123h30v135zm-222-159h180v12l-159 130h-21v-142zm458 0h-180v12l159 130h21v-142zm-477 0h-179v12l159 130h20v-142zm2138-2052v6c-2 1-4 1-6 1 2-2 4-5 6-7zm-117 129c-37 43-75 87-114 129v-120c35-6 73-9 114-9zm-99-121l-15-3v-16c5 6 10 12 15 19zm111 121c34 40 69 79 105 118v-110c-32-5-68-8-105-8zm517 2082h-179v-12l149-123h30v135zm3349 0h180v-12l-150-123h-30v135zm-14 0h-180v-12l150-123h30v135zm-222-159h180v12l-159 130h-21v-142zm458 0h-180v12l159 130h21v-142zm-698 159h180v-12l-150-123h-30v135zm-14 0h-180v-12l150-123h30v135zm-222-159h180v12l-159 130h-21v-142zm458 0h-180v12l159 130h21v-142zm-698 159h180v-12l-150-123h-30v135zm-14 0h-180v-12l150-123h30v135zm-222-159h180v12l-159 130h-21v-142zm458 0h-180v12l159 130h21v-142zm-698 159h179v-12l-149-123h-30v135zm-15 0h-179v-12l149-123h30v135zm-221-159h179v12l-159 130h-20v-142zm457 0h-179v12l159 130h20v-142zm-697 159h179v-12l-150-123h-29v135zm-15 0h-180v-12l150-123h30v135zm-222-159h180v12l-159 130h-21v-142zm458 0h-180v12l159 130h21v-142zm-698 159h180v-12l-150-123h-30v135zm-14 0h-180v-12l150-123h30v135zm-222-159h180v12l-159 130h-21v-142zm458 0h-180v12l159 130h21v-142zm-698 159h179v-12l-149-123h-30v135zm-15 0h-179v-12l149-123h30v135zm-221-159h179v12l-159 130h-20v-142zm457 0h-179v12l159 130h20v-142zm-698 159h179v-12l-149-123h-30v135zm221-159h-179v12l159 130h20v-142zm-457 0h179v12l-159 130h-20v-142z"/></svg>